<svg width="22" height="22" viewBox="0 0 22 22" fill="black" xmlns="http://www.w3.org/2000/svg">
<path d="M9.64062 0.340614C5.85312 0.823427 2.62344 3.2703 1.10937 6.7953C0.490625 8.24374 0.228125 9.66874 0.279687 11.3469C0.321875 12.8562 0.598437 14.0609 1.19844 15.4109C2.59062 18.5141 5.49687 20.8484 8.82031 21.5234C9.81875 21.725 11.1734 21.7906 12.1625 21.6828C17.1078 21.1484 21.05 17.2578 21.6641 12.3078C21.8938 10.4516 21.6078 8.45936 20.8672 6.75311C19.3297 3.19999 15.9922 0.729677 12.1625 0.317177C11.5531 0.246864 10.25 0.260927 9.64062 0.340614ZM12.0781 1.81249C13.7844 2.02811 15.3781 2.68905 16.7422 3.7578C17.1734 4.0953 18.0078 4.93905 18.3219 5.35155C18.8938 6.11093 19.4281 7.0953 19.7188 7.92968C20.7734 10.9719 20.1969 14.3234 18.1859 16.8125C17.8484 17.2297 17.0469 18.0172 16.6484 18.3172C15.3266 19.3297 13.7328 19.9812 12.0781 20.1875C11.1922 20.2953 9.82344 20.2203 8.9375 20.0141C7.7 19.7281 6.3875 19.1094 5.35156 18.3172C4.92969 17.9984 4.09062 17.1641 3.75781 16.7422C2.67031 15.35 2.01406 13.7562 1.80781 12.0125C1.7375 11.4219 1.77969 9.99218 1.87812 9.45311C2.05625 8.50624 2.25781 7.8828 2.66094 7.02499C3.23281 5.8203 4.02969 4.79374 5.11719 3.87499C6.33125 2.85312 8.0375 2.08436 9.59375 1.86405C9.78594 1.83593 9.99688 1.80311 10.0625 1.79374C10.3297 1.75624 11.7125 1.7703 12.0781 1.81249Z"/>
<path d="M10.6715 5.04218C9.99648 5.26249 9.6168 5.92812 9.79961 6.56562C9.90273 6.91249 10.1277 7.19374 10.4371 7.3578C10.6715 7.47968 10.7277 7.49374 11.0512 7.47499C11.4777 7.45155 11.7684 7.30624 11.9887 7.00155C12.4574 6.35468 12.2512 5.49218 11.5434 5.13124C11.3371 5.02812 10.8637 4.97655 10.6715 5.04218Z"/>
<path d="M8.6375 8.8531C8.12656 9.14372 8.14062 9.89372 8.66094 10.1562C8.81562 10.2359 8.9375 10.25 9.54687 10.25H10.25V12.9922V15.7343H9.60781C9.25156 15.7343 8.88594 15.7578 8.7875 15.7812C8.55781 15.8468 8.3 16.1375 8.25781 16.3859C8.21562 16.6343 8.375 16.9765 8.60469 17.1265C8.75937 17.2297 8.80156 17.2343 9.87031 17.2343C13.4422 17.2437 13.3531 17.2484 13.5734 16.9718C13.8172 16.6625 13.7937 16.2453 13.5172 15.9781C13.3016 15.7718 13.1375 15.7343 12.3969 15.7343H11.75L11.7406 12.4812C11.7266 9.27497 11.7266 9.22341 11.6281 9.09685C11.5766 9.02654 11.4734 8.92341 11.4031 8.87185C11.2812 8.7781 11.2016 8.77341 10.0484 8.75935C8.84844 8.74997 8.81562 8.74997 8.6375 8.8531Z"/>
</svg>
