<svg width="90" height="43" viewBox="0 0 90 43" fill="none" xmlns="http://www.w3.org/2000/svg">
<path d="M17.4922 41.7911C17.2676 42.1682 16.9844 42.4647 16.6426 42.6807C16.304 42.8936 15.9004 43 15.4316 43C15.0605 43 14.7253 42.9392 14.4258 42.8175C14.1263 42.6959 13.8708 42.5286 13.6592 42.3157C13.4476 42.1028 13.2848 41.8519 13.1709 41.563C13.057 41.274 13 40.9608 13 40.6232C13 40.2765 13.0602 39.9526 13.1807 39.6515C13.3044 39.3473 13.4769 39.0827 13.6982 38.8577C13.9229 38.6296 14.1898 38.4501 14.499 38.3193C14.8115 38.1886 15.1582 38.1232 15.5391 38.1232C15.666 38.1232 15.7832 38.1323 15.8906 38.1505C16.0013 38.1658 16.1071 38.187 16.208 38.2144C16.3122 38.2418 16.4147 38.2752 16.5156 38.3148C16.6165 38.3513 16.7223 38.3923 16.833 38.438C16.8818 38.438 16.9242 38.4273 16.96 38.406C16.9958 38.3847 17.0251 38.3589 17.0479 38.3285C17.0706 38.2981 17.0885 38.2646 17.1016 38.2281C17.1178 38.1886 17.1309 38.1536 17.1406 38.1232H17.2725L17.3799 39.7016H17.2725C17.2106 39.507 17.1309 39.3291 17.0332 39.1679C16.9388 39.0036 16.8232 38.8622 16.6865 38.7436C16.5531 38.625 16.3968 38.5322 16.2178 38.4653C16.0387 38.3984 15.8337 38.365 15.6025 38.365C15.3747 38.365 15.1729 38.3969 14.9971 38.4608C14.8245 38.5216 14.6715 38.6068 14.5381 38.7162C14.4079 38.8257 14.2972 38.9535 14.2061 39.0995C14.1182 39.2454 14.0465 39.4036 13.9912 39.5739C13.9391 39.7412 13.9001 39.9161 13.874 40.0985C13.8512 40.278 13.8398 40.4559 13.8398 40.6323C13.8398 40.9091 13.8757 41.1721 13.9473 41.4215C14.0189 41.6709 14.1296 41.8899 14.2793 42.0785C14.4323 42.267 14.626 42.4161 14.8604 42.5255C15.098 42.635 15.3812 42.6898 15.71 42.6898C15.9183 42.6898 16.1006 42.667 16.2568 42.6214C16.4163 42.5757 16.5596 42.5119 16.6865 42.4297C16.8167 42.3446 16.9372 42.2427 17.0479 42.1241C17.1585 42.0024 17.2692 41.8671 17.3799 41.7181L17.4922 41.7911Z" fill="#0261E0"/>
<path d="M19.8311 42.8859V42.7536C19.9417 42.7536 20.0312 42.746 20.0996 42.7308C20.1712 42.7156 20.2266 42.6898 20.2656 42.6533C20.3079 42.6137 20.3356 42.562 20.3486 42.4982C20.3649 42.4313 20.373 42.3461 20.373 42.2427V41.0064C20.373 40.9091 20.3714 40.8057 20.3682 40.6962C20.3649 40.5867 20.347 40.4863 20.3145 40.3951C20.2819 40.3008 20.2282 40.2232 20.1533 40.1624C20.0785 40.0985 19.971 40.0666 19.8311 40.0666C19.7464 40.0666 19.665 40.0803 19.5869 40.1077C19.5088 40.132 19.4339 40.1655 19.3623 40.208C19.2907 40.2476 19.224 40.2947 19.1621 40.3495C19.1003 40.4042 19.0433 40.4589 18.9912 40.5137V42.2427C18.9912 42.3461 18.9961 42.4313 19.0059 42.4982C19.0189 42.5651 19.0449 42.6183 19.084 42.6578C19.123 42.6943 19.1768 42.7202 19.2451 42.7354C19.3167 42.7476 19.4111 42.7536 19.5283 42.7536V42.8859H17.8584V42.7536C17.9658 42.7536 18.0537 42.746 18.1221 42.7308C18.1904 42.7126 18.2441 42.6837 18.2832 42.6442C18.3223 42.6016 18.3483 42.5484 18.3613 42.4845C18.3743 42.4176 18.3809 42.337 18.3809 42.2427V38.917C18.3809 38.8805 18.3776 38.8349 18.3711 38.7801C18.3678 38.7254 18.3581 38.6737 18.3418 38.625C18.3255 38.5733 18.3011 38.5292 18.2686 38.4927C18.236 38.4562 18.1904 38.438 18.1318 38.438C18.0863 38.438 18.0407 38.444 17.9951 38.4562C17.9495 38.4653 17.904 38.4775 17.8584 38.4927L17.7998 38.3741L18.8203 38H18.9912V40.2993C19.0563 40.208 19.1279 40.1229 19.2061 40.0438C19.2842 39.9617 19.3688 39.8917 19.46 39.8339C19.5544 39.7731 19.6553 39.726 19.7627 39.6925C19.8734 39.6591 19.9889 39.6423 20.1094 39.6423C20.3242 39.6423 20.4902 39.6895 20.6074 39.7838C20.7279 39.875 20.8158 39.9906 20.8711 40.1305C20.9297 40.2704 20.9639 40.424 20.9736 40.5912C20.9867 40.7585 20.9932 40.9167 20.9932 41.0657V42.2427C20.9932 42.337 20.998 42.4176 21.0078 42.4845C21.0208 42.5484 21.0452 42.6016 21.0811 42.6442C21.1169 42.6837 21.1673 42.7126 21.2324 42.7308C21.2975 42.746 21.3838 42.7536 21.4912 42.7536V42.8859H19.8311Z" fill="#0261E0"/>
<path d="M24.8701 42.4297C24.8245 42.4875 24.7725 42.5484 24.7139 42.6122C24.6585 42.6731 24.5967 42.7293 24.5283 42.781C24.4632 42.8297 24.3916 42.8692 24.3135 42.8996C24.2354 42.9331 24.154 42.9498 24.0693 42.9498C23.9912 42.9498 23.9261 42.9346 23.874 42.9042C23.8252 42.8738 23.7861 42.8342 23.7568 42.7856C23.7275 42.7339 23.7064 42.6776 23.6934 42.6168C23.6836 42.556 23.6787 42.4936 23.6787 42.4297C23.5973 42.4906 23.516 42.5514 23.4346 42.6122C23.3532 42.6731 23.2686 42.7293 23.1807 42.781C23.0928 42.8297 23.0016 42.8692 22.9072 42.8996C22.8128 42.9331 22.7103 42.9498 22.5996 42.9498C22.4727 42.9498 22.3587 42.9285 22.2578 42.8859C22.1602 42.8464 22.0771 42.7901 22.0088 42.7172C21.9404 42.6442 21.8883 42.559 21.8525 42.4617C21.8167 42.3613 21.7988 42.2533 21.7988 42.1378C21.7988 42.01 21.8298 41.8929 21.8916 41.7865C21.9567 41.68 22.0413 41.5827 22.1455 41.4945C22.2497 41.4063 22.3685 41.3273 22.502 41.2573C22.6354 41.1843 22.7721 41.1204 22.9121 41.0657C23.0521 41.0079 23.1888 40.9577 23.3223 40.9151C23.4557 40.8726 23.5745 40.8345 23.6787 40.8011V40.6734C23.6787 40.5669 23.6706 40.465 23.6543 40.3677C23.6413 40.2673 23.612 40.1791 23.5664 40.1031C23.5208 40.024 23.4574 39.9617 23.376 39.9161C23.2946 39.8704 23.1855 39.8476 23.0488 39.8476C22.9382 39.8476 22.8486 39.8628 22.7803 39.8932C22.7152 39.9206 22.6647 39.9617 22.6289 40.0164C22.5964 40.0681 22.5752 40.1305 22.5654 40.2035C22.5557 40.2734 22.5508 40.351 22.5508 40.4361C22.5508 40.5395 22.5296 40.6201 22.4873 40.6779C22.445 40.7357 22.362 40.7646 22.2383 40.7646C22.1243 40.7646 22.0446 40.7342 21.999 40.6734C21.9535 40.6125 21.9307 40.5335 21.9307 40.4361C21.9307 40.2932 21.9714 40.1715 22.0527 40.0712C22.1341 39.9708 22.235 39.8887 22.3555 39.8248C22.4792 39.7609 22.6126 39.7153 22.7559 39.688C22.8991 39.6575 23.0342 39.6423 23.1611 39.6423C23.3727 39.6423 23.5501 39.6621 23.6934 39.7016C23.8398 39.7381 23.957 39.8005 24.0449 39.8887C24.1328 39.9738 24.1947 40.0849 24.2305 40.2217C24.2695 40.3555 24.2891 40.5213 24.2891 40.719V41.7911C24.2891 41.8793 24.2874 41.972 24.2842 42.0693C24.2842 42.1667 24.2923 42.2579 24.3086 42.3431C24.3184 42.3856 24.333 42.4252 24.3525 42.4617C24.3753 42.4951 24.4144 42.5119 24.4697 42.5119C24.499 42.5119 24.5316 42.5012 24.5674 42.4799C24.6064 42.4556 24.6455 42.4282 24.6846 42.3978C24.7236 42.3674 24.7594 42.337 24.792 42.3066C24.8278 42.2731 24.8538 42.2488 24.8701 42.2336V42.4297ZM23.6787 40.9973C23.568 41.0398 23.4395 41.09 23.293 41.1478C23.1465 41.2026 23.0081 41.2695 22.8779 41.3485C22.751 41.4246 22.6419 41.5143 22.5508 41.6177C22.4629 41.7211 22.4189 41.8412 22.4189 41.9781C22.4189 42.045 22.4303 42.1134 22.4531 42.1834C22.4759 42.2503 22.5101 42.3111 22.5557 42.3659C22.6012 42.4206 22.6566 42.4647 22.7217 42.4982C22.7868 42.5316 22.86 42.5484 22.9414 42.5484C23.0065 42.5484 23.0716 42.5377 23.1367 42.5164C23.2051 42.4951 23.2702 42.4678 23.332 42.4343C23.3971 42.3978 23.459 42.3598 23.5176 42.3203C23.5762 42.2777 23.6299 42.2381 23.6787 42.2016V40.9973Z" fill="#0261E0"/>
<path d="M27.4482 40.0255C27.4482 40.1107 27.4141 40.1852 27.3457 40.2491C27.2806 40.313 27.2025 40.3449 27.1113 40.3449C27.056 40.3449 27.0039 40.3327 26.9551 40.3084C26.9095 40.281 26.8639 40.2536 26.8184 40.2263C26.776 40.1959 26.7354 40.1685 26.6963 40.1442C26.6605 40.1168 26.6247 40.1031 26.5889 40.1031C26.54 40.1031 26.4896 40.1259 26.4375 40.1715C26.3887 40.2141 26.3415 40.2658 26.2959 40.3266C26.2536 40.3844 26.2145 40.4422 26.1787 40.5C26.1429 40.5578 26.1169 40.6019 26.1006 40.6323V42.156C26.1006 42.3568 26.1413 42.5073 26.2227 42.6077C26.304 42.705 26.4603 42.7536 26.6914 42.7536V42.8859H24.9482V42.7536C25.0752 42.7536 25.1729 42.7445 25.2412 42.7263C25.3128 42.708 25.3665 42.6761 25.4023 42.6305C25.4382 42.5849 25.4593 42.5255 25.4658 42.4526C25.4756 42.3765 25.4805 42.2838 25.4805 42.1743V40.906C25.4805 40.8695 25.4788 40.8148 25.4756 40.7418C25.4756 40.6688 25.4723 40.5928 25.4658 40.5137C25.4593 40.4346 25.4479 40.3601 25.4316 40.2901C25.4186 40.2202 25.3975 40.17 25.3682 40.1396C25.3161 40.1153 25.2526 40.1031 25.1777 40.1031C25.1061 40.1031 25.0296 40.1183 24.9482 40.1487L24.9092 40.0255L25.9492 39.6423H26.1006V40.354C26.1429 40.281 26.1934 40.2035 26.252 40.1214C26.3105 40.0392 26.3757 39.9632 26.4473 39.8932C26.5221 39.8203 26.6019 39.7609 26.6865 39.7153C26.7744 39.6667 26.8688 39.6423 26.9697 39.6423C27.0283 39.6423 27.0869 39.6515 27.1455 39.6697C27.2041 39.6849 27.2546 39.7092 27.2969 39.7427C27.3424 39.7762 27.3783 39.8172 27.4043 39.8659C27.4336 39.9115 27.4482 39.9647 27.4482 40.0255Z" fill="#0261E0"/>
<path d="M29.5576 42.3066C29.5316 42.3917 29.4925 42.4754 29.4404 42.5575C29.3883 42.6396 29.3249 42.7126 29.25 42.7765C29.1784 42.8403 29.097 42.892 29.0059 42.9316C28.918 42.9711 28.8219 42.9909 28.7178 42.9909C28.5876 42.9909 28.4785 42.9665 28.3906 42.9179C28.306 42.8723 28.2376 42.8114 28.1855 42.7354C28.1335 42.6563 28.0977 42.5666 28.0781 42.4662C28.0586 42.3659 28.0488 42.2625 28.0488 42.156V39.9708H27.5166V39.8659C27.6436 39.8203 27.7591 39.7549 27.8633 39.6697C27.9707 39.5845 28.0667 39.4887 28.1514 39.3823C28.2393 39.2728 28.3158 39.1588 28.3809 39.0401C28.4492 38.9215 28.5078 38.8075 28.5566 38.698H28.6689V39.7381H29.46V39.9708H28.6689V42.0739C28.6689 42.1256 28.6722 42.1819 28.6787 42.2427C28.6885 42.3035 28.7048 42.3613 28.7275 42.4161C28.7503 42.4678 28.7829 42.5119 28.8252 42.5484C28.8708 42.5818 28.9277 42.5985 28.9961 42.5985C29.1068 42.5985 29.1947 42.5727 29.2598 42.521C29.3249 42.4662 29.377 42.3948 29.416 42.3066H29.5576Z" fill="#0261E0"/>
<path d="M32.6875 41.7363C32.6647 41.9005 32.6143 42.0587 32.5361 42.2108C32.458 42.3598 32.3587 42.4921 32.2383 42.6077C32.1178 42.7232 31.9779 42.816 31.8184 42.8859C31.6621 42.9559 31.4912 42.9909 31.3057 42.9909C31.0648 42.9909 30.8516 42.9437 30.666 42.8495C30.4837 42.7552 30.3307 42.6305 30.207 42.4754C30.0833 42.3203 29.9906 42.1439 29.9287 41.9462C29.8669 41.7485 29.8359 41.5477 29.8359 41.344C29.8359 41.1159 29.8669 40.8999 29.9287 40.6962C29.9938 40.4894 30.0898 40.3084 30.2168 40.1533C30.347 39.9982 30.5098 39.875 30.7051 39.7838C30.9036 39.6895 31.1348 39.6423 31.3984 39.6423C31.6003 39.6423 31.7809 39.6743 31.9404 39.7381C32.0999 39.802 32.235 39.8917 32.3457 40.0073C32.4564 40.1198 32.541 40.2552 32.5996 40.4133C32.6582 40.5684 32.6875 40.7387 32.6875 40.9243H30.3584C30.3584 41.0946 30.3828 41.2679 30.4316 41.4443C30.4805 41.6207 30.5553 41.7819 30.6562 41.9279C30.7572 42.0709 30.8841 42.1895 31.0371 42.2838C31.1934 42.375 31.3773 42.4206 31.5889 42.4206C31.7191 42.4206 31.8346 42.4024 31.9355 42.3659C32.0397 42.3263 32.1309 42.2731 32.209 42.2062C32.2904 42.1363 32.3604 42.0557 32.4189 41.9644C32.4808 41.8701 32.5329 41.7698 32.5752 41.6633L32.6875 41.7363ZM31.916 40.7281C31.916 40.6217 31.9014 40.5182 31.8721 40.4179C31.846 40.3175 31.8021 40.2293 31.7402 40.1533C31.6816 40.0742 31.6068 40.0103 31.5156 39.9617C31.4245 39.913 31.3154 39.8887 31.1885 39.8887C31.0615 39.8887 30.9492 39.913 30.8516 39.9617C30.7539 40.0073 30.6693 40.0696 30.5977 40.1487C30.5293 40.2248 30.474 40.3145 30.4316 40.4179C30.3926 40.5182 30.3682 40.6217 30.3584 40.7281H31.916Z" fill="#0261E0"/>
<path d="M35.4756 40.0255C35.4756 40.1107 35.4414 40.1852 35.373 40.2491C35.3079 40.313 35.2298 40.3449 35.1387 40.3449C35.0833 40.3449 35.0312 40.3327 34.9824 40.3084C34.9368 40.281 34.8913 40.2536 34.8457 40.2263C34.8034 40.1959 34.7627 40.1685 34.7236 40.1442C34.6878 40.1168 34.652 40.1031 34.6162 40.1031C34.5674 40.1031 34.5169 40.1259 34.4648 40.1715C34.416 40.2141 34.3688 40.2658 34.3232 40.3266C34.2809 40.3844 34.2419 40.4422 34.2061 40.5C34.1702 40.5578 34.1442 40.6019 34.1279 40.6323V42.156C34.1279 42.3568 34.1686 42.5073 34.25 42.6077C34.3314 42.705 34.4876 42.7536 34.7188 42.7536V42.8859H32.9756V42.7536C33.1025 42.7536 33.2002 42.7445 33.2686 42.7263C33.3402 42.708 33.3939 42.6761 33.4297 42.6305C33.4655 42.5849 33.4867 42.5255 33.4932 42.4526C33.5029 42.3765 33.5078 42.2838 33.5078 42.1743V40.906C33.5078 40.8695 33.5062 40.8148 33.5029 40.7418C33.5029 40.6688 33.4997 40.5928 33.4932 40.5137C33.4867 40.4346 33.4753 40.3601 33.459 40.2901C33.446 40.2202 33.4248 40.17 33.3955 40.1396C33.3434 40.1153 33.2799 40.1031 33.2051 40.1031C33.1335 40.1031 33.057 40.1183 32.9756 40.1487L32.9365 40.0255L33.9766 39.6423H34.1279V40.354C34.1702 40.281 34.2207 40.2035 34.2793 40.1214C34.3379 40.0392 34.403 39.9632 34.4746 39.8932C34.5495 39.8203 34.6292 39.7609 34.7139 39.7153C34.8018 39.6667 34.8962 39.6423 34.9971 39.6423C35.0557 39.6423 35.1143 39.6515 35.1729 39.6697C35.2314 39.6849 35.2819 39.7092 35.3242 39.7427C35.3698 39.7762 35.4056 39.8172 35.4316 39.8659C35.4609 39.9115 35.4756 39.9647 35.4756 40.0255Z" fill="#0261E0"/>
<path d="M38.6152 41.7363C38.5924 41.9005 38.542 42.0587 38.4639 42.2108C38.3857 42.3598 38.2865 42.4921 38.166 42.6077C38.0456 42.7232 37.9056 42.816 37.7461 42.8859C37.5898 42.9559 37.4189 42.9909 37.2334 42.9909C36.9925 42.9909 36.7793 42.9437 36.5938 42.8495C36.4115 42.7552 36.2585 42.6305 36.1348 42.4754C36.0111 42.3203 35.9183 42.1439 35.8564 41.9462C35.7946 41.7485 35.7637 41.5477 35.7637 41.344C35.7637 41.1159 35.7946 40.8999 35.8564 40.6962C35.9215 40.4894 36.0176 40.3084 36.1445 40.1533C36.2747 39.9982 36.4375 39.875 36.6328 39.7838C36.8314 39.6895 37.0625 39.6423 37.3262 39.6423C37.528 39.6423 37.7087 39.6743 37.8682 39.7381C38.0277 39.802 38.1628 39.8917 38.2734 40.0073C38.3841 40.1198 38.4688 40.2552 38.5273 40.4133C38.5859 40.5684 38.6152 40.7387 38.6152 40.9243H36.2861C36.2861 41.0946 36.3105 41.2679 36.3594 41.4443C36.4082 41.6207 36.4831 41.7819 36.584 41.9279C36.6849 42.0709 36.8118 42.1895 36.9648 42.2838C37.1211 42.375 37.305 42.4206 37.5166 42.4206C37.6468 42.4206 37.7624 42.4024 37.8633 42.3659C37.9674 42.3263 38.0586 42.2731 38.1367 42.2062C38.2181 42.1363 38.2881 42.0557 38.3467 41.9644C38.4085 41.8701 38.4606 41.7698 38.5029 41.6633L38.6152 41.7363ZM37.8438 40.7281C37.8438 40.6217 37.8291 40.5182 37.7998 40.4179C37.7738 40.3175 37.7298 40.2293 37.668 40.1533C37.6094 40.0742 37.5345 40.0103 37.4434 39.9617C37.3522 39.913 37.2432 39.8887 37.1162 39.8887C36.9893 39.8887 36.877 39.913 36.7793 39.9617C36.6816 40.0073 36.597 40.0696 36.5254 40.1487C36.457 40.2248 36.4017 40.3145 36.3594 40.4179C36.3203 40.5182 36.2959 40.6217 36.2861 40.7281H37.8438Z" fill="#0261E0"/>
<path d="M41.6133 42.9909H41.457V42.5301C41.3203 42.6639 41.1689 42.7749 41.0029 42.8631C40.8402 42.9483 40.6611 42.9909 40.4658 42.9909C40.2477 42.9909 40.0524 42.9453 39.8799 42.854C39.7074 42.7628 39.5625 42.6442 39.4453 42.4982C39.3281 42.3491 39.2386 42.1834 39.1768 42.0009C39.1149 41.8154 39.084 41.6314 39.084 41.4489C39.084 41.2299 39.1214 41.014 39.1963 40.8011C39.2712 40.5852 39.3786 40.392 39.5186 40.2217C39.6618 40.0484 39.8343 39.9085 40.0361 39.802C40.2412 39.6956 40.4707 39.6423 40.7246 39.6423C40.8613 39.6423 40.9915 39.6636 41.1152 39.7062C41.2422 39.7457 41.3561 39.8127 41.457 39.9069V39.25C41.457 39.2013 41.4587 39.1329 41.4619 39.0447C41.4652 38.9535 41.4603 38.8637 41.4473 38.7755C41.4375 38.6873 41.4131 38.6113 41.374 38.5474C41.3382 38.4805 41.278 38.4471 41.1934 38.4471C41.1478 38.4471 41.1038 38.4516 41.0615 38.4608C41.0225 38.4668 40.9801 38.4775 40.9346 38.4927L40.8857 38.3741L41.9062 38H42.0674V41.6451C42.0674 41.6785 42.0658 41.7241 42.0625 41.7819C42.0592 41.8397 42.0576 41.9021 42.0576 41.969C42.0576 42.0328 42.0609 42.0982 42.0674 42.1651C42.0739 42.2321 42.0869 42.2929 42.1064 42.3476C42.126 42.4024 42.1536 42.4465 42.1895 42.4799C42.2285 42.5134 42.2773 42.5301 42.3359 42.5301C42.375 42.5301 42.4157 42.5255 42.458 42.5164C42.5036 42.5043 42.5492 42.4906 42.5947 42.4754L42.6338 42.5985L41.6133 42.9909ZM41.457 40.6642C41.457 40.5669 41.4375 40.4696 41.3984 40.3723C41.3594 40.2749 41.304 40.1883 41.2324 40.1122C41.1641 40.0332 41.0827 39.9693 40.9883 39.9206C40.8939 39.872 40.7897 39.8476 40.6758 39.8476C40.5 39.8476 40.3535 39.8917 40.2363 39.9799C40.1191 40.0681 40.0247 40.1791 39.9531 40.313C39.8848 40.4437 39.8359 40.5867 39.8066 40.7418C39.7773 40.8939 39.7627 41.0353 39.7627 41.1661C39.7627 41.312 39.7806 41.4687 39.8164 41.6359C39.8522 41.8032 39.9092 41.9599 39.9873 42.1058C40.0687 42.2488 40.1745 42.3689 40.3047 42.4662C40.4382 42.5605 40.6009 42.6077 40.793 42.6077C40.9264 42.6077 41.0485 42.5773 41.1592 42.5164C41.2731 42.4526 41.3724 42.3765 41.457 42.2883V40.6642Z" fill="#0261E0"/>
<path d="M48.2686 42.8859V42.7536C48.3239 42.7536 48.3809 42.7506 48.4395 42.7445C48.498 42.7354 48.5518 42.7202 48.6006 42.6989C48.6494 42.6776 48.6901 42.6487 48.7227 42.6122C48.7552 42.5727 48.7715 42.521 48.7715 42.4571C48.7715 42.3963 48.752 42.3111 48.7129 42.2016C48.6738 42.0922 48.6299 41.9796 48.5811 41.8641C48.5322 41.7485 48.4834 41.6405 48.4346 41.5401C48.3857 41.4398 48.3516 41.3683 48.332 41.3257H46.3984C46.3854 41.3501 46.3643 41.3911 46.335 41.4489C46.3089 41.5036 46.278 41.5675 46.2422 41.6405C46.2064 41.7105 46.1706 41.785 46.1348 41.8641C46.099 41.9431 46.0648 42.0207 46.0322 42.0967C46.0029 42.1727 45.9785 42.2427 45.959 42.3066C45.9395 42.3704 45.9297 42.4206 45.9297 42.4571C45.9297 42.5179 45.9508 42.5681 45.9932 42.6077C46.0355 42.6442 46.0876 42.6731 46.1494 42.6943C46.2113 42.7156 46.2747 42.7308 46.3398 42.74C46.4049 42.746 46.4619 42.7506 46.5107 42.7536V42.8859H44.9385V42.7536C45.0557 42.7506 45.1566 42.7248 45.2412 42.6761C45.3258 42.6274 45.3991 42.5651 45.4609 42.4891C45.526 42.413 45.5814 42.3294 45.627 42.2381C45.6725 42.1439 45.7165 42.0511 45.7588 41.9599L47.5215 38.1232H47.6484L49.3818 41.9872C49.4307 42.0937 49.4762 42.1925 49.5186 42.2838C49.5641 42.372 49.6178 42.451 49.6797 42.521C49.7415 42.5879 49.8164 42.6426 49.9043 42.6852C49.9922 42.7248 50.1045 42.7476 50.2412 42.7536V42.8859H48.2686ZM47.3799 39.177L46.5107 41.0748H48.2295L47.3799 39.177Z" fill="#0261E0"/>
<path d="M53.4004 41.6907C53.3711 41.8549 53.3174 42.0146 53.2393 42.1697C53.1611 42.3248 53.0602 42.4632 52.9365 42.5849C52.8161 42.7065 52.6761 42.8054 52.5166 42.8814C52.3571 42.9544 52.1813 42.9909 51.9893 42.9909C51.7451 42.9909 51.5319 42.9422 51.3496 42.8449C51.1706 42.7445 51.0208 42.6153 50.9004 42.4571C50.7832 42.2959 50.6953 42.1165 50.6367 41.9188C50.5781 41.7181 50.5488 41.5173 50.5488 41.3166C50.5488 41.0976 50.5863 40.8878 50.6611 40.687C50.736 40.4833 50.8434 40.3038 50.9834 40.1487C51.1234 39.9936 51.2926 39.8704 51.4912 39.7792C51.6898 39.688 51.9128 39.6423 52.1602 39.6423C52.2741 39.6423 52.3978 39.6591 52.5312 39.6925C52.6647 39.7229 52.7884 39.7701 52.9023 39.8339C53.0163 39.8978 53.1123 39.9769 53.1904 40.0712C53.2686 40.1655 53.3076 40.2749 53.3076 40.3996C53.3076 40.503 53.2751 40.5776 53.21 40.6232C53.1481 40.6688 53.0651 40.6916 52.9609 40.6916C52.8503 40.6916 52.7689 40.6718 52.7168 40.6323C52.6647 40.5897 52.6273 40.538 52.6045 40.4772C52.5817 40.4164 52.5654 40.351 52.5557 40.281C52.5459 40.208 52.5247 40.1411 52.4922 40.0803C52.4629 40.0195 52.4141 39.9693 52.3457 39.9297C52.2773 39.8872 52.1748 39.8659 52.0381 39.8659C51.8753 39.8659 51.737 39.9024 51.623 39.9754C51.5124 40.0453 51.4229 40.1366 51.3545 40.2491C51.2861 40.3616 51.2357 40.4863 51.2031 40.6232C51.1738 40.757 51.1592 40.8878 51.1592 41.0155C51.1592 41.1706 51.1787 41.3318 51.2178 41.4991C51.2568 41.6664 51.3203 41.82 51.4082 41.9599C51.4961 42.0998 51.6084 42.2153 51.7451 42.3066C51.8851 42.3948 52.0527 42.4389 52.248 42.4389C52.3848 42.4389 52.5068 42.4176 52.6143 42.375C52.7217 42.3294 52.8161 42.2701 52.8975 42.1971C52.9821 42.1241 53.0553 42.0405 53.1172 41.9462C53.1823 41.8488 53.2393 41.7485 53.2881 41.6451L53.4004 41.6907Z" fill="#0261E0"/>
<path d="M56.75 41.6907C56.7207 41.8549 56.667 42.0146 56.5889 42.1697C56.5107 42.3248 56.4098 42.4632 56.2861 42.5849C56.1657 42.7065 56.0257 42.8054 55.8662 42.8814C55.7067 42.9544 55.5309 42.9909 55.3389 42.9909C55.0947 42.9909 54.8815 42.9422 54.6992 42.8449C54.5202 42.7445 54.3704 42.6153 54.25 42.4571C54.1328 42.2959 54.0449 42.1165 53.9863 41.9188C53.9277 41.7181 53.8984 41.5173 53.8984 41.3166C53.8984 41.0976 53.9359 40.8878 54.0107 40.687C54.0856 40.4833 54.193 40.3038 54.333 40.1487C54.473 39.9936 54.6423 39.8704 54.8408 39.7792C55.0394 39.688 55.2624 39.6423 55.5098 39.6423C55.6237 39.6423 55.7474 39.6591 55.8809 39.6925C56.0143 39.7229 56.138 39.7701 56.252 39.8339C56.3659 39.8978 56.4619 39.9769 56.54 40.0712C56.6182 40.1655 56.6572 40.2749 56.6572 40.3996C56.6572 40.503 56.6247 40.5776 56.5596 40.6232C56.4977 40.6688 56.4147 40.6916 56.3105 40.6916C56.1999 40.6916 56.1185 40.6718 56.0664 40.6323C56.0143 40.5897 55.9769 40.538 55.9541 40.4772C55.9313 40.4164 55.915 40.351 55.9053 40.281C55.8955 40.208 55.8743 40.1411 55.8418 40.0803C55.8125 40.0195 55.7637 39.9693 55.6953 39.9297C55.627 39.8872 55.5244 39.8659 55.3877 39.8659C55.2249 39.8659 55.0866 39.9024 54.9727 39.9754C54.862 40.0453 54.7725 40.1366 54.7041 40.2491C54.6357 40.3616 54.5853 40.4863 54.5527 40.6232C54.5234 40.757 54.5088 40.8878 54.5088 41.0155C54.5088 41.1706 54.5283 41.3318 54.5674 41.4991C54.6064 41.6664 54.6699 41.82 54.7578 41.9599C54.8457 42.0998 54.958 42.2153 55.0947 42.3066C55.2347 42.3948 55.4023 42.4389 55.5977 42.4389C55.7344 42.4389 55.8564 42.4176 55.9639 42.375C56.0713 42.3294 56.1657 42.2701 56.2471 42.1971C56.3317 42.1241 56.4049 42.0405 56.4668 41.9462C56.5319 41.8488 56.5889 41.7485 56.6377 41.6451L56.75 41.6907Z" fill="#0261E0"/>
<path d="M60.5098 41.2527C60.5098 41.4808 60.4707 41.6998 60.3926 41.9097C60.3177 42.1195 60.2087 42.305 60.0654 42.4662C59.9222 42.6244 59.748 42.7521 59.543 42.8495C59.3379 42.9437 59.1068 42.9909 58.8496 42.9909C58.6055 42.9909 58.3841 42.9453 58.1855 42.854C57.9902 42.7597 57.8226 42.6366 57.6826 42.4845C57.5459 42.3324 57.4385 42.1575 57.3604 41.9599C57.2855 41.7622 57.248 41.5569 57.248 41.344C57.248 41.122 57.2855 40.9091 57.3604 40.7053C57.4385 40.4985 57.5492 40.3175 57.6924 40.1624C57.8356 40.0043 58.0081 39.878 58.21 39.7838C58.4118 39.6895 58.638 39.6423 58.8887 39.6423C59.1328 39.6423 59.3542 39.6849 59.5527 39.7701C59.7546 39.8522 59.9255 39.9662 60.0654 40.1122C60.2087 40.2582 60.3177 40.43 60.3926 40.6277C60.4707 40.8224 60.5098 41.0307 60.5098 41.2527ZM59.8213 41.5219C59.8213 41.4215 59.8148 41.3105 59.8018 41.1889C59.7887 41.0672 59.7659 40.9456 59.7334 40.8239C59.7008 40.6992 59.6585 40.5806 59.6064 40.4681C59.5544 40.3525 59.4893 40.2506 59.4111 40.1624C59.333 40.0712 59.2402 39.9997 59.1328 39.948C59.0286 39.8932 58.9066 39.8659 58.7666 39.8659C58.6006 39.8659 58.4639 39.9054 58.3564 39.9845C58.249 40.0605 58.1644 40.1578 58.1025 40.2765C58.0407 40.392 57.9984 40.5198 57.9756 40.6597C57.9528 40.7996 57.9414 40.9319 57.9414 41.0566C57.9414 41.1569 57.9479 41.2679 57.9609 41.3896C57.9772 41.5113 58.0016 41.6344 58.0342 41.7591C58.0667 41.8838 58.1091 42.0055 58.1611 42.1241C58.2165 42.2397 58.2832 42.3431 58.3613 42.4343C58.4395 42.5255 58.5306 42.5985 58.6348 42.6533C58.7422 42.708 58.8643 42.7354 59.001 42.7354C59.1768 42.7354 59.3184 42.6974 59.4258 42.6214C59.5332 42.5423 59.6162 42.4434 59.6748 42.3248C59.7334 42.2032 59.7725 42.0709 59.792 41.9279C59.8115 41.785 59.8213 41.6496 59.8213 41.5219Z" fill="#0261E0"/>
<path d="M63.5273 42.9909H63.3564V42.3157C63.2816 42.3917 63.2018 42.4693 63.1172 42.5484C63.0326 42.6274 62.9414 42.7004 62.8438 42.7673C62.7493 42.8312 62.6484 42.8844 62.541 42.927C62.4368 42.9696 62.3262 42.9909 62.209 42.9909C62.0267 42.9909 61.8786 42.9529 61.7646 42.8768C61.6507 42.8008 61.5612 42.7035 61.4961 42.5849C61.4342 42.4662 61.3919 42.3339 61.3691 42.188C61.3496 42.042 61.3398 41.9005 61.3398 41.7637V40.354C61.3398 40.2506 61.3301 40.167 61.3105 40.1031C61.291 40.0392 61.2585 39.9906 61.2129 39.9571C61.1673 39.9206 61.1071 39.8963 61.0322 39.8841C60.9606 39.872 60.8727 39.8659 60.7686 39.8659V39.7381H61.96V41.8412C61.96 41.9325 61.9665 42.0207 61.9795 42.1058C61.9958 42.191 62.0234 42.267 62.0625 42.3339C62.1048 42.4009 62.1618 42.4556 62.2334 42.4982C62.3083 42.5377 62.4027 42.5575 62.5166 42.5575C62.598 42.5575 62.6777 42.5438 62.7559 42.5164C62.834 42.4891 62.9089 42.4541 62.9805 42.4115C63.0521 42.3689 63.1188 42.3218 63.1807 42.2701C63.2458 42.2153 63.3044 42.1621 63.3564 42.1104V40.3266C63.3564 40.2293 63.3451 40.1518 63.3223 40.094C63.3027 40.0332 63.2702 39.986 63.2246 39.9526C63.1823 39.9191 63.1253 39.8963 63.0537 39.8841C62.9854 39.872 62.904 39.8659 62.8096 39.8659V39.7381H63.9668V42.0557C63.9668 42.0891 63.9684 42.1332 63.9717 42.188C63.9749 42.2427 63.9831 42.2959 63.9961 42.3476C64.0124 42.3963 64.0352 42.4389 64.0645 42.4754C64.097 42.5119 64.1409 42.5301 64.1963 42.5301C64.2972 42.5301 64.3981 42.5119 64.499 42.4754L64.5479 42.5985L63.5273 42.9909Z" fill="#0261E0"/>
<path d="M66.6084 42.8859V42.7536C66.7354 42.7536 66.8346 42.7445 66.9062 42.7263C66.9811 42.708 67.0365 42.6776 67.0723 42.635C67.1113 42.5894 67.1357 42.5301 67.1455 42.4571C67.1553 42.3811 67.1602 42.2868 67.1602 42.1743V40.8878C67.1602 40.7996 67.1553 40.7068 67.1455 40.6095C67.139 40.5122 67.1178 40.424 67.082 40.3449C67.0462 40.2628 66.9925 40.1959 66.9209 40.1442C66.8493 40.0925 66.7516 40.0666 66.6279 40.0666C66.54 40.0666 66.4554 40.0803 66.374 40.1077C66.2926 40.132 66.2145 40.1655 66.1396 40.208C66.068 40.2476 65.9997 40.2947 65.9346 40.3495C65.8727 40.4042 65.8141 40.4589 65.7588 40.5137V42.1743C65.7588 42.2838 65.7637 42.3765 65.7734 42.4526C65.7832 42.5255 65.806 42.5849 65.8418 42.6305C65.8776 42.6761 65.9313 42.708 66.0029 42.7263C66.0778 42.7445 66.1787 42.7536 66.3057 42.7536V42.8859H64.626V42.7536C64.7497 42.7536 64.8457 42.743 64.9141 42.7217C64.9824 42.6974 65.0329 42.6624 65.0654 42.6168C65.1012 42.5681 65.1224 42.5073 65.1289 42.4343C65.1354 42.3613 65.1387 42.2746 65.1387 42.1743V40.9973C65.1387 40.9486 65.1403 40.8741 65.1436 40.7737C65.1468 40.6734 65.1419 40.573 65.1289 40.4726C65.1191 40.3723 65.0947 40.2841 65.0557 40.208C65.0199 40.132 64.9613 40.094 64.8799 40.094C64.8376 40.094 64.7952 40.1001 64.7529 40.1122C64.7106 40.1214 64.6683 40.1335 64.626 40.1487L64.5771 40.0255L65.6074 39.6423H65.7588V40.3084C65.8271 40.2293 65.902 40.1502 65.9834 40.0712C66.068 39.9921 66.1576 39.9206 66.252 39.8568C66.3464 39.7929 66.4473 39.7412 66.5547 39.7016C66.6621 39.6621 66.7728 39.6423 66.8867 39.6423C67.069 39.6423 67.2171 39.6773 67.3311 39.7473C67.4482 39.8172 67.5394 39.91 67.6045 40.0255C67.6696 40.1381 67.7135 40.2643 67.7363 40.4042C67.7591 40.5441 67.7705 40.6855 67.7705 40.8285V42.1743C67.7705 42.2746 67.7754 42.3613 67.7852 42.4343C67.7949 42.5073 67.8161 42.5681 67.8486 42.6168C67.8844 42.6624 67.9382 42.6974 68.0098 42.7217C68.0814 42.743 68.1774 42.7536 68.2979 42.7536V42.8859H66.6084Z" fill="#0261E0"/>
<path d="M70.4072 42.3066C70.3812 42.3917 70.3421 42.4754 70.29 42.5575C70.238 42.6396 70.1745 42.7126 70.0996 42.7765C70.028 42.8403 69.9466 42.892 69.8555 42.9316C69.7676 42.9711 69.6716 42.9909 69.5674 42.9909C69.4372 42.9909 69.3281 42.9665 69.2402 42.9179C69.1556 42.8723 69.0872 42.8114 69.0352 42.7354C68.9831 42.6563 68.9473 42.5666 68.9277 42.4662C68.9082 42.3659 68.8984 42.2625 68.8984 42.156V39.9708H68.3662V39.8659C68.4932 39.8203 68.6087 39.7549 68.7129 39.6697C68.8203 39.5845 68.9163 39.4887 69.001 39.3823C69.0889 39.2728 69.1654 39.1588 69.2305 39.0401C69.2988 38.9215 69.3574 38.8075 69.4062 38.698H69.5186V39.7381H70.3096V39.9708H69.5186V42.0739C69.5186 42.1256 69.5218 42.1819 69.5283 42.2427C69.5381 42.3035 69.5544 42.3613 69.5771 42.4161C69.5999 42.4678 69.6325 42.5119 69.6748 42.5484C69.7204 42.5818 69.7773 42.5985 69.8457 42.5985C69.9564 42.5985 70.0443 42.5727 70.1094 42.521C70.1745 42.4662 70.2266 42.3948 70.2656 42.3066H70.4072Z" fill="#0261E0"/>
<path d="M73.7471 42.4297C73.7015 42.4875 73.6494 42.5484 73.5908 42.6122C73.5355 42.6731 73.4736 42.7293 73.4053 42.781C73.3402 42.8297 73.2686 42.8692 73.1904 42.8996C73.1123 42.9331 73.0309 42.9498 72.9463 42.9498C72.8682 42.9498 72.8031 42.9346 72.751 42.9042C72.7021 42.8738 72.6631 42.8342 72.6338 42.7856C72.6045 42.7339 72.5833 42.6776 72.5703 42.6168C72.5605 42.556 72.5557 42.4936 72.5557 42.4297C72.4743 42.4906 72.3929 42.5514 72.3115 42.6122C72.2301 42.6731 72.1455 42.7293 72.0576 42.781C71.9697 42.8297 71.8786 42.8692 71.7842 42.8996C71.6898 42.9331 71.5872 42.9498 71.4766 42.9498C71.3496 42.9498 71.2357 42.9285 71.1348 42.8859C71.0371 42.8464 70.9541 42.7901 70.8857 42.7172C70.8174 42.6442 70.7653 42.559 70.7295 42.4617C70.6937 42.3613 70.6758 42.2533 70.6758 42.1378C70.6758 42.01 70.7067 41.8929 70.7686 41.7865C70.8337 41.68 70.9183 41.5827 71.0225 41.4945C71.1266 41.4063 71.2454 41.3273 71.3789 41.2573C71.5124 41.1843 71.6491 41.1204 71.7891 41.0657C71.929 41.0079 72.0658 40.9577 72.1992 40.9151C72.3327 40.8726 72.4515 40.8345 72.5557 40.8011V40.6734C72.5557 40.5669 72.5475 40.465 72.5312 40.3677C72.5182 40.2673 72.4889 40.1791 72.4434 40.1031C72.3978 40.024 72.3343 39.9617 72.2529 39.9161C72.1716 39.8704 72.0625 39.8476 71.9258 39.8476C71.8151 39.8476 71.7256 39.8628 71.6572 39.8932C71.5921 39.9206 71.5417 39.9617 71.5059 40.0164C71.4733 40.0681 71.4521 40.1305 71.4424 40.2035C71.4326 40.2734 71.4277 40.351 71.4277 40.4361C71.4277 40.5395 71.4066 40.6201 71.3643 40.6779C71.3219 40.7357 71.2389 40.7646 71.1152 40.7646C71.0013 40.7646 70.9216 40.7342 70.876 40.6734C70.8304 40.6125 70.8076 40.5335 70.8076 40.4361C70.8076 40.2932 70.8483 40.1715 70.9297 40.0712C71.0111 39.9708 71.112 39.8887 71.2324 39.8248C71.3561 39.7609 71.4896 39.7153 71.6328 39.688C71.776 39.6575 71.9111 39.6423 72.0381 39.6423C72.2497 39.6423 72.4271 39.6621 72.5703 39.7016C72.7168 39.7381 72.834 39.8005 72.9219 39.8887C73.0098 39.9738 73.0716 40.0849 73.1074 40.2217C73.1465 40.3555 73.166 40.5213 73.166 40.719V41.7911C73.166 41.8793 73.1644 41.972 73.1611 42.0693C73.1611 42.1667 73.1693 42.2579 73.1855 42.3431C73.1953 42.3856 73.21 42.4252 73.2295 42.4617C73.2523 42.4951 73.2913 42.5119 73.3467 42.5119C73.376 42.5119 73.4085 42.5012 73.4443 42.4799C73.4834 42.4556 73.5225 42.4282 73.5615 42.3978C73.6006 42.3674 73.6364 42.337 73.6689 42.3066C73.7048 42.2731 73.7308 42.2488 73.7471 42.2336V42.4297ZM72.5557 40.9973C72.445 41.0398 72.3164 41.09 72.1699 41.1478C72.0234 41.2026 71.8851 41.2695 71.7549 41.3485C71.6279 41.4246 71.5189 41.5143 71.4277 41.6177C71.3398 41.7211 71.2959 41.8412 71.2959 41.9781C71.2959 42.045 71.3073 42.1134 71.3301 42.1834C71.3529 42.2503 71.387 42.3111 71.4326 42.3659C71.4782 42.4206 71.5335 42.4647 71.5986 42.4982C71.6637 42.5316 71.737 42.5484 71.8184 42.5484C71.8835 42.5484 71.9486 42.5377 72.0137 42.5164C72.082 42.4951 72.1471 42.4678 72.209 42.4343C72.2741 42.3978 72.3359 42.3598 72.3945 42.3203C72.4531 42.2777 72.5068 42.2381 72.5557 42.2016V40.9973Z" fill="#0261E0"/>
<path d="M75.8271 42.8859V42.7536C75.9541 42.7536 76.0534 42.7445 76.125 42.7263C76.1999 42.708 76.2552 42.6776 76.291 42.635C76.3301 42.5894 76.3545 42.5301 76.3643 42.4571C76.374 42.3811 76.3789 42.2868 76.3789 42.1743V40.8878C76.3789 40.7996 76.374 40.7068 76.3643 40.6095C76.3577 40.5122 76.3366 40.424 76.3008 40.3449C76.265 40.2628 76.2113 40.1959 76.1396 40.1442C76.068 40.0925 75.9704 40.0666 75.8467 40.0666C75.7588 40.0666 75.6742 40.0803 75.5928 40.1077C75.5114 40.132 75.4333 40.1655 75.3584 40.208C75.2868 40.2476 75.2184 40.2947 75.1533 40.3495C75.0915 40.4042 75.0329 40.4589 74.9775 40.5137V42.1743C74.9775 42.2838 74.9824 42.3765 74.9922 42.4526C75.002 42.5255 75.0247 42.5849 75.0605 42.6305C75.0964 42.6761 75.1501 42.708 75.2217 42.7263C75.2966 42.7445 75.3975 42.7536 75.5244 42.7536V42.8859H73.8447V42.7536C73.9684 42.7536 74.0645 42.743 74.1328 42.7217C74.2012 42.6974 74.2516 42.6624 74.2842 42.6168C74.32 42.5681 74.3411 42.5073 74.3477 42.4343C74.3542 42.3613 74.3574 42.2746 74.3574 42.1743V40.9973C74.3574 40.9486 74.3591 40.8741 74.3623 40.7737C74.3656 40.6734 74.3607 40.573 74.3477 40.4726C74.3379 40.3723 74.3135 40.2841 74.2744 40.208C74.2386 40.132 74.18 40.094 74.0986 40.094C74.0563 40.094 74.014 40.1001 73.9717 40.1122C73.9294 40.1214 73.887 40.1335 73.8447 40.1487L73.7959 40.0255L74.8262 39.6423H74.9775V40.3084C75.0459 40.2293 75.1208 40.1502 75.2021 40.0712C75.2868 39.9921 75.3763 39.9206 75.4707 39.8568C75.5651 39.7929 75.666 39.7412 75.7734 39.7016C75.8809 39.6621 75.9915 39.6423 76.1055 39.6423C76.2878 39.6423 76.4359 39.6773 76.5498 39.7473C76.667 39.8172 76.7581 39.91 76.8232 40.0255C76.8883 40.1381 76.9323 40.2643 76.9551 40.4042C76.9779 40.5441 76.9893 40.6855 76.9893 40.8285V42.1743C76.9893 42.2746 76.9941 42.3613 77.0039 42.4343C77.0137 42.5073 77.0348 42.5681 77.0674 42.6168C77.1032 42.6624 77.1569 42.6974 77.2285 42.7217C77.3001 42.743 77.3962 42.7536 77.5166 42.7536V42.8859H75.8271Z" fill="#0261E0"/>
<path d="M79.626 42.3066C79.5999 42.3917 79.5609 42.4754 79.5088 42.5575C79.4567 42.6396 79.3932 42.7126 79.3184 42.7765C79.2467 42.8403 79.1654 42.892 79.0742 42.9316C78.9863 42.9711 78.8903 42.9909 78.7861 42.9909C78.6559 42.9909 78.5469 42.9665 78.459 42.9179C78.3744 42.8723 78.306 42.8114 78.2539 42.7354C78.2018 42.6563 78.166 42.5666 78.1465 42.4662C78.127 42.3659 78.1172 42.2625 78.1172 42.156V39.9708H77.585V39.8659C77.7119 39.8203 77.8275 39.7549 77.9316 39.6697C78.0391 39.5845 78.1351 39.4887 78.2197 39.3823C78.3076 39.2728 78.3841 39.1588 78.4492 39.0401C78.5176 38.9215 78.5762 38.8075 78.625 38.698H78.7373V39.7381H79.5283V39.9708H78.7373V42.0739C78.7373 42.1256 78.7406 42.1819 78.7471 42.2427C78.7568 42.3035 78.7731 42.3613 78.7959 42.4161C78.8187 42.4678 78.8512 42.5119 78.8936 42.5484C78.9391 42.5818 78.9961 42.5985 79.0645 42.5985C79.1751 42.5985 79.263 42.5727 79.3281 42.521C79.3932 42.4662 79.4453 42.3948 79.4844 42.3066H79.626Z" fill="#0261E0"/>
<path d="M27.13 6.31735C27.4588 6.26198 27.6043 6.64565 27.842 6.80486C29.262 8.301 30.8255 9.68936 32.1653 11.2488C27.7341 15.7066 23.3216 20.1891 18.8389 24.5954C15.8227 27.6154 12.8936 30.7293 9.81109 33.689C6.54733 33.7552 3.26871 33.6899 0 33.7196C0.00297066 33.6791 0.00990219 33.598 0.0128728 33.5584C5.73436 27.8221 11.4925 22.1292 17.1744 16.3671C20.4371 12.9654 23.9009 9.74375 27.13 6.31735Z" fill="#0261E0"/>
<path d="M27.2313 6.31191C27.4037 6.37699 29.1341 8.15838 29.2119 8.2896C29.5485 9.30382 29.9809 9.78147 30.2637 10.8008C27.067 11.4915 23.8737 12.1976 20.6641 12.8526C18.4916 13.3166 16.339 13.7283 14.1487 14.2645C12.5507 13.4141 10.9765 12.5041 9.38471 11.6369C9.39568 11.6206 9.41811 11.5882 9.42885 11.5723C13.3682 10.2673 17.8242 8.78405 21.785 7.7952C24.1669 7.23627 24.8599 6.89034 27.2313 6.31191Z" fill="#0261E0"/>
<path d="M15.9066 33.5926C24.9958 24.5228 34.0068 15.3779 43.104 6.31201C46.3806 9.61084 49.6315 12.9324 52.915 16.2204C56.2303 12.9829 59.4505 9.63458 62.7954 6.43661C70.5201 14.3692 78.3617 22.2 86.2022 30.0278C87.4677 31.3509 88.7619 32.6503 89.9997 33.9971C86.7825 33.9951 83.5653 34.0218 80.351 33.9467C80.1154 33.9704 79.9886 33.742 79.8322 33.6104C76.3199 30.0802 72.8283 26.5361 69.2962 23.0277C67.1554 20.7978 64.9987 18.561 62.736 16.4597C61.2636 17.7818 59.9139 19.2384 58.488 20.6129C58.285 20.8294 57.98 21.0163 57.985 21.3486C62.135 25.4969 66.3315 29.6046 70.3677 33.8616C67.092 33.9912 63.7777 33.9595 60.4952 33.8646C57.9345 31.346 55.4886 28.7136 52.8725 26.2593C50.5455 28.4367 48.4204 30.8149 46.1212 33.025C45.729 33.3336 45.4607 33.9556 44.8794 33.8705C41.7236 33.8438 38.5678 33.8834 35.4119 33.8577C39.5154 29.5977 43.7426 25.4425 47.9441 21.2675C46.3707 19.5835 44.7339 17.9519 43.0673 16.3598C37.2023 22.1595 31.4263 28.0343 25.6068 33.8695C22.3717 33.8626 19.1367 33.8755 15.9017 33.8596C15.6967 33.9002 15.8205 33.6441 15.9066 33.5926Z" fill="#0261E0"/>
</svg>
