<svg width="24" height="24" viewBox="0 0 24 24" fill="white" xmlns="http://www.w3.org/2000/svg">
<path d="M23 10H18V1C18 0.4 17.6 0 17 0H7C6.4 0 6 0.4 6 1V10H1C0.4 10 0 10.4 0 11V24H24V11C24 10.4 23.6 10 23 10ZM2 22V12H6V22H2ZM8 22V11V2H16V11V22H8ZM18 22V12H22V22H18Z" />
<path d="M5 13H4V15H5V13Z" />
<path d="M5 16H4V18H5V16Z" />
<path d="M20 13H19V15H20V13Z" />
<path d="M20 16H19V18H20V16Z" />
<path d="M11 4H10V6H11V4Z" />
<path d="M11 7H10V9H11V7Z" />
<path d="M11 10H10V12H11V10Z" />
<path d="M11 13H10V15H11V13Z" />
<path d="M11 16H10V18H11V16Z" />
<path d="M14 4H13V6H14V4Z" />
<path d="M14 7H13V9H14V7Z" />
<path d="M14 10H13V12H14V10Z" />
<path d="M14 13H13V15H14V13Z" />
<path d="M14 16H13V18H14V16Z" />
</svg>
