<svg width="15" height="14" viewBox="0 0 15 14" fill="white" xmlns="http://www.w3.org/2000/svg">
<path fill-rule="evenodd" clip-rule="evenodd" d="M7.85116 7.97601C7.40516 7.97601 6.96049 7.82867 6.58849 7.53401L3.59849 5.12334C3.38316 4.95001 3.34982 4.63467 3.52249 4.42001C3.69649 4.20601 4.01116 4.17201 4.22582 4.34467L7.21316 6.75267C7.58849 7.05001 8.11716 7.05001 8.49516 6.75001L11.4525 4.34601C11.6672 4.17067 11.9818 4.20401 12.1565 4.41867C12.3305 4.63267 12.2978 4.94734 12.0838 5.12201L9.12116 7.53001C8.74649 7.82734 8.29849 7.97601 7.85116 7.97601" />
<mask id="mask0_326_65824" style="mask-type:alpha" maskUnits="userSpaceOnUse" x="0" y="0" width="15" height="14">
<path fill-rule="evenodd" clip-rule="evenodd" d="M0.666504 0.333008H14.9998V13.333H0.666504V0.333008Z" />
</mask>
<g mask="url(#mask0_326_65824)">
<path fill-rule="evenodd" clip-rule="evenodd" d="M4.55917 12.333H11.1058C11.1072 12.3317 11.1125 12.333 11.1165 12.333C11.8772 12.333 12.5518 12.061 13.0692 11.5443C13.6698 10.9463 13.9998 10.087 13.9998 9.12501V4.54634C13.9998 2.68434 12.7825 1.33301 11.1058 1.33301H4.5605C2.88384 1.33301 1.6665 2.68434 1.6665 4.54634V9.12501C1.6665 10.087 1.99717 10.9463 2.59717 11.5443C3.1145 12.061 3.78984 12.333 4.54984 12.333H4.55917ZM4.54784 13.333C3.51917 13.333 2.6005 12.9597 1.89117 12.253C1.10117 11.465 0.666504 10.3543 0.666504 9.12501V4.54634C0.666504 2.14434 2.3405 0.333008 4.5605 0.333008H11.1058C13.3258 0.333008 14.9998 2.14434 14.9998 4.54634V9.12501C14.9998 10.3543 14.5652 11.465 13.7752 12.253C13.0665 12.959 12.1472 13.333 11.1165 13.333H11.1058H4.5605H4.54784Z" />
</g>
</svg>
