<svg width="21" height="21" viewBox="0 0 15 14" fill="none" xmlns="http://www.w3.org/2000/svg">
<path fill-rule="evenodd" clip-rule="evenodd" d="M4.72353 0.540207C5.43704 0.50736 5.66454 0.500061 7.48207 0.500061C9.2996 0.500061 9.5271 0.507969 10.24 0.540207C10.9529 0.572446 11.4395 0.686194 11.8653 0.851037C12.3112 1.01953 12.7157 1.28291 13.0502 1.62355C13.3909 1.95749 13.6537 2.36139 13.8215 2.80787C13.987 3.23366 14.1001 3.72028 14.133 4.43197C14.1658 5.14669 14.1731 5.37419 14.1731 7.19111C14.1731 9.00865 14.1652 9.23614 14.133 9.94965C14.1007 10.6613 13.987 11.148 13.8215 11.5738C13.6536 12.0203 13.3904 12.4249 13.0502 12.7593C12.7157 13.0999 12.3112 13.3627 11.8653 13.5306C11.4395 13.696 10.9529 13.8092 10.2412 13.842C9.5271 13.8749 9.2996 13.8822 7.48207 13.8822C5.66454 13.8822 5.43704 13.8743 4.72353 13.842C4.01185 13.8098 3.52522 13.696 3.09943 13.5306C2.6529 13.3627 2.24834 13.0995 1.9139 12.7593C1.57349 12.4251 1.31007 12.0208 1.14199 11.5744C0.977149 11.1486 0.864009 10.6619 0.831162 9.95026C0.798315 9.23553 0.791016 9.00804 0.791016 7.19111C0.791016 5.37358 0.798923 5.14609 0.831162 4.43318C0.863401 3.72028 0.977149 3.23366 1.14199 2.80787C1.31032 2.36144 1.57394 1.95708 1.9145 1.62294C2.24847 1.28261 2.65263 1.01919 3.09882 0.851037C3.52462 0.686194 4.01124 0.573054 4.72292 0.540207H4.72353ZM10.1859 1.7446C9.48026 1.71236 9.26858 1.70567 7.48207 1.70567C5.69556 1.70567 5.48388 1.71236 4.77828 1.7446C4.12559 1.7744 3.77158 1.88328 3.53556 1.97513C3.22352 2.09679 3.00028 2.24095 2.76609 2.47514C2.5441 2.69111 2.37326 2.95402 2.26609 3.24461C2.17424 3.48062 2.06536 3.83464 2.03555 4.48732C2.00331 5.19292 1.99662 5.4046 1.99662 7.19111C1.99662 8.97763 2.00331 9.18931 2.03555 9.89491C2.06536 10.5476 2.17424 10.9016 2.26609 11.1376C2.37315 11.4278 2.54407 11.6912 2.76609 11.9071C2.98203 12.1291 3.24542 12.3 3.53556 12.4071C3.77158 12.4989 4.12559 12.6078 4.77828 12.6376C5.48388 12.6699 5.69495 12.6766 7.48207 12.6766C9.26919 12.6766 9.48026 12.6699 10.1859 12.6376C10.8385 12.6078 11.1926 12.4989 11.4286 12.4071C11.7406 12.2854 11.9639 12.1413 12.198 11.9071C12.4201 11.6912 12.591 11.4278 12.698 11.1376C12.7899 10.9016 12.8988 10.5476 12.9286 9.89491C12.9608 9.18931 12.9675 8.97763 12.9675 7.19111C12.9675 5.4046 12.9608 5.19292 12.9286 4.48732C12.8988 3.83464 12.7899 3.48062 12.698 3.24461C12.5764 2.93256 12.4322 2.70933 12.198 2.47514C11.9821 2.25316 11.7191 2.08232 11.4286 1.97513C11.1926 1.88328 10.8385 1.7744 10.1859 1.7446ZM6.62744 9.25378C7.10473 9.45247 7.63619 9.47928 8.13106 9.32965C8.62592 9.18002 9.05349 8.86322 9.34073 8.43336C9.62797 8.00351 9.75706 7.48727 9.70596 6.97281C9.65486 6.45835 9.42673 5.97758 9.06055 5.61263C8.82712 5.37934 8.54486 5.20072 8.2341 5.0896C7.92335 4.97849 7.59182 4.93766 7.26339 4.97006C6.93496 5.00245 6.6178 5.10726 6.33474 5.27694C6.05168 5.44663 5.80976 5.67696 5.6264 5.95135C5.44304 6.22575 5.3228 6.53739 5.27433 6.86384C5.22587 7.19028 5.25039 7.52341 5.34613 7.83924C5.44186 8.15508 5.60643 8.44575 5.82799 8.69035C6.04955 8.93495 6.32259 9.12737 6.62744 9.25378ZM5.05018 4.75922C5.36954 4.43986 5.74867 4.18653 6.16594 4.01369C6.5832 3.84086 7.03042 3.7519 7.48207 3.7519C7.93371 3.7519 8.38094 3.84085 8.7982 4.01369C9.21547 4.18653 9.5946 4.43986 9.91396 4.75922C10.2333 5.07858 10.4867 5.45772 10.6595 5.87498C10.8323 6.29225 10.9213 6.73947 10.9213 7.19111C10.9213 7.64276 10.8323 8.08998 10.6595 8.50725C10.4867 8.92451 10.2333 9.30365 9.91396 9.62301C9.26898 10.268 8.39421 10.6303 7.48207 10.6303C6.56993 10.6303 5.69515 10.268 5.05018 9.62301C4.4052 8.97803 4.04285 8.10325 4.04285 7.19111C4.04285 6.27898 4.4052 5.4042 5.05018 4.75922ZM11.6841 4.26408C11.7632 4.18943 11.8265 4.09965 11.8704 4.00007C11.9142 3.9005 11.9376 3.79314 11.9392 3.68435C11.9408 3.57557 11.9205 3.46757 11.8796 3.36676C11.8387 3.26594 11.778 3.17436 11.7011 3.09743C11.6241 3.0205 11.5325 2.95979 11.4317 2.91889C11.3309 2.87799 11.2229 2.85773 11.1141 2.85932C11.0054 2.8609 10.898 2.8843 10.7984 2.92812C10.6988 2.97194 10.6091 3.0353 10.5344 3.11444C10.3892 3.26835 10.3097 3.47279 10.3128 3.68435C10.3159 3.89592 10.4013 4.09795 10.5509 4.24756C10.7005 4.39718 10.9026 4.48259 11.1141 4.48568C11.3257 4.48876 11.5301 4.40927 11.6841 4.26408Z" fill="#E5C980"/>
</svg>
