<svg width="16" height="16" viewBox="0 0 16 16" fill="red" xmlns="http://www.w3.org/2000/svg">
<path fill-rule="evenodd" clip-rule="evenodd" d="M8.16438 14.6666C7.26105 14.6666 6.38038 14.6566 5.50905 14.6386C4.39438 14.6166 3.62305 13.8939 3.49705 12.7526C3.28705 10.8593 2.92771 6.3966 2.92438 6.35194C2.90171 6.0766 3.10705 5.83527 3.38238 5.81327C3.65371 5.80594 3.89905 5.9966 3.92105 6.27127C3.92438 6.3166 4.28305 10.7639 4.49105 12.6426C4.56238 13.2913 4.91238 13.6259 5.52971 13.6386C7.19638 13.6739 8.89705 13.6759 10.7304 13.6426C11.3864 13.6299 11.741 13.3019 11.8144 12.6379C12.021 10.7753 12.381 6.3166 12.385 6.27127C12.407 5.9966 12.6504 5.8046 12.923 5.81327C13.1984 5.83594 13.4037 6.0766 13.3817 6.35194C13.3777 6.39727 13.0164 10.8713 12.8084 12.7479C12.679 13.9126 11.9097 14.6213 10.7484 14.6426C9.85971 14.6579 9.00238 14.6666 8.16438 14.6666Z" />
<path fill-rule="evenodd" clip-rule="evenodd" d="M13.8053 4.65942L2.5 4.65942C2.224 4.65942 2 4.43542 2 4.15942C2 3.88342 2.224 3.65942 2.5 3.65942L13.8053 3.65942C14.0813 3.65942 14.3053 3.88342 14.3053 4.15942C14.3053 4.43542 14.0813 4.65942 13.8053 4.65942Z" />
<path fill-rule="evenodd" clip-rule="evenodd" d="M11.627 4.6595C10.8683 4.6595 10.2096 4.11883 10.0603 3.37483L9.89828 2.56416C9.86428 2.44083 9.72362 2.3335 9.56362 2.3335L6.74162 2.3335C6.58162 2.3335 6.44095 2.44083 6.40028 2.59483L6.24495 3.37483C6.09628 4.11883 5.43695 4.6595 4.67828 4.6595C4.40228 4.6595 4.17828 4.4355 4.17828 4.1595C4.17828 3.8835 4.40228 3.6595 4.67828 3.6595C4.96228 3.6595 5.20895 3.45683 5.26495 3.17816L5.42695 2.3675C5.59162 1.74616 6.12962 1.3335 6.74162 1.3335L9.56362 1.3335C10.1756 1.3335 10.7136 1.74616 10.8716 2.3375L11.041 3.17816C11.0963 3.45683 11.343 3.6595 11.627 3.6595C11.903 3.6595 12.127 3.8835 12.127 4.1595C12.127 4.4355 11.903 4.6595 11.627 4.6595Z" />
</svg>
