<svg width="25" height="25" viewBox="0 0 25 25" fill="none" xmlns="http://www.w3.org/2000/svg">
<path d="M9 10.5015H11.0605V10.1398C11.077 9.3674 11.0383 8.58888 11.1185 7.82875C11.2955 6.14911 12.3244 5.10087 13.8566 5.01198C14.5646 4.97214 15.2782 5.04263 16 5.06409V7.47014C15.9004 7.47014 15.8064 7.48853 15.7234 7.48853C15.2892 7.48853 14.8578 7.48853 14.4263 7.51918C14.3214 7.513 14.2165 7.53012 14.1177 7.56952C14.0188 7.60892 13.9281 7.66981 13.8508 7.74862C13.7735 7.82743 13.7112 7.92257 13.6675 8.02844C13.6239 8.13431 13.5998 8.24878 13.5966 8.36513C13.5524 9.06396 13.5966 9.76585 13.5966 10.5107H15.9502L15.6211 13.1588H13.5606V20H11.0715V13.1711H9V10.5015Z" fill="#E2B756"/>
<path d="M23.2828 8.89V21.6461C23.2828 22.9692 22.1919 24.0461 20.8516 24.0768H3.45941C2.11915 24.0768 1.02824 22.9999 1.02824 21.6461V4.10762C1.02824 2.78454 2.11915 1.70762 3.45941 1.67685H20.8204C22.1607 1.67685 23.2516 2.75377 23.2516 4.10762V4.24936H23.688V4.10762C23.688 2.56916 22.4101 1.30762 20.8516 1.30762H3.45941C1.90097 1.30762 0.623047 2.56916 0.623047 4.10762V21.6461C0.623047 23.2153 1.90097 24.4461 3.45941 24.4461H20.8204C22.4101 24.4461 23.688 23.1845 23.688 21.6461V8.89H23.2828Z" fill="#E2B756" stroke="#E2B756"/>
<path d="M23.4 8H24V5H23.5C23.449 5.38941 23.3754 5.53199 23 5.57366V6.14733H23.4V8Z" fill="#E2B756"/>
</svg>
