<svg width="22" height="22" viewBox="0 0 18 18" fill="black" xmlns="http://www.w3.org/2000/svg">
<path d="M9 0C4.035 0 0 4.035 0 9C0 13.965 4.035 18 9 18C13.965 18 18 13.965 18 9C18 4.035 13.965 0 9 0ZM9 16.5C4.86 16.5 1.5 13.14 1.5 9C1.5 4.86 4.86 1.5 9 1.5C13.14 1.5 16.5 4.86 16.5 9C16.5 13.14 13.14 16.5 9 16.5Z"/>
<path d="M9.645 3.82498C8.205 3.46498 6.6 4.37998 6.165 5.78998C6.03 6.19498 6.255 6.61498 6.645 6.73498C7.035 6.85498 7.455 6.64498 7.59 6.23998C7.8 5.57998 8.61 5.11498 9.3 5.27998C9.975 5.44498 10.485 6.23998 10.35 6.92998C10.23 7.61998 9.495 8.17498 8.79 8.08498C8.58 8.05498 8.355 8.12998 8.205 8.26499C8.04 8.41498 7.95 8.60998 7.95 8.83498L7.935 11.175C7.935 11.595 8.265 11.925 8.685 11.925C9.105 11.925 9.435 11.595 9.435 11.175L9.45 9.53998C10.605 9.31498 11.625 8.36998 11.835 7.18498C12.105 5.72998 11.1 4.18498 9.645 3.82498Z"/>
<path d="M8.715 12.585H8.7C8.295 12.585 7.965 12.93 7.95 13.335C7.95 13.35 7.95 13.485 7.95 13.5C7.95 13.905 8.28 14.175 8.685 14.19H8.7C9.105 14.19 9.435 13.815 9.45 13.41C9.45 13.395 9.45 13.305 9.45 13.29C9.435 12.885 9.12 12.585 8.715 12.585Z"/>
</svg>
