<svg width="12" height="12" viewBox="0 0 12 12" fill="none" xmlns="http://www.w3.org/2000/svg">
<path d="M11.9983 6.01445C11.9983 6.88168 11.9983 7.74891 11.9983 8.61614C12.056 10.4373 10.6141 11.9694 8.7973 11.9983C8.73962 11.9983 8.68194 11.9983 8.62427 11.9983H3.37573C1.55893 12.0561 0.0593481 10.6108 0.00167182 8.78958C0.00167182 8.73177 0.00167182 8.70286 0.00167182 8.64504C0.00167182 6.88168 0.00167182 5.14723 0.00167182 3.38386C-0.0560044 1.56269 1.3859 0.059491 3.2027 0.00167585C3.26038 0.00167585 3.31806 0.00167585 3.37573 0.00167585C5.13486 0.00167585 6.86514 0.00167585 8.62427 0.00167585C10.4411 -0.0561393 11.9407 1.38924 11.9983 3.21042C11.9983 3.26823 11.9983 3.32605 11.9983 3.38386C11.9983 4.25109 11.9983 5.14723 11.9983 6.01445ZM9.28755 6.01445C9.28755 4.19328 7.8168 2.71899 6 2.71899C4.1832 2.71899 2.71245 4.19328 2.71245 6.01445C2.71245 7.80672 4.1832 9.28101 6 9.28101C7.8168 9.30992 9.28755 7.83563 9.28755 6.01445ZM9.48941 3.49949C10.0373 3.49949 10.4987 3.06588 10.4987 2.51664C10.4987 1.96739 10.0662 1.50487 9.51825 1.50487C8.97033 1.50487 8.50892 1.93848 8.50892 2.48773C8.50892 3.06588 8.94149 3.49949 9.48941 3.49949Z" fill="#E2B756"/>
<path d="M8.59562 6.01452C8.59562 7.431 7.41325 8.5873 6.00019 8.5873C4.58712 8.5873 3.43359 7.40209 3.43359 5.98562C3.43359 4.56914 4.58712 3.41284 6.02902 3.41284C7.44209 3.41284 8.59562 4.56915 8.59562 6.01452Z" fill="#E2B756"/>
</svg>
