<svg width="35" height="35" viewBox="0 0 25 25" fill="none" xmlns="http://www.w3.org/2000/svg">
<path d="M18.9983 12.0145C18.9983 12.8817 18.9983 13.7489 18.9983 14.6161C19.056 16.4373 17.6141 17.9694 15.7973 17.9983C15.7396 17.9983 15.6819 17.9983 15.6243 17.9983H10.3757C8.55893 18.0561 7.05935 16.6108 7.00167 14.7896C7.00167 14.7318 7.00167 14.7029 7.00167 14.645C7.00167 12.8817 7.00167 11.1472 7.00167 9.38386C6.944 7.56269 8.3859 6.05949 10.2027 6.00168C10.2604 6.00168 10.3181 6.00168 10.3757 6.00168C12.1349 6.00168 13.8651 6.00168 15.6243 6.00168C17.4411 5.94386 18.9407 7.38924 18.9983 9.21042C18.9983 9.26823 18.9983 9.32605 18.9983 9.38386C18.9983 10.2511 18.9983 11.1472 18.9983 12.0145ZM16.2875 12.0145C16.2875 10.1933 14.8168 8.71899 13 8.71899C11.1832 8.71899 9.71245 10.1933 9.71245 12.0145C9.71245 13.8067 11.1832 15.281 13 15.281C14.8168 15.3099 16.2875 13.8356 16.2875 12.0145ZM16.4894 9.49949C17.0373 9.49949 17.4987 9.06588 17.4987 8.51664C17.4987 7.96739 17.0662 7.50487 16.5183 7.50487C15.9703 7.50487 15.5089 7.93848 15.5089 8.48773C15.5089 9.06588 15.9415 9.49949 16.4894 9.49949Z" fill="#FFF"/>
<path d="M15.5956 12.0145C15.5956 13.4309 14.4133 14.5872 13.0002 14.5872C11.5871 14.5872 10.4336 13.402 10.4336 11.9856C10.4336 10.5691 11.5871 9.41278 13.029 9.41278C14.4421 9.41278 15.5956 10.5691 15.5956 12.0145Z" fill="#FFF"/>
<path d="M23.6597 8.58238V21.3385C23.6597 22.6615 22.5688 23.7385 21.2286 23.7692H3.83636C2.4961 23.7692 1.40519 22.6923 1.40519 21.3385V3.8C1.40519 2.47692 2.4961 1.4 3.83636 1.36923H21.1974C22.5377 1.36923 23.6286 2.44615 23.6286 3.8V3.94174H24.0649V3.8C24.0649 2.26154 22.787 1 21.2286 1H3.83636C2.27792 1 1 2.26154 1 3.8V21.3385C1 22.9077 2.27792 24.1385 3.83636 24.1385H21.1974C22.787 24.1385 24.0649 22.8769 24.0649 21.3385V8.58238H23.6597Z" fill="#FFF" stroke="#FFF"/>
<path d="M23.777 7.69238H24.377V4.69238H23.877C23.826 5.0818 23.7523 5.22437 23.377 5.26605V5.83971H23.777V7.69238Z" fill="#FFF"/>
</svg>
