<svg width="15" height="14" viewBox="0 0 15 14" fill="none" xmlns="http://www.w3.org/2000/svg">
<path d="M4.03721 0.0501003C3.98096 0.0813503 3.89658 0.153225 3.84971 0.2126C3.77158 0.3126 3.76533 0.350101 3.75596 0.662601L3.74346 1.0001H2.82158C1.79346 1.0001 1.75596 1.00635 1.59971 1.2126C1.47783 1.37197 1.47783 1.62822 1.59971 1.7876C1.76533 2.00635 1.72471 2.0001 3.45283 2.0001H5.00908L4.98721 2.25635C4.95283 2.65947 4.84971 3.1376 4.71533 3.54697C4.58096 3.9501 4.31533 4.51885 4.26533 4.5126C4.22471 4.50635 3.99033 4.04385 3.87158 3.73447C3.81846 3.6001 3.73408 3.3251 3.68096 3.12822C3.57471 2.71572 3.54346 2.6626 3.37783 2.56885C3.14346 2.43447 2.87471 2.5001 2.70596 2.72822C2.49971 3.00635 2.84658 4.18447 3.40596 5.1126L3.56846 5.38135L3.48096 5.4751C3.10596 5.86572 2.24346 6.31572 1.60908 6.45322C1.24971 6.53135 1.13096 6.5876 1.03721 6.72822C0.874707 6.97197 0.962207 7.30635 1.22158 7.4376C1.37158 7.51572 1.54033 7.51572 1.85908 7.44072C2.62471 7.25635 3.42471 6.8501 4.02158 6.34697C4.14346 6.24072 4.25908 6.15635 4.27471 6.15635C4.29033 6.15635 4.33408 6.19385 4.37783 6.2376C4.49346 6.36572 4.98408 6.72197 5.26846 6.8876C5.77783 7.18447 6.53096 7.45635 6.93721 7.49072C7.10908 7.50635 7.16533 7.49697 7.27158 7.44385C7.53721 7.30635 7.62471 6.9751 7.46221 6.72822C7.36846 6.5876 7.24971 6.53135 6.89033 6.45322C6.24346 6.31572 5.38721 5.85947 4.99346 5.44697L4.90908 5.35947L5.02158 5.1876C5.37158 4.64385 5.74658 3.6876 5.87158 3.01572C5.93096 2.70322 5.99971 2.19072 5.99971 2.05323C5.99971 2.00635 6.03408 2.0001 6.29971 2.0001C6.64658 2.0001 6.77158 1.95635 6.89971 1.7876C7.02158 1.62822 7.02158 1.37197 6.89971 1.2126C6.74346 1.00635 6.70596 1.0001 5.67471 1.0001H4.74971V0.7001C4.74971 0.353225 4.70596 0.228225 4.54033 0.103225C4.40596 0.000100613 4.18408 -0.0248995 4.03721 0.0501003Z" fill="#1D1D1D"/>
<path d="M9.66166 0.284455C9.52416 0.353205 8.16479 1.71258 8.05854 1.8907C7.98666 2.0032 7.98041 2.21883 8.04291 2.33758C8.11166 2.4657 9.62729 3.96258 9.72729 4.00008C10.0242 4.10945 10.3429 3.92508 10.3898 3.6157C10.421 3.40633 10.3492 3.2782 9.99291 2.9157C9.69291 2.60945 9.68041 2.59383 9.76791 2.59383C9.91791 2.59383 10.4929 2.74383 10.796 2.86258C11.8367 3.27508 12.6742 4.03445 13.2335 5.07508C13.3898 5.36258 13.4835 5.45008 13.6804 5.48758C14.0054 5.55008 14.2992 5.23758 14.2367 4.89695C14.2117 4.76258 13.9085 4.22195 13.6617 3.87508C12.8679 2.75945 11.5898 1.93445 10.2273 1.65945C10.0554 1.62195 9.87104 1.59383 9.82416 1.59383C9.73979 1.59383 9.74604 1.58133 9.97416 1.35008C10.1054 1.21883 10.2492 1.0532 10.2929 0.98758C10.571 0.571955 10.1085 0.0563297 9.66166 0.284455Z" fill="#1D1D1D"/>
<path d="M11.7957 6.49693C11.6145 6.57818 11.5801 6.65318 10.2801 10.0344C8.91137 13.5907 8.93012 13.5282 9.06137 13.7438C9.22699 14.0126 9.64262 14.0532 9.85512 13.8157C9.88637 13.7813 10.0645 13.3626 10.2489 12.8844L10.5864 12.0157H11.9989H13.4114L13.7395 12.8594C13.9176 13.3219 14.0957 13.7344 14.1332 13.7751C14.3551 14.0157 14.7114 13.9876 14.9114 13.7157C15.0645 13.5126 15.1114 13.6563 13.7332 10.0751C13.0332 8.25631 12.4395 6.73131 12.4145 6.68756C12.3332 6.55318 12.2176 6.48756 12.0301 6.47818C11.9364 6.47193 11.8301 6.48131 11.7957 6.49693ZM12.4989 9.66256C12.7645 10.3688 12.9895 10.9594 12.9926 10.9751C12.9989 10.9876 12.552 11.0001 11.9989 11.0001C11.4457 11.0001 10.9989 10.9876 11.0051 10.9751C11.0114 10.9594 11.2332 10.3688 11.4989 9.66256C11.7645 8.95318 11.9895 8.37506 11.9989 8.37506C12.0082 8.37506 12.2332 8.95318 12.4989 9.66256Z" fill="#1D1D1D"/>
<path d="M2 8.54067C1.83438 8.62817 1.75 8.77504 1.75 8.97504C1.75 9.09379 1.78125 9.18754 1.90313 9.42192C2.70938 10.9719 4.225 12.0813 5.92813 12.3688L6.25 12.425L6.02813 12.6407C5.725 12.9375 5.625 13.0969 5.625 13.2813C5.625 13.525 5.8125 13.7407 6.05625 13.7719C6.28438 13.8032 6.39688 13.7188 7.20938 12.9C7.86875 12.2344 7.96875 12.1219 8 12C8.075 11.725 8.05313 11.6938 7.1625 10.8157C6.72188 10.3782 6.31563 10.0032 6.25938 9.98129C6.11875 9.92192 5.9875 9.92817 5.84375 10C5.70313 10.0719 5.63438 10.1563 5.59063 10.3188C5.53125 10.5438 5.59375 10.6594 5.975 11.0532C6.37813 11.4625 6.37813 11.4625 5.82188 11.3282C4.50938 11.0125 3.44063 10.175 2.78125 8.95317C2.61875 8.65317 2.55 8.56879 2.41563 8.51254C2.27188 8.45004 2.15313 8.45942 2 8.54067Z" fill="#1D1D1D"/>
</svg>
