<svg width="35" height="35" viewBox="0 0 25 25" fill="none" xmlns="http://www.w3.org/2000/svg">
<path d="M23.6597 8.58238V21.3385C23.6597 22.6615 22.5688 23.7385 21.2286 23.7692H3.83636C2.4961 23.7692 1.40519 22.6923 1.40519 21.3385V3.8C1.40519 2.47692 2.4961 1.4 3.83636 1.36923H21.1974C22.5377 1.36923 23.6286 2.44615 23.6286 3.8V3.94174H24.0649V3.8C24.0649 2.26154 22.787 1 21.2286 1H3.83636C2.27792 1 1 2.26154 1 3.8V21.3385C1 22.9077 2.27792 24.1385 3.83636 24.1385H21.1974C22.787 24.1385 24.0649 22.8769 24.0649 21.3385V8.58238H23.6597Z" fill="#FFF" stroke="#FFF"/>
<path d="M23.777 7.69238H24.377V4.69238H23.877C23.826 5.0818 23.7523 5.22437 23.377 5.26605V5.83971H23.777V7.69238Z" fill="#FFF"/>
<path fill-rule="evenodd" clip-rule="evenodd" d="M13 18C16.3137 18 19 15.3137 19 12C19 8.68629 16.3137 6 13 6C9.68629 6 7 8.68629 7 12C7 15.3137 9.68629 18 13 18Z" fill="#FFF"/>
<path fill-rule="evenodd" clip-rule="evenodd" d="M11.377 14.7646V11.1048H10.2458V14.7646H11.377ZM11.377 9.80759C11.3702 9.48008 11.152 9.23071 10.7974 9.23071C10.4427 9.23071 10.2109 9.48008 10.2109 9.80759C10.2109 10.128 10.4359 10.3846 10.7838 10.3846H10.7905C11.152 10.3846 11.377 10.128 11.377 9.80759ZM13.2224 14.7646V12.6794C13.2224 12.5678 13.2304 12.4562 13.2633 12.3767C13.353 12.1536 13.5572 11.9227 13.9 11.9227C14.3491 11.9227 14.6308 12.1776 14.6308 12.6794V14.7646H15.7696V12.6236C15.7696 11.4767 15.1574 10.9431 14.3407 10.9431C13.6712 10.9431 13.3773 11.3174 13.2141 11.5722L13.2223 11.0827H12.0855C12.1018 11.4331 12.0855 14.7646 12.0855 14.7646H13.2224Z" fill="#E2B756"/>
</svg>
