<svg width="25" height="25" viewBox="0 0 25 25" fill="none" xmlns="http://www.w3.org/2000/svg">
<path d="M19 10.2979C18.9649 11.8163 18.5436 13.3002 17.8063 14.646C16.5424 16.9581 14.8924 19.0287 12.9263 20.7886C12.7508 21.0302 12.4348 21.0647 12.189 20.8922C12.1539 20.8577 12.1188 20.8577 12.1188 20.8231C9.73148 18.6146 7.66011 16.1644 6.50154 13.0586C5.79938 11.3332 5.83449 9.40066 6.60687 7.70972C8.0814 4.53489 11.9082 3.12003 15.1732 4.5694C17.2446 5.50115 18.6489 7.39914 18.8947 9.60772C18.9649 9.88379 18.9649 10.1599 19 10.2979ZM12.505 13.8868C14.4711 13.8868 16.086 12.2994 16.086 10.3669C16.086 8.43441 14.4711 6.847 12.505 6.847C10.539 6.847 8.924 8.43441 8.924 10.3669C8.924 12.2994 10.5039 13.8868 12.4699 13.9213C12.4699 13.8868 12.505 13.8868 12.505 13.8868Z" fill="#1D1D1D"/>
<path d="M23.2944 8.53701V21.2168C23.2944 22.5319 22.221 23.6024 20.9024 23.633H3.79063C2.47198 23.633 1.39866 22.5625 1.39866 21.2168V3.78324C1.39866 2.46809 2.47198 1.39761 3.79063 1.36702H20.8717C22.1904 1.36702 23.2637 2.4375 23.2637 3.78324V3.92414H23.693V3.78324C23.693 2.25399 22.4357 1 20.9024 1H3.79063C2.25732 1 1 2.25399 1 3.78324V21.2168C1 22.7766 2.25732 24 3.79063 24H20.8717C22.4357 24 23.693 22.746 23.693 21.2168V8.53701H23.2944Z" fill="#1D1D1D" stroke="#1D1D1D"/>
<path d="M23.4092 7.65221H23.9995V4.67017H23.5076C23.4574 5.05725 23.385 5.19897 23.0156 5.2404V5.81063H23.4092V7.65221Z" fill="#1D1D1D"/>
</svg>
