<svg width="56" height="23" viewBox="0 0 56 23" fill="none" xmlns="http://www.w3.org/2000/svg">
<path d="M16.8809 3.93062C17.0855 3.89616 17.176 4.13488 17.3239 4.23394C18.2074 5.16481 19.1803 6.02862 20.014 6.99887C17.2567 9.77242 14.5112 12.5614 11.722 15.3029C9.84524 17.1819 8.02271 19.1193 6.10468 20.9608C4.07389 21.002 2.03387 20.9614 0 20.9798C0.00184841 20.9546 0.00616136 20.9042 0.00800977 20.8795C3.56804 17.3105 7.15088 13.7685 10.6863 10.1834C12.7164 8.06695 14.8717 6.06246 16.8809 3.93062Z" fill="#0261E0"/>
<path d="M16.9432 3.92716C17.0504 3.96766 18.1271 5.076 18.1755 5.15764C18.385 5.78868 18.654 6.08586 18.83 6.7201C16.841 7.14978 14.854 7.58912 12.8569 7.99666C11.5051 8.28537 10.1658 8.54152 8.80288 8.87512C7.80859 8.34601 6.82906 7.77984 5.83864 7.24028C5.84546 7.23012 5.85942 7.20996 5.8661 7.20007C8.31725 6.38816 11.0899 5.46529 13.5544 4.85004C15.0364 4.50228 15.4677 4.28705 16.9432 3.92716Z" fill="#0261E0"/>
<path d="M9.89675 22.7465C15.5523 17.1034 21.1591 11.4136 26.8195 5.77295C28.8583 7.82543 30.8811 9.89205 32.9242 11.9378C34.987 9.92343 36.9907 7.84019 39.072 5.85047C43.8785 10.786 48.7577 15.6582 53.6363 20.5285C54.4237 21.3517 55.229 22.1602 55.9991 22.9981C53.9973 22.9969 51.9955 23.0135 49.9955 22.9667C49.8489 22.9815 49.77 22.8394 49.6726 22.7576C47.4872 20.5611 45.3147 18.3561 43.117 16.1731C41.7849 14.7858 40.4429 13.3941 39.0351 12.0867C38.1189 12.9092 37.2791 13.8155 36.3918 14.6707C36.2655 14.8054 36.0758 14.9217 36.0788 15.1285C38.6611 17.7094 41.2723 20.2652 43.7836 22.9138C41.7454 22.9944 39.6832 22.9747 37.6407 22.9157C36.0474 21.3486 34.5256 19.7108 32.8977 18.1838C31.4498 19.5386 30.1276 21.0182 28.6969 22.3933C28.4529 22.5853 28.286 22.9723 27.9243 22.9194C25.9607 22.9028 23.997 22.9274 22.0334 22.9114C24.5867 20.2609 27.217 17.6756 29.8312 15.078C28.8522 14.0302 27.8337 13.0151 26.7967 12.0245C23.1474 15.633 19.5535 19.2882 15.9324 22.9188C13.9195 22.9145 11.9066 22.9224 9.89367 22.9126C9.76613 22.9378 9.84315 22.7785 9.89675 22.7465Z" fill="#0261E0"/>
</svg>
