<svg width="24" height="24" viewBox="0 0 28 29" fill="#E7BB4C" xmlns="http://www.w3.org/2000/svg">
<path d="M18.6068 7.02829H21.2936V21.2318H18.2662V11.7406L13.7156 17.5539L9.1698 11.7786V21.2318H6.13294V7.02829H8.86706L13.7156 13.1975L18.6068 7.02829ZM24.4156 22.048V23.7849C24.4094 24.1391 24.2654 24.4768 24.0144 24.726C23.7634 24.9751 23.4253 25.1159 23.0722 25.1184H4.54829C4.19074 25.1184 3.84784 24.9759 3.59502 24.7222C3.34219 24.4686 3.20015 24.1246 3.20015 23.7659V5.18701C3.20389 4.83078 3.34757 4.49042 3.6 4.23985C3.85242 3.98928 4.19319 3.84874 4.54829 3.84876H23.0674C23.4222 3.84997 23.7622 3.99091 24.0144 4.24121C24.2665 4.49152 24.4106 4.83117 24.4156 5.18701V5.72326H27.3105V3.82503C27.3093 3.05937 27.0052 2.32549 26.4651 1.78453C25.925 1.24357 25.193 0.939731 24.4298 0.939732H3.18596C2.80647 0.937857 2.43034 1.01123 2.07919 1.15563C1.72804 1.30002 1.40879 1.51261 1.13978 1.78116C0.870772 2.04971 0.657306 2.36894 0.511648 2.72051C0.36599 3.07208 0.291011 3.44905 0.291016 3.82978V25.1563C0.292266 25.9212 0.595678 26.6543 1.13477 27.1952C1.67386 27.736 2.40466 28.0404 3.16704 28.0416H24.4203C25.1835 28.0416 25.9155 27.7378 26.4556 27.1968C26.9957 26.6559 27.2998 25.922 27.3011 25.1563V22.048H24.4156ZM24.917 7.02829L24.8366 7.19438C24.7556 7.35026 24.6555 7.49534 24.5386 7.62623C24.3801 7.81309 24.2078 7.9876 24.023 8.14824C23.7675 8.3478 23.4837 8.50776 23.181 8.6228C22.7991 8.78426 22.396 8.88975 21.9842 8.93601V10.8817H24.4156V20.5389H27.3105V7.02829H24.917Z" />
</svg>
