<svg width="25" height="25" viewBox="0 0 25 25" fill="none" xmlns="http://www.w3.org/2000/svg">
<path d="M11.9527 18H6.74126C6.22503 18 6.00379 17.7776 6.00379 17.2587C6.00379 14.8865 6.00379 12.5143 6.00379 10.1421C5.97921 9.99387 6.07754 9.8456 6.20045 9.74676C6.6921 9.42553 7.18375 9.07959 7.65081 8.70893C7.72456 8.6348 7.79831 8.53596 7.79831 8.43712C7.82289 8.14059 7.79831 7.86878 7.79831 7.57226C7.79831 7.12747 7.92122 7.00392 8.38828 7.00392C8.87993 7.00392 9.37158 7.00392 9.88781 7.00392C10.0353 7.00392 10.1582 6.9545 10.2811 6.88037C10.5515 6.7074 10.8219 6.50972 11.0678 6.31203C11.6086 5.89196 12.3706 5.89196 12.9114 6.33674C13.5014 6.88037 14.3126 7.12747 15.0993 7.00392C15.2959 6.97921 15.4926 6.97921 15.6893 7.00392C16.058 7.00392 16.2055 7.15218 16.2055 7.52284C16.2055 7.81936 16.2055 8.14059 16.2055 8.43712C16.2055 8.56067 16.2547 8.68422 16.353 8.73364C16.8446 9.07959 17.3363 9.42553 17.8279 9.77147C17.9508 9.84561 18 9.96916 18 10.0927C18 12.4896 18 14.9112 18 17.3081C18 17.7529 17.7542 18 17.3117 18H11.9527ZM8.21621 7.39929C8.21621 7.424 8.21621 7.44871 8.19163 7.49813C8.19163 8.75835 8.19163 10.0186 8.19163 11.2788C8.19163 11.3776 8.24079 11.4518 8.31454 11.5012C9.27325 12.3166 10.232 13.1074 11.1907 13.8981C11.6332 14.3182 12.346 14.3182 12.7885 13.8981C13.7227 13.1074 14.6568 12.3413 15.6155 11.5506C15.7138 11.4765 15.7876 11.3529 15.7876 11.2294C15.7876 10.0433 15.7876 8.83248 15.7876 7.64639C15.7876 7.57226 15.7876 7.52284 15.763 7.424L8.21621 7.39929ZM10.8711 14.1699L6.79043 17.5552H17.1642L13.1081 14.1699C12.2231 14.7382 11.6823 14.7382 10.8711 14.1699ZM6.42169 17.3575L10.5761 13.8981C9.1995 12.7367 7.82289 11.6 6.42169 10.4387V17.3575ZM17.5575 10.4387L13.4031 13.8981L17.5575 17.3575V10.4387ZM7.77372 9.1043L6.52002 9.99387L7.77372 11.0317V9.1043ZM17.4346 9.99387L16.2055 9.1043V11.0317L17.4346 9.99387ZM13.1327 6.9545C12.2969 6.18848 11.6086 6.18848 10.8465 6.9545H13.1327Z" fill="#1D1D1D" stroke="black" stroke-width="0.3"/>
<path d="M12.3957 11.4517C12.199 11.5505 12.0023 11.6247 11.8057 11.6988C11.0436 11.8965 10.4782 11.3034 10.6503 10.5127C10.7241 10.1915 10.8715 9.91965 11.0682 9.67255C11.5353 9.0795 12.0515 9.05479 12.6906 9.49958C12.7152 9.45016 12.7152 9.40074 12.7398 9.37603C12.8136 9.3266 12.9119 9.27718 12.9856 9.22776C13.0348 9.30189 13.1331 9.40074 13.1085 9.47487C13.0594 9.84552 12.9611 10.2162 12.8873 10.6115C12.8627 10.7845 12.8136 10.9575 12.7644 11.1305C12.7152 11.3034 12.789 11.3281 12.9611 11.3281C13.1823 11.3528 13.379 11.254 13.5019 11.081C14.0181 10.3891 13.8952 9.42545 13.2069 8.90653C13.0594 8.78298 12.8627 8.68414 12.6661 8.63472C11.4615 8.33819 10.0849 9.27718 9.962 10.5127C9.88825 11.2293 10.2816 11.8965 10.9453 12.1683C11.609 12.4401 12.3465 12.4648 13.0348 12.2918C13.4035 12.193 13.7231 11.9953 13.9689 11.7235C14.0673 11.6 14.1902 11.5011 14.3131 11.6494C14.436 11.7976 14.3377 11.8965 14.2393 12.02C13.7723 12.5142 13.1331 12.8108 12.4448 12.786C11.9532 12.786 11.4861 12.7366 11.019 12.6131C9.962 12.3413 9.32286 11.2787 9.59326 10.2162C9.61785 10.142 9.64243 10.0432 9.66701 9.96907C10.1095 8.70885 11.4124 7.99225 12.7152 8.26406C13.379 8.41232 13.9198 8.90653 14.0918 9.549C14.3377 10.1915 14.1656 10.9328 13.6985 11.427C13.4035 11.7976 12.8627 11.8718 12.494 11.5752C12.4694 11.5258 12.4448 11.5011 12.3957 11.4517ZM11.5353 11.3281C12.0269 11.3528 12.6415 10.7104 12.5432 10.142C12.4448 9.57371 11.9532 9.42545 11.5844 9.69726C11.2649 9.91965 11.0436 10.2903 11.019 10.7104C10.9699 10.9822 11.142 11.2787 11.4124 11.3281C11.4615 11.3281 11.5107 11.3528 11.5353 11.3281Z" fill="#1D1D1D" stroke="black" stroke-width="0.3"/>
<path d="M23.2944 8.53701V21.2168C23.2944 22.5319 22.221 23.6024 20.9024 23.633H3.79063C2.47198 23.633 1.39866 22.5625 1.39866 21.2168V3.78324C1.39866 2.46809 2.47198 1.39761 3.79063 1.36702H20.8717C22.1904 1.36702 23.2637 2.4375 23.2637 3.78324V3.92414H23.693V3.78324C23.693 2.25399 22.4357 1 20.9024 1H3.79063C2.25732 1 1 2.25399 1 3.78324V21.2168C1 22.7766 2.25732 24 3.79063 24H20.8717C22.4357 24 23.693 22.746 23.693 21.2168V8.53701H23.2944Z" fill="#1D1D1D" stroke="#1D1D1D"/>
<path d="M23.4092 7.65221H23.9995V4.67017H23.5076C23.4574 5.05725 23.385 5.19897 23.0156 5.2404V5.81063H23.4092V7.65221Z" fill="#1D1D1D"/>
</svg>
