<svg width="26" height="18" viewBox="0 0 26 18" fill="none" xmlns="http://www.w3.org/2000/svg">
<path d="M2.93594 0.0656516C2.01719 0.290652 1.23906 1.08753 1.05156 2.00628C0.981251 2.35784 0.981251 15.6422 1.05156 15.9938C1.24844 16.936 2.06406 17.7516 3.00625 17.9485C3.17969 17.986 6.11406 18 13.0141 18C23.7672 18 23.0687 18.0188 23.6594 17.7094C24.0812 17.4844 24.5266 17.0203 24.7281 16.5938C24.8219 16.4016 24.9203 16.1297 24.9484 15.9938C25.0187 15.6422 25.0187 2.35784 24.9484 2.00628C24.8078 1.31721 24.2594 0.595339 23.65 0.285964C23.05 -0.0187234 23.7484 2.66314e-05 12.9766 0.00471413C5.2375 0.00940163 3.12813 0.0187766 2.93594 0.0656516ZM23.0781 1.12971C23.4531 1.30315 23.6641 1.5094 23.8375 1.86565L23.9922 2.17971V9.00003V15.8203L23.8375 16.1344C23.6641 16.4907 23.4531 16.6969 23.0781 16.8703L22.8203 16.9922H13H3.17969L2.86563 16.8375C2.50938 16.6641 2.30313 16.4532 2.12969 16.0782L2.00781 15.8203V9.00003V2.17971L2.12969 1.9219C2.35 1.45784 2.67344 1.17659 3.15156 1.05003C3.32031 1.00315 5.48594 0.993777 13.0938 0.998464L22.8203 1.00784L23.0781 1.12971Z" fill="black"/>
<path d="M4.63281 3.72661C4.45938 3.9188 4.32812 4.09692 4.3375 4.12036C4.34219 4.13911 5.52813 5.20786 6.96719 6.49224C8.40625 7.77661 9.57344 8.84067 9.56875 8.86411C9.55938 8.88286 8.37813 10.05 6.94375 11.461C5.50469 12.8719 4.32812 14.0391 4.32812 14.0532C4.32812 14.0719 4.47813 14.236 4.66563 14.4235L5.00313 14.761L6.68125 13.111C7.60469 12.2016 8.80938 11.025 9.3625 10.4907L10.3609 9.52036L11.2469 10.3125C11.7344 10.7485 12.2219 11.1469 12.3297 11.2032C12.7328 11.4047 13.2672 11.4047 13.6703 11.2032C13.7781 11.1516 14.2656 10.7532 14.7531 10.3172L15.6438 9.52505L16.5953 10.4438C17.1156 10.95 18.3203 12.1313 19.2719 13.0641L20.9969 14.761L21.3344 14.4235C21.5219 14.236 21.6719 14.0719 21.6719 14.0532C21.6719 14.0391 20.4953 12.8719 19.0609 11.461C17.6219 10.0454 16.4406 8.87817 16.4313 8.85942C16.4266 8.84067 17.5938 7.77661 19.0328 6.49692C20.4719 5.21255 21.6531 4.13911 21.6578 4.11099C21.6672 4.07817 21.5266 3.90005 21.3531 3.70786L21.0391 3.36567L17.2609 6.7313C15.1844 8.58755 13.4172 10.1579 13.3328 10.2282C13.225 10.3219 13.1266 10.3594 12.9953 10.3594C12.8313 10.3594 12.7656 10.3172 12.4 9.99849C12.175 9.79692 10.4313 8.24067 8.52344 6.53911C6.61563 4.83286 5.03125 3.42661 5.00313 3.40786C4.97031 3.38911 4.82031 3.52036 4.63281 3.72661Z" fill="black"/>
</svg>
