<svg width="60" height="61" viewBox="0 0 60 61" fill="none" xmlns="http://www.w3.org/2000/svg">
<path d="M57.1885 10.8182C57.1885 10.974 57.1126 10.974 57.1126 11.052C57.0366 11.1299 56.9607 11.2078 56.9607 11.2078C56.8847 11.2857 56.8088 11.3636 56.6569 11.3636C56.505 11.4416 56.3531 11.4416 56.2012 11.4416V12.1429H57.0366V18.2208H58.0999V10.7403H57.1885V10.8182Z" fill="#E2B756" stroke="#E2B756"/>
<path d="M36.3039 36.6883C36.0761 38.1688 36.0761 38.1688 34.7849 38.2468C34.7849 38.8701 34.7849 39.4935 34.7849 40.1169C34.7849 40.7403 34.4811 41.052 33.8735 41.052H30.6837V43.8572H29.3166V41.052C28.2533 41.052 27.19 41.052 26.2027 41.052C25.3672 41.052 25.0634 40.7403 25.0634 39.8831C25.0634 39.3377 25.0634 38.7922 25.0634 38.1688C24.0761 38.2468 23.4685 37.8572 23.6204 36.7662C21.6457 37 19.8229 38.1688 18.8356 39.8831C18.6077 40.3507 18.3039 40.8961 18.0001 41.3636C17.7723 41.5974 17.4685 41.6753 17.1647 41.6753C16.9368 41.5195 16.709 41.2078 16.709 40.974C17.0887 35.2857 18.4558 29.987 23.0128 26.2468C23.4685 25.9351 23.6963 25.3896 23.6204 24.7662C23.4685 20.8701 23.8482 16.974 25.747 13.5455C26.7343 11.8312 27.8735 10.1948 29.0887 8.7143C29.6963 7.93508 29.9242 8.013 30.6077 8.7143C34.0254 12.2987 35.9242 16.974 36.0761 21.9611C36.152 23.1299 35.7723 24.3766 36.152 25.3896C36.5318 26.4026 37.5951 27.026 38.3546 27.8052C40.8609 30.6883 42.3799 34.3507 42.7596 38.2468C42.8356 38.9481 42.9115 39.7273 43.0634 40.4286C43.1394 40.974 43.2913 41.5195 42.6077 41.7533C41.9242 41.987 41.7723 41.4416 41.5444 40.974C41.0128 39.7273 40.1014 38.7143 39.0381 37.9351C38.1267 37.4675 37.2153 37.0779 36.3039 36.6883ZM34.709 36.7662C34.709 36.6104 34.7849 36.4546 34.7849 36.3766C34.7849 31.5455 34.8609 26.7143 34.709 21.8831C34.5571 20.1688 34.3292 18.4546 34.0254 16.8182H25.9748C25.3672 18.6883 25.0634 20.5585 25.0634 22.5065V36.7662H34.709ZM36.228 27.6494V35.4416C38.1267 35.6753 39.9495 36.6104 41.3166 38.013C40.9368 34.039 39.114 30.2987 36.228 27.6494ZM23.6204 27.7273C20.9621 29.7533 18.3799 34.974 18.6077 37.7013C19.3672 37.1559 20.1267 36.6883 20.8862 36.2208C21.7216 35.8312 22.633 35.5195 23.5444 35.2857L23.6204 27.7273ZM33.19 15.3377L33.4178 15.1039L30.0761 9.80521C28.5571 11.4416 27.4178 13.3117 26.5824 15.3377H33.19ZM26.5065 39.6494H33.4178V38.3247H26.5065V39.6494Z" fill="#E2B756"/>
<path d="M26.5826 42.1428L27.7218 42.922C27.418 43.3896 27.1902 43.7792 26.8864 44.2467C26.2028 45.4156 26.2788 46.8961 27.1142 47.9091C27.9497 48.922 28.937 49.7792 29.8484 50.6363C30.8358 49.7792 31.8231 48.8441 32.6585 47.8311C33.494 46.8181 33.5699 45.2597 32.8104 44.1688C32.5826 43.7792 32.3547 43.3896 32.051 42.922L33.1142 42.1428C34.937 44.4805 35.1649 46.6623 33.7978 48.5324C33.0383 49.4675 32.2028 50.3246 31.3674 51.1818C29.6965 52.974 29.9244 52.8961 28.2535 51.1818L26.5826 49.4675C24.6079 47.4415 24.3801 45.2597 25.975 42.7662C26.2028 42.6883 26.3547 42.4545 26.5826 42.1428Z" fill="#E2B756"/>
<path d="M29.9233 21.026C32.2018 21.026 34.1005 22.9741 34.1005 25.3117C34.1005 27.6494 32.2018 29.5974 29.9233 29.5974C27.6448 29.5974 25.7461 27.6494 25.7461 25.3117C25.7461 25.3117 25.7461 25.3117 25.7461 25.2338C25.7461 22.9741 27.6448 21.026 29.9233 21.026ZM32.7334 25.3896C32.7334 23.8312 31.5182 22.5065 29.9993 22.5065C28.4803 22.5065 27.1891 23.7533 27.1891 25.3117C27.1891 26.8702 28.4043 28.1948 29.9233 28.1948C31.4423 28.1948 32.6575 26.9481 32.7334 25.3896Z" fill="#E2B756"/>
<path d="M57.0375 20.2194V52.5844C57.0375 55.9351 54.3792 58.6623 51.0374 58.7403H8.73366C5.46784 58.7403 2.80961 56.013 2.73366 52.5844V8.16883C2.73366 4.81818 5.39189 2.09091 8.73366 2.01299H51.0374C54.3033 2.01299 56.9615 4.74026 57.0375 8.16883H57.7892H58.0248C58.0248 4.19481 54.9109 1 51.1134 1H8.73366C4.93619 1 1.82227 4.19481 1.82227 8.16883V52.5844C1.82227 56.5584 4.93619 59.6753 8.73366 59.6753H51.0374C54.9109 59.6753 57.9488 56.4805 57.9488 52.5844L57.7892 20.2194H57.0375Z" fill="#E2B756" stroke="#E2B756" stroke-width="2"/>
</svg>
