<svg width="343" height="255" viewBox="0 0 343 255" fill="none" xmlns="http://www.w3.org/2000/svg">
<path d="M192.752 30.0357H205.505V99.2537H191.135V53.0005L169.534 81.3306L147.956 53.1855V99.2537H133.541V30.0357H146.519L169.534 60.1003L192.752 30.0357ZM220.325 103.231V111.696C220.296 113.422 219.612 115.068 218.421 116.282C217.229 117.496 215.624 118.183 213.948 118.194H126.019C124.322 118.194 122.694 117.5 121.494 116.264C120.294 115.028 119.62 113.351 119.62 111.603V21.0626C119.637 19.3266 120.319 17.6679 121.518 16.4468C122.716 15.2257 124.333 14.5408 126.019 14.5409H213.926C215.609 14.5468 217.224 15.2336 218.421 16.4535C219.618 17.6733 220.301 19.3285 220.325 21.0626V23.6759H234.067V14.4253C234.061 10.694 232.617 7.11755 230.054 4.48126C227.49 1.84498 224.015 0.364302 220.392 0.364307H119.552C117.751 0.355167 115.965 0.712722 114.299 1.41642C112.632 2.12012 111.116 3.1561 109.839 4.46484C108.563 5.77358 107.549 7.32929 106.858 9.04259C106.166 10.7559 105.811 12.593 105.811 14.4484V118.379C105.816 122.107 107.257 125.68 109.816 128.315C112.375 130.951 115.844 132.434 119.462 132.44H220.347C223.97 132.44 227.445 130.96 230.009 128.323C232.572 125.687 234.016 122.111 234.022 118.379V103.231H220.325ZM222.705 30.0357L222.323 30.8452C221.939 31.6048 221.464 32.3119 220.909 32.9497C220.157 33.8603 219.339 34.7108 218.461 35.4936C217.249 36.4661 215.902 37.2457 214.464 37.8063C212.652 38.5932 210.739 39.1072 208.784 39.3326V48.8146H220.325V95.8772H234.067V30.0357H222.705Z" fill="#E7BB4C" fill-opacity="0.6"/>
<path d="M7.84198 253.185C7.18901 253.264 6.52711 253.195 5.90307 252.981C5.27903 252.768 4.70804 252.416 4.23046 251.951C3.75288 251.486 3.38035 250.918 3.13919 250.288C2.89802 249.658 2.7941 248.981 2.83477 248.305V244.212H5.68641V247.843C5.68641 249.739 6.69683 250.687 8.69522 250.687H11.0753V239.124H13.9494V253.3L7.84198 253.185ZM6.71929 239.031V236.372H9.66073V239.031H6.71929Z" fill="#E7BB4C" fill-opacity="0.6"/>
<path d="M27.2256 247.009C27.2342 247.047 27.2342 247.087 27.2256 247.125V249.23C27.2361 249.275 27.2361 249.323 27.2256 249.368C27.1973 249.381 27.1667 249.388 27.1358 249.388C27.1049 249.388 27.0743 249.381 27.0459 249.368H25.7661C25.7681 250.023 25.635 250.671 25.3757 251.269C25.1163 251.867 24.7366 252.402 24.2617 252.837C23.1638 253.633 21.8903 254.134 20.5568 254.294L19.4116 251.681C20.1017 251.603 20.7802 251.44 21.4325 251.195C21.8918 251.028 22.2859 250.712 22.5552 250.293C22.8422 249.799 22.9754 249.226 22.9369 248.651V241.459C22.508 241.371 22.072 241.324 21.6346 241.32C19.973 241.32 19.1422 242.292 19.1422 244.211C19.1074 244.935 19.3401 245.646 19.7934 246.2C20.0273 246.456 20.3146 246.653 20.6336 246.777C20.9527 246.902 21.295 246.949 21.6346 246.917H22.5327L21.4325 249.438H21.1406C20.2545 249.454 19.3797 249.231 18.6033 248.79C17.8524 248.361 17.2368 247.719 16.8295 246.94C16.3888 246.086 16.1648 245.132 16.1783 244.165C16.1743 243.201 16.4142 242.252 16.8744 241.413C17.3435 240.602 18.019 239.938 18.8279 239.493C19.7295 239.015 20.7329 238.777 21.7468 238.8C23.1093 238.84 24.4674 238.979 25.811 239.216V246.917H27.0459C27.0814 246.912 27.1175 246.918 27.1495 246.935C27.1815 246.951 27.208 246.977 27.2256 247.009Z" fill="#E7BB4C" fill-opacity="0.6"/>
<path d="M36.2143 238.985C37.0198 239.355 37.728 239.918 38.28 240.627C38.7651 241.224 39.0348 241.976 39.0434 242.755C39.0374 243.487 38.8438 244.205 38.4821 244.836C38.0872 245.577 37.5529 246.23 36.9103 246.756C37.8029 246.882 38.7039 246.937 39.6048 246.917C39.762 246.917 39.8518 246.917 39.8518 247.149V249.207C39.8518 249.369 39.8518 249.438 39.6048 249.438C37.6484 249.468 35.6978 249.211 33.8117 248.675C31.604 249.206 29.3425 249.462 27.0756 249.438C27.0452 249.442 27.0144 249.438 26.9855 249.428C26.9567 249.418 26.9304 249.401 26.9088 249.379C26.8872 249.356 26.8707 249.329 26.8607 249.3C26.8507 249.27 26.8474 249.238 26.851 249.207V247.149C26.8474 247.117 26.8507 247.086 26.8607 247.056C26.8707 247.026 26.8872 246.999 26.9088 246.977C26.9304 246.955 26.9567 246.938 26.9855 246.927C27.0144 246.917 27.0452 246.914 27.0756 246.917C28.2466 246.941 29.4177 246.871 30.5783 246.709C29.5255 245.388 28.5793 243.98 27.7492 242.5L28.3779 239.771C29.2772 239.367 30.1995 239.02 31.1397 238.731C31.9283 238.499 32.7446 238.382 33.5647 238.384C34.4783 238.397 35.3798 238.602 36.2143 238.985ZM30.2865 242.038C30.701 242.849 31.1818 243.623 31.7235 244.35C32.2602 245.098 32.8614 245.795 33.5198 246.432C34.2216 246.085 34.8598 245.615 35.4059 245.044C35.8858 244.581 36.1683 243.941 36.1918 243.263C36.1932 242.957 36.1148 242.656 35.9647 242.392C35.8146 242.127 35.5984 241.909 35.3386 241.76C34.7277 241.364 34.0168 241.163 33.2953 241.182C32.2449 241.245 31.2195 241.537 30.2865 242.038Z" fill="#E7BB4C" fill-opacity="0.6"/>
<path d="M47.9167 239.771C48.8683 240.408 49.5994 241.339 50.0049 242.431L51.1052 245.345C51.2918 245.802 51.6032 246.194 52.0017 246.474C52.4002 246.753 52.8687 246.907 53.3506 246.917L52.2279 249.438C51.6812 249.416 51.1455 249.274 50.6561 249.022C50.0991 248.76 49.5961 248.391 49.1741 247.935C48.2305 248.439 47.2264 248.812 46.1878 249.045C45.1289 249.307 44.0435 249.439 42.9544 249.438H39.6313C39.6068 249.45 39.5799 249.457 39.5527 249.457C39.5255 249.457 39.4986 249.45 39.4741 249.438C39.4644 249.392 39.4644 249.345 39.4741 249.299V247.195C39.4644 247.149 39.4644 247.102 39.4741 247.056C39.4986 247.044 39.5255 247.037 39.5527 247.037C39.5799 247.037 39.6068 247.044 39.6313 247.056H43.0443C43.9823 247.066 44.9199 247.012 45.851 246.894C46.6896 246.796 47.5122 246.586 48.2984 246.27L47.3554 243.957C47.1201 243.303 46.6872 242.743 46.1204 242.361C45.5205 241.981 44.8263 241.788 44.122 241.806C43.3468 241.808 42.5811 241.982 41.8767 242.315L40.8438 240.002C42.0171 239.354 43.3296 239.02 44.6609 239.031C45.7924 238.954 46.9217 239.211 47.9167 239.771ZM43.2913 253.948V251.288H46.2327V253.948H43.2913Z" fill="#E7BB4C" fill-opacity="0.6"/>
<path d="M55.7832 249.438V233.249H58.6573V249.438H55.7832Z" fill="#E7BB4C" fill-opacity="0.6"/>
<path d="M67.3676 247.009V247.124V249.229C67.3774 249.275 67.3774 249.322 67.3676 249.368C67.3676 249.368 67.3676 249.368 67.2105 249.368C66.4772 249.351 65.7626 249.127 65.1447 248.72C65.206 249.441 65.1285 250.168 64.9166 250.859C64.7046 251.549 64.3625 252.19 63.9097 252.744C63.0553 253.638 61.9138 254.181 60.6989 254.27L59.5762 251.657C60.1148 251.586 60.6427 251.446 61.1479 251.241C61.5213 251.08 61.8247 250.784 62.0012 250.408C62.212 249.905 62.3117 249.36 62.2931 248.813V238.914H65.1447V245.852C65.3918 246.164 65.7091 246.41 66.0691 246.567C66.4291 246.724 66.8209 246.788 67.2105 246.754C67.2105 246.754 67.3452 246.939 67.3676 247.009Z" fill="#E7BB4C" fill-opacity="0.6"/>
<path d="M75.3992 239.493C76.2174 239.924 76.8961 240.591 77.3527 241.412C77.823 242.248 78.0636 243.199 78.0488 244.164C77.9407 245.981 77.5306 247.764 76.8363 249.437H67.2036C67.2036 249.437 67.0689 249.437 67.0464 249.437C67.0364 249.416 67.0313 249.392 67.0312 249.368C67.0313 249.344 67.0364 249.32 67.0464 249.299V247.194C67.0364 247.172 67.0312 247.149 67.0312 247.125C67.0312 247.101 67.0364 247.077 67.0464 247.055C67.0464 247.055 67.0464 247.055 67.2036 247.055H68.4386V239.354C69.782 239.117 71.1401 238.978 72.5027 238.938C73.498 238.872 74.4936 239.063 75.3992 239.493ZM71.2902 241.459V246.916H74.6807C74.9365 246.038 75.0725 245.128 75.0849 244.211C75.0849 242.291 74.2541 241.32 72.5925 241.32C72.155 241.321 71.7187 241.368 71.2902 241.459Z" fill="#E7BB4C" fill-opacity="0.6"/>
<path d="M89.6117 239.216V248.629C89.6663 249.71 89.4416 250.788 88.9605 251.751C88.5576 252.518 87.9286 253.133 87.1642 253.508C86.2774 253.942 85.3305 254.231 84.3575 254.364L83.2123 251.751C83.9029 251.675 84.5816 251.512 85.2332 251.265C85.6925 251.098 86.0865 250.781 86.3559 250.363C86.6507 249.871 86.7918 249.298 86.76 248.721V241.459C86.331 241.372 85.895 241.326 85.4577 241.321C83.7961 241.321 82.9654 242.292 82.9654 244.211C82.9243 244.932 83.1488 245.642 83.5941 246.2C83.8361 246.451 84.128 246.645 84.4497 246.769C84.7714 246.893 85.1153 246.943 85.4577 246.917H86.3559L85.2332 249.438H84.9637C84.0704 249.455 83.1881 249.232 82.404 248.79C81.6531 248.361 81.0375 247.719 80.6302 246.94C80.1963 246.085 79.98 245.13 80.0015 244.165C79.9867 243.2 80.2273 242.248 80.6975 241.413C81.1521 240.598 81.8217 239.933 82.6285 239.494C83.5312 239.018 84.5339 238.78 85.5475 238.8C86.91 238.841 88.2681 238.98 89.6117 239.216Z" fill="#E7BB4C" fill-opacity="0.6"/>
<path d="M101.801 253.185C101.105 253.247 100.405 253.156 99.7465 252.916C99.0882 252.677 98.4871 252.295 97.9838 251.797C97.1774 250.827 96.7529 249.581 96.7937 248.305V244.212H99.6453V247.843C99.6453 249.739 100.656 250.687 102.654 250.687H105.034V239.124H107.908V253.3L101.801 253.185ZM100.678 239.031V236.372H103.575V239.031H100.678Z" fill="#E7BB4C" fill-opacity="0.6"/>
<path d="M121.087 247.009V247.125V249.23C121.097 249.275 121.097 249.323 121.087 249.368C121.059 249.381 121.028 249.388 120.997 249.388C120.966 249.388 120.936 249.381 120.907 249.368H119.627C119.629 250.023 119.496 250.671 119.237 251.269C118.978 251.867 118.598 252.402 118.123 252.837C117.025 253.633 115.752 254.134 114.418 254.294L113.273 251.681C113.963 251.603 114.642 251.44 115.294 251.195C115.753 251.028 116.147 250.712 116.417 250.293C116.711 249.802 116.852 249.229 116.821 248.651V241.459C116.384 241.372 115.941 241.325 115.496 241.32C113.834 241.32 113.004 242.292 113.004 244.211C112.969 244.935 113.201 245.646 113.655 246.2C113.889 246.456 114.176 246.653 114.495 246.777C114.814 246.902 115.156 246.949 115.496 246.917H116.394L115.294 249.438H115.002C114.116 249.452 113.242 249.229 112.465 248.79C111.714 248.361 111.098 247.719 110.691 246.94C110.25 246.086 110.026 245.132 110.04 244.165C110.036 243.201 110.276 242.252 110.736 241.413C111.205 240.602 111.88 239.938 112.689 239.493C113.591 239.015 114.594 238.777 115.608 238.8C116.971 238.84 118.329 238.979 119.672 239.216V246.917H120.907C120.943 246.912 120.979 246.918 121.011 246.935C121.043 246.951 121.069 246.977 121.087 247.009Z" fill="#E7BB4C" fill-opacity="0.6"/>
<path d="M126.025 246.131C126.266 246.419 126.573 246.642 126.917 246.779C127.262 246.916 127.634 246.964 128.001 246.917C128.001 246.917 128.136 246.917 128.158 246.917C128.168 246.939 128.173 246.962 128.173 246.986C128.173 247.01 128.168 247.034 128.158 247.056V249.16C128.168 249.182 128.173 249.206 128.173 249.23C128.173 249.254 128.168 249.277 128.158 249.299C128.158 249.299 128.158 249.299 128.001 249.299C127.499 249.285 127.005 249.175 126.542 248.975C126.003 248.736 125.514 248.39 125.105 247.958C124.746 248.397 124.294 248.747 123.785 248.979C123.275 249.212 122.72 249.321 122.163 249.299H120.883C120.859 249.311 120.832 249.318 120.805 249.318C120.777 249.318 120.751 249.311 120.726 249.299C120.716 249.253 120.716 249.206 120.726 249.16V247.056C120.716 247.01 120.716 246.963 120.726 246.917C120.751 246.905 120.777 246.898 120.805 246.898C120.832 246.898 120.859 246.905 120.883 246.917H121.31C121.576 246.922 121.84 246.864 122.081 246.747C122.322 246.631 122.535 246.46 122.702 246.246C123.107 245.758 123.316 245.13 123.286 244.489V239.008H126.137V244.974C126.135 245.363 126.097 245.75 126.025 246.131ZM123.129 253.948V251.288H126.025V253.948H123.129Z" fill="#E7BB4C" fill-opacity="0.6"/>
<path d="M141.339 249.437C140.719 249.48 140.098 249.377 139.523 249.137C138.947 248.896 138.432 248.525 138.016 248.05C137.66 248.502 137.207 248.863 136.693 249.104C136.179 249.345 135.617 249.459 135.052 249.437H128.024C128.024 249.437 127.889 249.437 127.867 249.437C127.857 249.392 127.857 249.344 127.867 249.299V247.194C127.857 247.148 127.857 247.101 127.867 247.055C127.867 247.055 127.867 247.055 128.024 247.055H130.067V239.146H132.941V247.055H134.199C134.465 247.06 134.729 247.002 134.97 246.886C135.211 246.769 135.424 246.598 135.591 246.385C135.996 245.897 136.204 245.268 136.175 244.627V239.146H139.049V245.228C139.059 245.52 139.148 245.802 139.307 246.044C139.466 246.285 139.688 246.475 139.947 246.593C140.539 246.9 141.193 247.058 141.855 247.055H143.135V238.267H145.987V249.576L141.339 249.437Z" fill="#E7BB4C" fill-opacity="0.6"/>
<path d="M152.202 246.477C152.355 246.632 152.538 246.751 152.739 246.827C152.941 246.903 153.156 246.934 153.369 246.917H153.796C153.82 246.905 153.847 246.898 153.875 246.898C153.902 246.898 153.929 246.905 153.953 246.917C153.963 246.963 153.963 247.01 153.953 247.056V249.16C153.963 249.206 153.963 249.253 153.953 249.299C153.929 249.311 153.902 249.318 153.875 249.318C153.847 249.318 153.82 249.311 153.796 249.299H152.516C152.024 249.33 151.531 249.249 151.073 249.061C150.615 248.873 150.203 248.583 149.867 248.212C149.225 247.371 148.899 246.32 148.946 245.252V233.18H151.798V244.743C151.75 245.045 151.761 245.354 151.831 245.652C151.9 245.95 152.026 246.23 152.202 246.477Z" fill="#E7BB4C" fill-opacity="0.6"/>
<path d="M162.278 239.771C163.223 240.409 163.947 241.34 164.344 242.43L165.444 245.344C165.63 245.831 165.97 246.239 166.41 246.5C166.813 246.764 167.279 246.908 167.757 246.917C167.757 246.917 167.891 246.917 167.914 246.917C167.924 246.962 167.924 247.01 167.914 247.056V249.16C167.924 249.206 167.924 249.253 167.914 249.299C167.914 249.299 167.914 249.299 167.757 249.299C166.997 249.362 166.233 249.262 165.514 249.003C164.795 248.744 164.136 248.333 163.58 247.796C162.646 248.303 161.649 248.677 160.616 248.906C159.565 249.168 158.487 249.3 157.406 249.299H153.79C153.762 249.312 153.732 249.318 153.701 249.318C153.67 249.318 153.639 249.312 153.611 249.299C153.601 249.253 153.601 249.206 153.611 249.16V247.056C153.601 247.01 153.601 246.962 153.611 246.917C153.639 246.904 153.67 246.897 153.701 246.897C153.732 246.897 153.762 246.904 153.79 246.917H157.45C158.381 246.927 159.311 246.872 160.235 246.755C161.08 246.654 161.91 246.444 162.705 246.13L161.762 243.818C161.511 243.166 161.072 242.609 160.504 242.222C159.905 241.839 159.21 241.646 158.506 241.667C157.731 241.671 156.965 241.845 156.26 242.176L155.227 239.863C156.402 239.218 157.714 238.884 159.045 238.892C160.181 238.867 161.302 239.171 162.278 239.771Z" fill="#E7BB4C" fill-opacity="0.6"/>
<path d="M175.952 239.493C176.77 239.924 177.449 240.591 177.905 241.412C178.376 242.248 178.616 243.199 178.602 244.164C178.493 245.981 178.083 247.764 177.389 249.437H167.756C167.756 249.437 167.622 249.437 167.599 249.437C167.589 249.416 167.584 249.392 167.584 249.368C167.584 249.344 167.589 249.32 167.599 249.299V247.194C167.589 247.172 167.584 247.149 167.584 247.125C167.584 247.101 167.589 247.077 167.599 247.055C167.599 247.055 167.599 247.055 167.756 247.055H168.991V239.354C170.335 239.117 171.693 238.978 173.055 238.938C174.051 238.872 175.046 239.063 175.952 239.493ZM171.843 241.459V246.916H175.233C175.489 246.038 175.625 245.128 175.638 244.211C175.638 242.291 174.807 241.32 173.145 241.32C172.708 241.321 172.271 241.368 171.843 241.459Z" fill="#E7BB4C" fill-opacity="0.6"/>
<path d="M194.448 239.216V249.438H191.596V241.459C191.167 241.372 190.731 241.326 190.294 241.321C188.632 241.321 187.801 242.292 187.801 244.212C187.76 244.932 187.985 245.643 188.43 246.2C188.672 246.451 188.964 246.645 189.286 246.769C189.607 246.893 189.951 246.943 190.294 246.917H191.192L190.092 249.438H189.8C188.913 249.457 188.038 249.234 187.262 248.791C186.503 248.365 185.879 247.722 185.466 246.94C185.032 246.085 184.816 245.13 184.837 244.165C184.823 243.2 185.063 242.248 185.533 241.413C185.99 240.592 186.669 239.925 187.487 239.494C188.381 239.016 189.377 238.777 190.383 238.8C191.746 238.841 193.104 238.98 194.448 239.216Z" fill="#E7BB4C" fill-opacity="0.6"/>
<path d="M200.69 246.477C200.847 246.633 201.035 246.752 201.24 246.828C201.445 246.904 201.663 246.934 201.88 246.917H202.374C202.374 246.917 202.509 246.917 202.531 246.917C202.541 246.963 202.541 247.01 202.531 247.056V249.16C202.541 249.206 202.541 249.253 202.531 249.299C202.531 249.299 202.531 249.299 202.374 249.299H201.117C200.621 249.33 200.125 249.249 199.663 249.061C199.202 248.873 198.786 248.584 198.445 248.212C197.803 247.371 197.477 246.32 197.524 245.252V233.18H200.398V244.743C200.284 245.338 200.388 245.956 200.69 246.477Z" fill="#E7BB4C" fill-opacity="0.6"/>
<path d="M209.801 239.841C211.267 239.742 212.719 240.194 213.887 241.113C214.362 241.577 214.733 242.142 214.974 242.769C215.214 243.396 215.319 244.07 215.28 244.743C215.267 245.577 215.131 246.404 214.875 247.195C214.674 247.989 214.404 248.763 214.067 249.508H202.346C202.346 249.508 202.211 249.508 202.189 249.508C202.179 249.486 202.174 249.462 202.174 249.438C202.174 249.414 202.179 249.39 202.189 249.369V247.264C202.179 247.243 202.174 247.219 202.174 247.195C202.174 247.171 202.179 247.147 202.189 247.125C202.189 247.125 202.189 247.125 202.346 247.125H212.114C212.338 246.502 212.467 245.847 212.495 245.183C212.534 244.807 212.483 244.427 212.346 244.076C212.209 243.725 211.99 243.414 211.709 243.171C211.032 242.757 210.251 242.556 209.464 242.593H204.412L203.312 240.049L209.06 233.527H212.54L206.253 240.049L209.801 239.841Z" fill="#E7BB4C" fill-opacity="0.6"/>
<path d="M223.392 247.009V247.125V249.229C223.402 249.275 223.402 249.322 223.392 249.368C223.368 249.38 223.341 249.387 223.313 249.387C223.286 249.387 223.259 249.38 223.235 249.368C222.501 249.355 221.785 249.131 221.169 248.72C221.283 250.176 220.84 251.62 219.934 252.744C219.08 253.638 217.938 254.181 216.723 254.271L215.578 251.657C216.117 251.589 216.646 251.449 217.15 251.241C217.529 251.081 217.84 250.785 218.026 250.409C218.228 249.903 218.32 249.359 218.295 248.813V238.915H221.169V245.853C221.416 246.165 221.733 246.41 222.093 246.567C222.453 246.724 222.845 246.789 223.235 246.755C223.266 246.748 223.298 246.752 223.327 246.765C223.356 246.777 223.381 246.799 223.398 246.827C223.415 246.854 223.423 246.886 223.422 246.919C223.421 246.951 223.411 246.983 223.392 247.009Z" fill="#E7BB4C" fill-opacity="0.6"/>
<path d="M236.566 249.438C235.943 249.481 235.319 249.378 234.74 249.138C234.161 248.898 233.641 248.526 233.221 248.051C232.868 248.5 232.418 248.859 231.908 249.1C231.398 249.34 230.84 249.456 230.279 249.438H223.251C223.223 249.451 223.192 249.457 223.162 249.457C223.131 249.457 223.1 249.451 223.072 249.438C223.062 249.392 223.062 249.345 223.072 249.299V247.195C223.062 247.149 223.062 247.102 223.072 247.056C223.1 247.043 223.131 247.037 223.162 247.037C223.192 247.037 223.223 247.043 223.251 247.056H225.295V239.147H228.146V247.056H229.314C229.583 247.061 229.851 247.003 230.095 246.887C230.34 246.771 230.557 246.599 230.729 246.385C231.133 245.897 231.342 245.269 231.312 244.628V239.147H234.164V245.229C234.183 245.521 234.279 245.802 234.441 246.042C234.603 246.283 234.826 246.473 235.085 246.594C235.676 246.901 236.33 247.059 236.993 247.056H238.295V238.268H241.147V249.577L236.566 249.438ZM229.314 237.227V234.568H232.255V237.227H229.314ZM231.559 233.712V231.399H234.209V233.712H231.559ZM233.49 237.227V234.568H236.432V237.227H233.49Z" fill="#E7BB4C" fill-opacity="0.6"/>
<path d="M252.981 239.216V248.629C253.029 249.712 252.796 250.79 252.307 251.751C251.913 252.516 251.291 253.132 250.534 253.508C249.644 253.936 248.698 254.224 247.727 254.364L246.582 251.751C247.264 251.673 247.936 251.51 248.58 251.265C249.042 251.091 249.441 250.776 249.725 250.363C250.001 249.864 250.133 249.295 250.107 248.721V241.459C249.678 241.371 249.242 241.325 248.805 241.321C247.143 241.321 246.312 242.292 246.312 244.212C246.268 244.937 246.502 245.651 246.963 246.2C247.197 246.456 247.485 246.654 247.804 246.778C248.123 246.902 248.465 246.95 248.805 246.917H249.703L248.602 249.438H248.311C247.424 249.458 246.548 249.234 245.773 248.791C245.022 248.361 244.407 247.719 243.999 246.94C243.559 246.087 243.335 245.132 243.348 244.165C243.334 243.2 243.574 242.249 244.044 241.413C244.514 240.602 245.189 239.938 245.998 239.494C246.898 239.013 247.903 238.774 248.917 238.8C250.279 238.842 251.637 238.981 252.981 239.216Z" fill="#E7BB4C" fill-opacity="0.6"/>
<path d="M274.635 239.215V253.091H265.227C264.574 253.171 263.912 253.101 263.288 252.888C262.664 252.675 262.093 252.323 261.615 251.857C261.138 251.392 260.765 250.824 260.524 250.194C260.283 249.564 260.179 248.888 260.22 248.212V244.118H262.981V247.749C262.981 249.645 263.992 250.594 265.99 250.594H271.806V241.343C271.369 241.256 270.926 241.209 270.481 241.204C268.819 241.204 268.011 242.176 268.011 244.095C267.97 244.816 268.195 245.526 268.64 246.084C268.879 246.332 269.167 246.524 269.485 246.648C269.803 246.771 270.142 246.824 270.481 246.801H271.402L270.279 249.322H270.009C269.116 249.339 268.234 249.115 267.45 248.674C266.699 248.245 266.083 247.603 265.676 246.824C265.242 245.969 265.026 245.014 265.047 244.049C265.035 243.087 265.267 242.138 265.721 241.297C266.19 240.486 266.865 239.822 267.674 239.377C268.577 238.902 269.58 238.664 270.593 238.683C271.951 238.764 273.301 238.941 274.635 239.215ZM266.888 237.227V234.567H269.83V237.227H266.888ZM270.975 237.227V234.567H273.916V237.227H270.975Z" fill="#E7BB4C" fill-opacity="0.6"/>
<path d="M279.898 252.837C279.053 253.731 277.918 254.274 276.71 254.363L275.564 251.75C276.104 251.682 276.632 251.542 277.136 251.334C277.514 251.18 277.82 250.882 277.989 250.501C278.211 250.002 278.312 249.454 278.281 248.905V239.007H281.133V248.813C281.194 249.534 281.117 250.261 280.905 250.952C280.693 251.642 280.351 252.283 279.898 252.837ZM278.214 237.226V234.567H281.155V237.226H278.214Z" fill="#E7BB4C" fill-opacity="0.6"/>
<path d="M286.003 252.837C285.148 253.731 284.007 254.274 282.792 254.364L281.646 251.75C282.186 251.682 282.714 251.542 283.218 251.334C283.598 251.174 283.909 250.878 284.094 250.502C284.296 249.996 284.388 249.452 284.363 248.906V239.008H287.237V248.813C287.351 250.269 286.908 251.713 286.003 252.837Z" fill="#E7BB4C" fill-opacity="0.6"/>
<path d="M303.408 246.616C303.852 246.846 304.348 246.95 304.845 246.917C304.869 246.905 304.896 246.898 304.923 246.898C304.951 246.898 304.978 246.905 305.002 246.917C305.012 246.963 305.012 247.01 305.002 247.056V249.16C305.012 249.206 305.012 249.253 305.002 249.299C304.978 249.311 304.951 249.318 304.923 249.318C304.896 249.318 304.869 249.311 304.845 249.299C303.912 249.332 302.981 249.215 302.083 248.952C301.471 248.761 300.931 248.382 300.534 247.865C299.399 248.782 298.001 249.286 296.559 249.299H294.067L292.967 246.778H296.133C297.388 246.837 298.636 246.549 299.748 245.946L297.031 238.661H300.107L302.644 245.599C302.781 246.017 303.05 246.375 303.408 246.616Z" fill="#E7BB4C" fill-opacity="0.6"/>
<path d="M312.91 239.494C313.719 239.938 314.394 240.602 314.863 241.413C315.334 242.248 315.574 243.2 315.559 244.165C315.567 244.901 315.437 245.631 315.178 246.316C315.698 246.744 316.354 246.958 317.019 246.917C317.047 246.905 317.078 246.898 317.109 246.898C317.14 246.898 317.17 246.905 317.199 246.917C317.209 246.963 317.209 247.01 317.199 247.056V249.161C317.209 249.206 317.209 249.254 317.199 249.299C317.17 249.312 317.14 249.319 317.109 249.319C317.078 249.319 317.047 249.312 317.019 249.299C316.507 249.288 316.003 249.17 315.537 248.952C314.982 248.721 314.484 248.365 314.078 247.912C313.616 248.369 313.07 248.728 312.473 248.966C311.875 249.204 311.238 249.318 310.597 249.299H304.714C304.686 249.312 304.655 249.319 304.624 249.319C304.594 249.319 304.563 249.312 304.535 249.299C304.525 249.254 304.525 249.206 304.535 249.161V247.056C304.525 247.01 304.525 246.963 304.535 246.917C304.563 246.905 304.594 246.898 304.624 246.898C304.655 246.898 304.686 246.905 304.714 246.917H305.927V239.216C307.27 238.98 308.628 238.841 309.991 238.8C311.005 238.777 312.008 239.015 312.91 239.494ZM308.801 241.459V246.917H310.126C310.465 246.95 310.808 246.902 311.127 246.778C311.446 246.653 311.733 246.456 311.967 246.2C312.42 245.646 312.653 244.935 312.618 244.211C312.618 242.292 311.787 241.321 310.126 241.321C309.681 241.321 309.237 241.367 308.801 241.459Z" fill="#E7BB4C" fill-opacity="0.6"/>
<path d="M325.537 239.771C326.488 240.408 327.219 241.339 327.625 242.431L328.725 245.345C328.905 245.828 329.237 246.235 329.668 246.501C330.081 246.762 330.554 246.906 331.038 246.918C331.062 246.905 331.089 246.899 331.117 246.899C331.144 246.899 331.171 246.905 331.195 246.918C331.205 246.963 331.205 247.011 331.195 247.056V249.161C331.205 249.206 331.205 249.254 331.195 249.3C331.171 249.312 331.144 249.318 331.117 249.318C331.089 249.318 331.062 249.312 331.038 249.3C330.278 249.366 329.514 249.267 328.794 249.008C328.074 248.749 327.416 248.336 326.862 247.796C325.92 248.304 324.915 248.678 323.875 248.906C322.824 249.171 321.746 249.303 320.664 249.3H317.049C317.025 249.312 316.998 249.318 316.971 249.318C316.943 249.318 316.917 249.312 316.892 249.3C316.882 249.254 316.882 249.206 316.892 249.161V247.056C316.882 247.011 316.882 246.963 316.892 246.918C316.917 246.905 316.943 246.899 316.971 246.899C316.998 246.899 317.025 246.905 317.049 246.918H320.664C321.602 246.928 322.54 246.874 323.471 246.756C324.31 246.657 325.132 246.447 325.919 246.131L324.975 243.819C324.74 243.164 324.307 242.605 323.74 242.223C323.141 241.842 322.446 241.65 321.742 241.668C320.967 241.672 320.202 241.845 319.497 242.177L318.464 239.864C319.637 239.216 320.95 238.882 322.281 238.893C323.426 238.858 324.556 239.163 325.537 239.771Z" fill="#E7BB4C" fill-opacity="0.6"/>
<path d="M339.328 239.493C340.141 239.932 340.818 240.597 341.281 241.413C341.752 242.248 341.992 243.2 341.977 244.165C341.87 245.984 341.452 247.769 340.742 249.438H331.02C331.02 249.438 330.885 249.438 330.863 249.438C330.853 249.416 330.848 249.392 330.848 249.368C330.848 249.344 330.853 249.321 330.863 249.299V247.195C330.853 247.173 330.848 247.149 330.848 247.125C330.848 247.101 330.853 247.077 330.863 247.056C330.863 247.056 330.863 247.056 331.02 247.056H332.232V239.355C333.584 239.118 334.949 238.979 336.319 238.938C337.352 238.853 338.388 239.044 339.328 239.493ZM335.219 241.459V246.917H338.609C338.865 246.039 339.001 245.128 339.014 244.211C339.014 242.292 338.183 241.32 336.521 241.32C336.046 241.314 335.572 241.36 335.107 241.459H335.219Z" fill="#E7BB4C" fill-opacity="0.6"/>
<path d="M0.00698993 164.679C-0.00807689 164.572 0.00129308 164.463 0.0343308 164.36C0.0673686 164.258 0.123165 164.165 0.197297 164.089C0.271429 164.012 0.361838 163.955 0.461335 163.921C0.560833 163.887 0.666678 163.877 0.770428 163.893H7.50657C7.77444 163.858 8.0458 163.917 8.27763 164.059C8.50947 164.202 8.68853 164.42 8.78644 164.679L22.9099 197.241H23.2018L37.1007 164.679C37.1986 164.42 37.3777 164.202 37.6095 164.059C37.8413 163.917 38.1127 163.858 38.3806 163.893H45.1167C45.2204 163.877 45.3263 163.887 45.4258 163.921C45.5253 163.955 45.6157 164.012 45.6898 164.089C45.7639 164.165 45.8198 164.258 45.8528 164.36C45.8858 164.463 45.8952 164.572 45.8801 164.679V215.974C45.8952 216.08 45.8858 216.189 45.8528 216.292C45.8198 216.394 45.7639 216.488 45.6898 216.564C45.6157 216.64 45.5253 216.698 45.4258 216.732C45.3263 216.766 45.2204 216.775 45.1167 216.76H38.4479C38.3459 216.772 38.2426 216.759 38.146 216.723C38.0495 216.687 37.9621 216.629 37.8906 216.554C37.8191 216.478 37.7654 216.386 37.7336 216.286C37.7017 216.185 37.6926 216.078 37.7069 215.974V183.596H37.3926L26.5249 208.457C26.4177 208.76 26.2217 209.02 25.9642 209.203C25.7066 209.385 25.4004 209.48 25.0879 209.475H20.5971C20.2854 209.477 19.9806 209.38 19.7237 209.198C19.4668 209.016 19.2701 208.758 19.1601 208.457L8.38227 183.643H8.09037V216.02C8.10544 216.127 8.09607 216.236 8.06303 216.338C8.02999 216.441 7.9742 216.534 7.90007 216.61C7.82593 216.687 7.73552 216.744 7.63603 216.778C7.53653 216.812 7.43069 216.822 7.32693 216.806H0.770428C0.666678 216.822 0.560833 216.812 0.461335 216.778C0.361838 216.744 0.271429 216.687 0.197297 216.61C0.123165 216.534 0.0673686 216.441 0.0343308 216.338C0.00129308 216.236 -0.00807689 216.127 0.00698993 216.02V164.679Z" fill="#E7BB4C" fill-opacity="0.6"/>
<path d="M70.0509 174.322H69.8937L62.0574 179.988C61.496 180.358 61.2266 180.197 61.2266 179.526V171.594C61.2283 171.382 61.2779 171.173 61.3714 170.985C61.465 170.796 61.5999 170.632 61.7654 170.507L69.8937 164.447C70.2756 164.134 70.7529 163.97 71.241 163.985H77.6627C77.7665 163.969 77.8723 163.979 77.9718 164.013C78.0713 164.047 78.1617 164.105 78.2359 164.181C78.31 164.257 78.3658 164.35 78.3988 164.453C78.4319 164.555 78.4413 164.664 78.4262 164.771V216.066C78.4367 216.172 78.4242 216.279 78.3896 216.379C78.355 216.48 78.2991 216.571 78.2259 216.646C78.1528 216.721 78.0643 216.779 77.9669 216.815C77.8695 216.85 77.7656 216.863 77.6627 216.852H70.8143C70.7106 216.868 70.6048 216.858 70.5053 216.824C70.4058 216.79 70.3153 216.733 70.2412 216.656C70.1671 216.58 70.1113 216.487 70.0782 216.384C70.0452 216.282 70.0358 216.173 70.0509 216.066V174.322Z" fill="#E7BB4C" fill-opacity="0.6"/>
<path d="M116.159 204.85C115.898 204.038 115.68 203.212 115.508 202.375C115.31 201.422 115.175 200.456 115.104 199.484C115.104 198.397 114.924 197.172 114.879 195.645C114.834 194.119 114.879 192.407 114.879 190.326C114.879 188.245 114.879 186.487 114.879 185.007C114.879 183.527 114.879 182.232 115.104 181.145C115.177 180.181 115.312 179.223 115.508 178.277C115.683 177.434 115.9 176.6 116.159 175.779C117.254 171.896 119.638 168.532 122.895 166.274C126.367 164.033 130.408 162.906 134.504 163.037C136.731 163.013 138.948 163.332 141.083 163.985C142.913 164.508 144.666 165.286 146.292 166.298C147.738 167.263 149.014 168.475 150.064 169.882C150.992 171.184 151.747 172.607 152.31 174.114C152.361 174.206 152.393 174.308 152.404 174.413C152.416 174.519 152.407 174.625 152.377 174.727C152.348 174.828 152.299 174.923 152.234 175.004C152.168 175.086 152.087 175.153 151.995 175.201L145.731 178.323C145.641 178.365 145.544 178.389 145.445 178.392C145.347 178.395 145.249 178.377 145.157 178.341C145.065 178.304 144.981 178.249 144.91 178.178C144.838 178.108 144.782 178.024 144.743 177.93C143.756 175.999 142.34 174.335 140.611 173.074C138.755 171.887 136.597 171.299 134.414 171.385C132.189 171.278 129.99 171.919 128.15 173.212C126.535 174.515 125.35 176.3 124.759 178.323C124.586 178.854 124.444 179.395 124.332 179.942C124.195 180.707 124.098 181.479 124.04 182.255C124.04 183.18 123.906 184.313 123.883 185.631C123.861 186.95 123.883 188.545 123.883 190.419C123.883 192.292 123.883 193.864 123.883 195.206C123.883 196.547 123.883 197.518 124.04 198.582C124.098 199.358 124.195 200.13 124.332 200.895C124.447 201.442 124.589 201.982 124.759 202.514C125.352 204.53 126.536 206.307 128.15 207.602C129.986 208.904 132.188 209.547 134.414 209.429C136.539 209.466 138.632 208.889 140.454 207.764C142.222 206.632 143.537 204.884 144.159 202.838C144.434 201.885 144.629 200.91 144.743 199.924C144.916 198.621 144.998 197.307 144.99 195.992C144.99 195.668 144.833 195.53 144.518 195.53H136.076C135.972 195.545 135.866 195.535 135.767 195.501C135.667 195.467 135.577 195.41 135.503 195.334C135.428 195.257 135.373 195.164 135.34 195.062C135.307 194.959 135.297 194.85 135.312 194.743V188.522C135.301 188.417 135.313 188.311 135.348 188.211C135.383 188.112 135.439 188.022 135.513 187.948C135.586 187.875 135.675 187.819 135.773 187.786C135.871 187.754 135.974 187.744 136.076 187.759H152.961C153.477 187.759 153.724 188.013 153.724 188.522V193.148C153.724 195.321 153.724 197.449 153.41 199.554C153.275 201.299 152.975 203.026 152.512 204.711C151.419 208.62 149.037 212.014 145.776 214.308C142.389 216.628 138.39 217.816 134.324 217.708C130.229 217.838 126.188 216.711 122.716 214.47C119.503 212.154 117.182 208.749 116.159 204.85Z" fill="#E7BB4C" fill-opacity="0.6"/>
<path d="M228.292 217.639C224.262 217.747 220.292 216.621 216.886 214.401C213.628 212.134 211.244 208.762 210.149 204.873C209.902 204.064 209.7 203.231 209.521 202.398C209.325 201.444 209.183 200.479 209.094 199.508C209.094 198.421 208.914 197.195 208.87 195.669C208.825 194.142 208.87 192.431 208.87 190.349C208.87 188.268 208.87 186.51 208.87 185.03C208.87 183.55 209.004 182.255 209.094 181.168C209.185 180.205 209.327 179.248 209.521 178.301C209.7 177.468 209.902 176.635 210.149 175.803C211.253 171.924 213.635 168.562 216.886 166.298C220.349 164.185 224.301 163.071 228.326 163.071C232.351 163.071 236.302 164.185 239.766 166.298C243.024 168.555 245.408 171.919 246.502 175.803C246.754 176.624 246.964 177.457 247.131 178.301C247.325 179.248 247.467 180.205 247.557 181.168C247.557 182.255 247.737 183.481 247.782 185.03C247.827 186.58 247.782 188.268 247.782 190.349C247.782 192.431 247.782 194.189 247.782 195.669C247.782 197.149 247.647 198.421 247.557 199.508C247.469 200.479 247.326 201.444 247.131 202.398C246.966 203.235 246.756 204.061 246.502 204.873C245.414 208.766 243.029 212.14 239.766 214.401C236.338 216.63 232.344 217.757 228.292 217.639ZM228.292 209.383C230.425 209.557 232.549 208.96 234.3 207.693C236.05 206.427 237.317 204.57 237.88 202.445C238.015 201.982 238.149 201.427 238.262 200.826C238.374 200.225 238.441 199.415 238.509 198.513C238.576 197.611 238.643 196.455 238.711 195.137C238.778 193.818 238.711 192.223 238.711 190.349C238.711 188.476 238.711 186.88 238.711 185.562C238.711 184.244 238.598 183.111 238.509 182.186C238.419 181.261 238.351 180.474 238.262 179.873C238.163 179.327 238.036 178.786 237.88 178.254C237.317 176.129 236.05 174.272 234.3 173.006C232.549 171.739 230.425 171.142 228.292 171.316C226.101 171.207 223.938 171.849 222.14 173.143C220.546 174.462 219.373 176.242 218.772 178.254C218.637 178.717 218.502 179.249 218.368 179.873C218.221 180.637 218.116 181.41 218.053 182.186C218.053 183.111 217.941 184.244 217.918 185.562C217.896 186.88 217.918 188.476 217.918 190.349C217.918 192.223 217.918 193.795 217.918 195.137C217.918 196.478 217.918 197.449 218.053 198.513C218.116 199.289 218.221 200.062 218.368 200.826C218.502 201.427 218.637 201.982 218.772 202.445C219.373 204.451 220.547 206.223 222.14 207.533C223.933 208.836 226.1 209.48 228.292 209.36V209.383Z" fill="#E7BB4C" fill-opacity="0.6"/>
<path d="M276.21 209.359C277.548 209.411 278.882 209.18 280.13 208.678C281.378 208.177 282.512 207.417 283.462 206.445C284.443 205.301 285.194 203.967 285.671 202.523C286.149 201.078 286.345 199.55 286.246 198.027V164.678C286.231 164.571 286.241 164.462 286.274 164.36C286.307 164.258 286.363 164.164 286.437 164.088C286.511 164.012 286.601 163.954 286.701 163.92C286.8 163.886 286.906 163.877 287.01 163.892H294.42C294.523 163.877 294.629 163.886 294.729 163.92C294.828 163.954 294.919 164.012 294.993 164.088C295.067 164.164 295.123 164.258 295.156 164.36C295.189 164.462 295.198 164.571 295.183 164.678V198.166C295.223 200.972 294.735 203.76 293.746 206.376C292.872 208.666 291.529 210.736 289.809 212.444C288.088 214.152 286.031 215.458 283.776 216.274C281.362 217.19 278.805 217.645 276.232 217.615C273.673 217.647 271.131 217.192 268.732 216.274C266.513 215.439 264.481 214.148 262.76 212.481C261.035 210.759 259.687 208.678 258.808 206.376C257.808 203.763 257.32 200.973 257.371 198.166V164.678C257.371 164.146 257.618 163.892 258.112 163.892H265.522C266.016 163.892 266.263 164.146 266.263 164.678V198.027C266.167 199.551 266.366 201.08 266.848 202.525C267.33 203.97 268.085 205.302 269.069 206.445C270.002 207.409 271.117 208.165 272.345 208.667C273.574 209.168 274.889 209.404 276.21 209.359Z" fill="#E7BB4C" fill-opacity="0.6"/>
<path d="M306.936 216.759C306.833 216.775 306.727 216.765 306.627 216.731C306.528 216.697 306.437 216.64 306.363 216.563C306.289 216.487 306.233 216.394 306.2 216.291C306.167 216.189 306.158 216.08 306.173 215.973V164.678C306.158 164.571 306.167 164.462 306.2 164.36C306.233 164.258 306.289 164.164 306.363 164.088C306.437 164.012 306.528 163.954 306.627 163.92C306.727 163.886 306.833 163.877 306.936 163.892H326.179C328.476 163.886 330.755 164.293 332.915 165.095C334.903 165.834 336.727 166.974 338.282 168.448C339.778 169.894 340.957 171.652 341.74 173.605C342.591 175.723 343.019 177.997 342.997 180.289C343.025 182.612 342.597 184.916 341.74 187.065C340.957 189.018 339.778 190.777 338.282 192.222C336.727 193.696 334.903 194.836 332.915 195.575C330.758 196.388 328.477 196.796 326.179 196.778H315.536C315.476 196.771 315.414 196.777 315.356 196.798C315.298 196.819 315.246 196.853 315.203 196.897C315.159 196.942 315.127 196.996 315.107 197.055C315.087 197.115 315.08 197.178 315.087 197.241V215.973C315.102 216.08 315.093 216.189 315.06 216.291C315.027 216.394 314.971 216.487 314.897 216.563C314.823 216.64 314.732 216.697 314.633 216.731C314.533 216.765 314.427 216.775 314.324 216.759H306.936ZM325.64 188.452C326.781 188.51 327.921 188.335 328.996 187.938C330.071 187.541 331.06 186.93 331.905 186.14C333.362 184.534 334.172 182.418 334.172 180.219C334.172 178.021 333.362 175.905 331.905 174.299C331.062 173.505 330.074 172.892 328.998 172.495C327.923 172.098 326.781 171.925 325.64 171.986H315.536C315.473 171.978 315.41 171.985 315.35 172.007C315.29 172.029 315.236 172.065 315.192 172.112C315.149 172.159 315.116 172.217 315.098 172.279C315.08 172.342 315.076 172.408 315.087 172.472V187.851C315.08 187.914 315.087 187.977 315.107 188.037C315.127 188.096 315.159 188.15 315.203 188.195C315.246 188.239 315.298 188.273 315.356 188.294C315.414 188.314 315.476 188.321 315.536 188.314L325.64 188.452Z" fill="#E7BB4C" fill-opacity="0.6"/>
</svg>
