<svg width="329" height="229" viewBox="0 0 379 274" fill="none" xmlns="http://www.w3.org/2000/svg">
<g style="mix-blend-mode:multiply">
<path d="M212.995 233.083C212.724 233.102 212.454 233.029 212.229 232.875C212.004 232.722 211.837 232.498 211.754 232.238L200.912 210.091H191.137C191.068 210.082 190.997 210.09 190.931 210.113C190.865 210.137 190.805 210.175 190.757 210.226C190.709 210.277 190.673 210.339 190.653 210.406C190.633 210.473 190.629 210.544 190.641 210.613V232.238C190.657 232.351 190.647 232.465 190.611 232.573C190.576 232.681 190.517 232.78 190.438 232.862C190.359 232.943 190.262 233.005 190.156 233.044C190.049 233.082 189.935 233.096 189.822 233.083H181.635C181.522 233.096 181.408 233.082 181.301 233.044C181.194 233.005 181.098 232.943 181.019 232.862C180.94 232.78 180.88 232.681 180.845 232.573C180.81 232.465 180.8 232.351 180.816 232.238V177.106C180.816 176.535 181.089 176.261 181.635 176.261H203.567C206.031 176.236 208.478 176.666 210.787 177.529C212.891 178.307 214.828 179.479 216.493 180.984C218.122 182.476 219.415 184.298 220.289 186.328C221.219 188.503 221.683 190.848 221.654 193.213C221.744 196.672 220.727 200.069 218.751 202.907C216.802 205.641 214.067 207.713 210.911 208.848L222.845 231.99C222.919 232.096 222.961 232.22 222.969 232.35C222.976 232.479 222.947 232.607 222.885 232.721C222.823 232.835 222.731 232.929 222.618 232.993C222.506 233.057 222.378 233.088 222.249 233.083H212.995ZM203.244 201.242C205.543 201.352 207.797 200.579 209.546 199.08C211.06 197.493 211.905 195.383 211.905 193.189C211.905 190.994 211.06 188.884 209.546 187.298C207.8 185.792 205.546 185.01 203.244 185.11H191.137C191.068 185.101 190.997 185.109 190.931 185.132C190.865 185.156 190.805 185.195 190.757 185.245C190.709 185.296 190.673 185.358 190.653 185.425C190.633 185.492 190.629 185.563 190.641 185.632V200.745C190.633 200.812 190.64 200.88 190.662 200.944C190.684 201.008 190.721 201.066 190.768 201.114C190.816 201.162 190.874 201.198 190.938 201.221C191.002 201.243 191.07 201.25 191.137 201.242H203.244Z" fill="#E7BB4C" fill-opacity="0.6"/>
<path d="M212.982 32.3911H227.074V106.787H211.196V57.0737L187.328 87.523L163.485 57.2725V106.787H147.557V32.3911H161.897L187.328 64.7046L212.982 32.3911ZM243.449 111.062V120.16C243.417 122.015 242.662 123.784 241.345 125.089C240.029 126.394 238.255 127.132 236.403 127.144H139.245C137.37 127.144 135.572 126.398 134.245 125.069C132.919 123.741 132.174 121.939 132.174 120.06V22.7468C132.194 20.8809 132.948 19.0982 134.272 17.7857C135.596 16.4733 137.383 15.7371 139.245 15.7373H236.378C238.239 15.7436 240.022 16.4818 241.345 17.7928C242.667 19.1039 243.423 20.883 243.449 22.7468V25.5556H258.633V15.613C258.626 11.6025 257.032 7.75859 254.199 4.9251C251.366 2.09162 247.526 0.500178 243.523 0.500184H132.1C130.11 0.49036 128.137 0.874662 126.295 1.631C124.453 2.38734 122.779 3.50081 121.368 4.90745C119.957 6.31408 118.837 7.98617 118.073 9.82763C117.309 11.6691 116.916 13.6436 116.916 15.6378V127.343C116.923 131.349 118.514 135.189 121.341 138.022C124.169 140.855 128.002 142.449 132.001 142.456H243.474C247.477 142.456 251.316 140.864 254.149 138.031C256.982 135.198 258.577 131.354 258.583 127.343V111.062H243.449ZM246.079 32.3911L245.657 33.2611C245.233 34.0776 244.707 34.8375 244.094 35.5231C243.263 36.5018 242.359 37.4159 241.39 38.2573C240.05 39.3025 238.561 40.1404 236.974 40.7429C234.971 41.5887 232.857 42.1412 230.697 42.3835V52.5747H243.449V103.158H258.633V32.3911H246.079Z" fill="#E7BB4C" fill-opacity="0.6"/>
<path d="M8.66528 272.232C7.94378 272.318 7.21241 272.243 6.52287 272.014C5.83334 271.785 5.20242 271.407 4.67472 270.906C4.14702 270.406 3.73539 269.796 3.46892 269.119C3.20244 268.442 3.08761 267.714 3.13255 266.988V262.588H6.28348V266.491C6.28348 268.529 7.39994 269.548 9.60807 269.548H12.238V257.12H15.4137V272.357L8.66528 272.232ZM7.42476 257.02V254.162H10.6749V257.02H7.42476Z" fill="#E7BB4C" fill-opacity="0.6"/>
<path d="M30.0824 265.595C30.0919 265.636 30.0919 265.679 30.0824 265.719V267.981C30.094 268.03 30.094 268.082 30.0824 268.131C30.0511 268.144 30.0173 268.151 29.9831 268.151C29.949 268.151 29.9152 268.144 29.8839 268.131H28.4697C28.4719 268.835 28.3249 269.531 28.0383 270.174C27.7517 270.816 27.3322 271.391 26.8074 271.859C25.5943 272.714 24.1871 273.253 22.7137 273.425L21.4483 270.616C22.2108 270.532 22.9605 270.357 23.6813 270.094C24.1888 269.914 24.6242 269.574 24.9218 269.125C25.2389 268.593 25.3861 267.978 25.3436 267.36V259.63C24.8697 259.535 24.3879 259.485 23.9046 259.48C22.0686 259.48 21.1506 260.524 21.1506 262.588C21.1122 263.366 21.3693 264.129 21.8701 264.725C22.1285 265 22.446 265.212 22.7986 265.346C23.1511 265.479 23.5293 265.531 23.9046 265.496H24.897L23.6813 268.205H23.3587C22.3796 268.222 21.413 267.982 20.5552 267.509C19.7255 267.048 19.0453 266.358 18.5951 265.521C18.1082 264.603 17.8607 263.577 17.8756 262.538C17.8713 261.502 18.1363 260.482 18.6448 259.58C19.1631 258.708 19.9095 257.995 20.8033 257.517C21.7996 257.003 22.9083 256.746 24.0286 256.771C25.5341 256.815 27.0347 256.965 28.5193 257.219V265.496H29.8839C29.9231 265.491 29.9629 265.497 29.9983 265.515C30.0336 265.533 30.0629 265.561 30.0824 265.595Z" fill="#E7BB4C" fill-opacity="0.6"/>
<path d="M40.0155 256.97C40.9056 257.368 41.6881 257.973 42.298 258.735C42.834 259.377 43.132 260.185 43.1416 261.022C43.1349 261.809 42.921 262.581 42.5213 263.259C42.085 264.056 41.4946 264.757 40.7846 265.322C41.7709 265.459 42.7664 265.517 43.7618 265.496C43.9355 265.496 44.0348 265.496 44.0348 265.745V267.957C44.0348 268.131 44.0348 268.206 43.7618 268.206C41.6001 268.238 39.4448 267.962 37.3608 267.385C34.9213 267.956 32.4225 268.231 29.9176 268.206C29.8841 268.21 29.8501 268.206 29.8182 268.195C29.7862 268.184 29.7572 268.166 29.7334 268.142C29.7095 268.118 29.6913 268.089 29.6803 268.057C29.6692 268.025 29.6655 267.991 29.6695 267.957V265.745C29.6655 265.711 29.6692 265.677 29.6803 265.645C29.6913 265.613 29.7095 265.584 29.7334 265.56C29.7572 265.536 29.7862 265.518 29.8182 265.507C29.8501 265.496 29.8841 265.492 29.9176 265.496C31.2116 265.521 32.5055 265.446 33.788 265.273C32.6247 263.852 31.5792 262.339 30.662 260.749L31.3566 257.816C32.3503 257.381 33.3694 257.008 34.4083 256.697C35.2797 256.448 36.1817 256.322 37.0878 256.324C38.0974 256.338 39.0934 256.558 40.0155 256.97ZM33.4655 260.252C33.9236 261.124 34.4548 261.955 35.0534 262.737C35.6464 263.541 36.3107 264.29 37.0382 264.974C37.8137 264.601 38.5188 264.097 39.1223 263.483C39.6525 262.985 39.9647 262.297 39.9907 261.569C39.9922 261.24 39.9055 260.916 39.7397 260.632C39.5739 260.348 39.3349 260.113 39.0479 259.953C38.3729 259.528 37.5874 259.311 36.7901 259.332C35.6295 259.4 34.4965 259.713 33.4655 260.252Z" fill="#E7BB4C" fill-opacity="0.6"/>
<path d="M52.9462 257.815C53.9976 258.5 54.8054 259.501 55.2535 260.674L56.4692 263.806C56.6754 264.298 57.0195 264.719 57.4598 265.019C57.9002 265.319 58.4179 265.485 58.9503 265.496L57.7098 268.205C57.1057 268.181 56.5138 268.029 55.973 267.758C55.3576 267.477 54.8017 267.081 54.3355 266.59C53.2929 267.131 52.1834 267.533 51.0357 267.783C49.8657 268.065 48.6664 268.206 47.4631 268.205H43.7911C43.7641 268.219 43.7344 268.225 43.7043 268.225C43.6742 268.225 43.6445 268.219 43.6174 268.205C43.6067 268.156 43.6067 268.105 43.6174 268.056V265.794C43.6067 265.745 43.6067 265.694 43.6174 265.645C43.6445 265.632 43.6742 265.625 43.7043 265.625C43.7344 265.625 43.7641 265.632 43.7911 265.645H47.5623C48.5988 265.656 49.6348 265.598 50.6636 265.471C51.5902 265.365 52.4992 265.14 53.3679 264.8L52.3259 262.314C52.0659 261.611 51.5876 261.01 50.9613 260.599C50.2985 260.19 49.5314 259.983 48.7532 260.003C47.8966 260.005 47.0505 260.191 46.2722 260.55L45.1309 258.064C46.4274 257.368 47.8776 257.009 49.3486 257.02C50.5989 256.938 51.8467 257.214 52.9462 257.815ZM47.8352 273.052V270.194H51.0854V273.052H47.8352Z" fill="#E7BB4C" fill-opacity="0.6"/>
<path d="M61.6387 268.205V250.806H64.8144V268.205H61.6387Z" fill="#E7BB4C" fill-opacity="0.6"/>
<path d="M74.4373 265.594V265.719V267.981C74.4481 268.03 74.4481 268.081 74.4373 268.13C74.4373 268.13 74.4373 268.13 74.2636 268.13C73.4535 268.112 72.6638 267.871 71.9811 267.434C72.0488 268.209 71.9632 268.99 71.729 269.732C71.4948 270.475 71.1168 271.163 70.6165 271.759C69.6724 272.72 68.4111 273.303 67.0686 273.399L65.8281 270.59C66.4232 270.514 67.0066 270.363 67.5648 270.143C67.9774 269.97 68.3127 269.652 68.5076 269.248C68.7406 268.707 68.8507 268.122 68.8302 267.533V256.895H71.9811V264.351C72.2541 264.687 72.6047 264.951 73.0025 265.12C73.4003 265.288 73.8332 265.358 74.2636 265.321C74.2636 265.321 74.4125 265.52 74.4373 265.594Z" fill="#E7BB4C" fill-opacity="0.6"/>
<path d="M83.3107 257.516C84.2147 257.98 84.9646 258.696 85.4692 259.579C85.9888 260.477 86.2547 261.5 86.2383 262.537C86.1189 264.489 85.6658 266.406 84.8985 268.205H74.2549C74.2549 268.205 74.106 268.205 74.0812 268.205C74.0702 268.181 74.0645 268.156 74.0645 268.13C74.0645 268.104 74.0702 268.079 74.0812 268.055V265.793C74.0702 265.77 74.0645 265.745 74.0645 265.719C74.0645 265.693 74.0702 265.668 74.0812 265.644C74.0812 265.644 74.0812 265.644 74.2549 265.644H75.6195V257.367C77.1039 257.112 78.6046 256.963 80.1101 256.92C81.2099 256.849 82.31 257.054 83.3107 257.516ZM78.7704 259.629V265.495H82.5167C82.7993 264.551 82.9496 263.572 82.9633 262.587C82.9633 260.524 82.0453 259.48 80.2094 259.48C79.726 259.482 79.2439 259.532 78.7704 259.629Z" fill="#E7BB4C" fill-opacity="0.6"/>
<path d="M99.0169 257.219V267.335C99.0773 268.498 98.829 269.656 98.2974 270.691C97.8523 271.515 97.1572 272.177 96.3126 272.58C95.3328 273.046 94.2865 273.356 93.2113 273.5L91.946 270.691C92.709 270.61 93.459 270.435 94.1789 270.169C94.6864 269.989 95.1218 269.649 95.4194 269.2C95.7452 268.671 95.9011 268.055 95.866 267.435V259.63C95.3919 259.536 94.9102 259.486 94.427 259.481C92.591 259.481 91.6731 260.525 91.6731 262.588C91.6277 263.363 91.8758 264.126 92.3677 264.725C92.6352 264.995 92.9577 265.204 93.3132 265.337C93.6686 265.47 94.0486 265.524 94.427 265.496H95.4194L94.1789 268.205H93.8812C92.894 268.224 91.9192 267.984 91.0528 267.509C90.2231 267.048 89.5429 266.358 89.0928 265.521C88.6134 264.601 88.3744 263.575 88.3981 262.538C88.3817 261.5 88.6476 260.478 89.1672 259.58C89.6695 258.704 90.4093 257.989 91.3009 257.517C92.2983 257.006 93.4062 256.75 94.5263 256.771C96.0317 256.815 97.5323 256.965 99.0169 257.219Z" fill="#E7BB4C" fill-opacity="0.6"/>
<path d="M112.485 272.232C111.716 272.3 110.942 272.201 110.215 271.944C109.487 271.687 108.823 271.277 108.267 270.741C107.376 269.698 106.907 268.359 106.952 266.988V262.588H110.103V266.491C110.103 268.529 111.22 269.548 113.428 269.548H116.058V257.12H119.233V272.357L112.485 272.232ZM111.244 257.02V254.162H114.445V257.02H111.244Z" fill="#E7BB4C" fill-opacity="0.6"/>
<path d="M133.795 265.595V265.719V267.981C133.806 268.031 133.806 268.081 133.795 268.131C133.764 268.144 133.73 268.151 133.696 268.151C133.662 268.151 133.628 268.144 133.597 268.131H132.183C132.185 268.835 132.038 269.531 131.751 270.174C131.465 270.816 131.045 271.391 130.52 271.859C129.307 272.714 127.9 273.253 126.427 273.425L125.161 270.616C125.924 270.532 126.673 270.357 127.394 270.094C127.902 269.914 128.337 269.574 128.635 269.125C128.96 268.596 129.116 267.98 129.081 267.36V259.63C128.599 259.536 128.109 259.486 127.617 259.48C125.781 259.48 124.864 260.524 124.864 262.588C124.825 263.366 125.082 264.129 125.583 264.725C125.841 265 126.159 265.212 126.511 265.346C126.864 265.479 127.242 265.531 127.617 265.496H128.61L127.394 268.205H127.072C126.093 268.22 125.127 267.98 124.268 267.509C123.438 267.048 122.758 266.358 122.308 265.521C121.821 264.603 121.574 263.577 121.589 262.538C121.584 261.502 121.849 260.482 122.358 259.58C122.876 258.708 123.622 257.995 124.516 257.517C125.512 257.003 126.621 256.746 127.742 256.771C129.247 256.815 130.748 256.965 132.232 257.219V265.496H133.597C133.636 265.491 133.676 265.497 133.711 265.515C133.747 265.533 133.776 265.561 133.795 265.595Z" fill="#E7BB4C" fill-opacity="0.6"/>
<path d="M139.252 264.651C139.518 264.961 139.857 265.2 140.238 265.347C140.619 265.495 141.03 265.546 141.435 265.496C141.435 265.496 141.584 265.496 141.609 265.496C141.62 265.519 141.626 265.545 141.626 265.57C141.626 265.596 141.62 265.622 141.609 265.645V267.907C141.62 267.93 141.626 267.956 141.626 267.981C141.626 268.007 141.62 268.033 141.609 268.056C141.609 268.056 141.609 268.056 141.435 268.056C140.881 268.041 140.334 267.923 139.823 267.708C139.227 267.451 138.688 267.079 138.235 266.614C137.838 267.087 137.34 267.462 136.776 267.712C136.213 267.962 135.6 268.08 134.985 268.056H133.57C133.543 268.069 133.514 268.076 133.484 268.076C133.453 268.076 133.424 268.069 133.397 268.056C133.386 268.007 133.386 267.956 133.397 267.907V265.645C133.386 265.596 133.386 265.545 133.397 265.496C133.424 265.483 133.453 265.476 133.484 265.476C133.514 265.476 133.543 265.483 133.57 265.496H134.042C134.336 265.501 134.628 265.438 134.894 265.313C135.161 265.189 135.395 265.004 135.58 264.775C136.027 264.251 136.258 263.575 136.225 262.886V256.995H139.376V263.408C139.373 263.825 139.331 264.241 139.252 264.651ZM136.051 273.052V270.194H139.252V273.052H136.051Z" fill="#E7BB4C" fill-opacity="0.6"/>
<path d="M156.172 268.205C155.487 268.25 154.801 268.14 154.165 267.881C153.529 267.623 152.959 267.224 152.5 266.713C152.107 267.2 151.607 267.588 151.038 267.847C150.47 268.105 149.849 268.228 149.225 268.205H141.459C141.459 268.205 141.31 268.205 141.285 268.205C141.275 268.156 141.275 268.105 141.285 268.056V265.794C141.275 265.744 141.275 265.694 141.285 265.644C141.285 265.644 141.285 265.644 141.459 265.644H143.717V257.144H146.893V265.644H148.282C148.576 265.649 148.868 265.587 149.134 265.462C149.401 265.337 149.635 265.153 149.82 264.924C150.267 264.399 150.498 263.724 150.465 263.035V257.144H153.641V263.681C153.652 263.994 153.751 264.298 153.926 264.557C154.102 264.817 154.347 265.021 154.633 265.147C155.287 265.477 156.01 265.648 156.742 265.644H158.156V256.199H161.307V268.354L156.172 268.205Z" fill="#E7BB4C" fill-opacity="0.6"/>
<path d="M168.177 265.023C168.346 265.19 168.548 265.318 168.771 265.399C168.993 265.481 169.231 265.514 169.467 265.496H169.938C169.965 265.482 169.995 265.476 170.025 265.476C170.055 265.476 170.085 265.482 170.112 265.496C170.123 265.545 170.123 265.596 170.112 265.645V267.907C170.123 267.956 170.123 268.007 170.112 268.056C170.085 268.069 170.055 268.076 170.025 268.076C169.995 268.076 169.965 268.069 169.938 268.056H168.524C167.98 268.089 167.436 268.002 166.93 267.8C166.424 267.598 165.968 267.286 165.596 266.888C164.888 265.983 164.527 264.854 164.579 263.706V250.731H167.73V263.159C167.678 263.484 167.69 263.816 167.767 264.136C167.843 264.456 167.983 264.758 168.177 265.023Z" fill="#E7BB4C" fill-opacity="0.6"/>
<path d="M179.309 257.815C180.354 258.501 181.154 259.502 181.592 260.673L182.808 263.805C183.013 264.328 183.389 264.767 183.875 265.048C184.321 265.331 184.835 265.486 185.363 265.496C185.363 265.496 185.512 265.496 185.537 265.496C185.548 265.545 185.548 265.596 185.537 265.645V267.907C185.548 267.956 185.548 268.007 185.537 268.056C185.537 268.056 185.537 268.056 185.363 268.056C184.524 268.124 183.68 268.016 182.885 267.737C182.09 267.459 181.362 267.017 180.749 266.44C179.716 266.986 178.614 267.387 177.474 267.633C176.312 267.915 175.121 268.057 173.926 268.056H169.931C169.9 268.069 169.866 268.076 169.832 268.076C169.798 268.076 169.764 268.069 169.733 268.056C169.722 268.007 169.722 267.956 169.733 267.907V265.645C169.722 265.596 169.722 265.545 169.733 265.496C169.764 265.482 169.798 265.475 169.832 265.475C169.866 265.475 169.9 265.482 169.931 265.496H173.975C175.003 265.506 176.031 265.448 177.052 265.321C177.986 265.213 178.903 264.988 179.781 264.65L178.739 262.165C178.462 261.464 177.977 260.865 177.349 260.45C176.688 260.038 175.92 259.831 175.141 259.853C174.285 259.857 173.439 260.044 172.66 260.4L171.519 257.914C172.817 257.221 174.266 256.862 175.737 256.87C176.993 256.843 178.231 257.171 179.309 257.815Z" fill="#E7BB4C" fill-opacity="0.6"/>
<path d="M194.418 257.516C195.322 257.98 196.072 258.696 196.577 259.579C197.096 260.477 197.362 261.5 197.346 262.537C197.226 264.489 196.773 266.406 196.006 268.205H185.362C185.362 268.205 185.213 268.205 185.189 268.205C185.178 268.181 185.172 268.156 185.172 268.13C185.172 268.104 185.178 268.079 185.189 268.055V265.793C185.178 265.77 185.172 265.745 185.172 265.719C185.172 265.693 185.178 265.668 185.189 265.644C185.189 265.644 185.189 265.644 185.362 265.644H186.727V257.367C188.211 257.112 189.712 256.963 191.218 256.92C192.317 256.849 193.417 257.054 194.418 257.516ZM189.878 259.629V265.495H193.624C193.907 264.551 194.057 263.572 194.071 262.587C194.071 260.524 193.153 259.48 191.317 259.48C190.833 259.482 190.351 259.532 189.878 259.629Z" fill="#E7BB4C" fill-opacity="0.6"/>
<path d="M214.857 257.219V268.205H211.706V259.63C211.232 259.536 210.75 259.486 210.267 259.481C208.431 259.481 207.513 260.525 207.513 262.588C207.468 263.363 207.716 264.126 208.208 264.726C208.475 264.995 208.798 265.204 209.153 265.337C209.508 265.47 209.888 265.524 210.267 265.496H211.259L210.044 268.205H209.721C208.741 268.226 207.774 267.986 206.917 267.509C206.079 267.052 205.389 266.361 204.933 265.521C204.453 264.601 204.214 263.575 204.238 262.538C204.222 261.501 204.487 260.478 205.007 259.58C205.512 258.697 206.262 257.981 207.166 257.517C208.153 257.003 209.254 256.747 210.366 256.771C211.872 256.815 213.372 256.965 214.857 257.219Z" fill="#E7BB4C" fill-opacity="0.6"/>
<path d="M221.753 265.023C221.927 265.19 222.134 265.319 222.36 265.4C222.587 265.481 222.828 265.514 223.068 265.496H223.614C223.614 265.496 223.763 265.496 223.788 265.496C223.799 265.545 223.799 265.596 223.788 265.645V267.907C223.799 267.956 223.799 268.007 223.788 268.056C223.788 268.056 223.788 268.056 223.614 268.056H222.225C221.677 268.09 221.129 268.002 220.619 267.8C220.109 267.599 219.649 267.287 219.272 266.888C218.564 265.983 218.203 264.854 218.255 263.706V250.731H221.431V263.159C221.304 263.799 221.419 264.463 221.753 265.023Z" fill="#E7BB4C" fill-opacity="0.6"/>
<path d="M231.822 257.89C233.443 257.784 235.047 258.27 236.337 259.257C236.862 259.756 237.272 260.364 237.538 261.038C237.803 261.712 237.919 262.436 237.876 263.16C237.862 264.056 237.712 264.944 237.429 265.794C237.207 266.648 236.908 267.48 236.536 268.28H223.585C223.585 268.28 223.436 268.28 223.411 268.28C223.4 268.257 223.395 268.231 223.395 268.206C223.395 268.18 223.4 268.154 223.411 268.131V265.869C223.4 265.846 223.395 265.82 223.395 265.794C223.395 265.769 223.4 265.743 223.411 265.72C223.411 265.72 223.411 265.72 223.585 265.72H234.377C234.625 265.05 234.768 264.346 234.799 263.632C234.842 263.228 234.785 262.819 234.634 262.442C234.482 262.065 234.241 261.731 233.931 261.469C233.182 261.024 232.32 260.808 231.45 260.848H225.868L224.652 258.114L231.003 251.104H234.849L227.902 258.114L231.822 257.89Z" fill="#E7BB4C" fill-opacity="0.6"/>
<path d="M246.839 265.595V265.719V267.981C246.85 268.03 246.85 268.081 246.839 268.13C246.812 268.143 246.782 268.15 246.752 268.15C246.722 268.15 246.692 268.143 246.665 268.13C245.855 268.116 245.064 267.875 244.383 267.434C244.509 268.999 244.019 270.551 243.018 271.759C242.074 272.72 240.813 273.303 239.47 273.4L238.205 270.591C238.801 270.517 239.385 270.367 239.942 270.143C240.361 269.971 240.705 269.654 240.909 269.249C241.133 268.706 241.235 268.12 241.207 267.533V256.895H244.383V264.352C244.656 264.687 245.006 264.951 245.404 265.12C245.802 265.289 246.235 265.358 246.665 265.321C246.7 265.314 246.735 265.318 246.767 265.332C246.799 265.346 246.827 265.369 246.845 265.399C246.864 265.428 246.874 265.463 246.872 265.498C246.871 265.533 246.86 265.566 246.839 265.595Z" fill="#E7BB4C" fill-opacity="0.6"/>
<path d="M261.394 268.206C260.705 268.251 260.015 268.141 259.375 267.883C258.735 267.625 258.162 267.225 257.697 266.714C257.307 267.197 256.81 267.583 256.247 267.842C255.683 268.101 255.067 268.225 254.447 268.206H246.681C246.65 268.219 246.616 268.226 246.582 268.226C246.548 268.226 246.514 268.219 246.483 268.206C246.472 268.156 246.472 268.106 246.483 268.056V265.794C246.472 265.745 246.472 265.694 246.483 265.645C246.514 265.632 246.548 265.625 246.582 265.625C246.616 265.625 246.65 265.632 246.681 265.645H248.939V257.144H252.09V265.645H253.38C253.678 265.65 253.973 265.588 254.244 265.463C254.514 265.339 254.753 265.154 254.943 264.924C255.39 264.4 255.621 263.724 255.588 263.035V257.144H258.739V263.682C258.76 263.995 258.866 264.297 259.045 264.556C259.225 264.814 259.47 265.019 259.756 265.148C260.41 265.478 261.133 265.649 261.865 265.645H263.304V256.2H266.455V268.355L261.394 268.206ZM253.38 255.081V252.223H256.63V255.081H253.38ZM255.861 251.303V248.817H258.789V251.303H255.861ZM257.995 255.081V252.223H261.245V255.081H257.995Z" fill="#E7BB4C" fill-opacity="0.6"/>
<path d="M279.531 257.219V267.336C279.584 268.5 279.327 269.658 278.787 270.691C278.351 271.514 277.664 272.176 276.827 272.58C275.844 273.039 274.799 273.349 273.725 273.5L272.46 270.691C273.215 270.608 273.956 270.433 274.668 270.169C275.178 269.982 275.62 269.644 275.934 269.2C276.238 268.663 276.385 268.051 276.355 267.435V259.63C275.881 259.535 275.4 259.485 274.916 259.481C273.08 259.481 272.162 260.525 272.162 262.588C272.114 263.367 272.372 264.135 272.882 264.726C273.14 265 273.458 265.213 273.81 265.346C274.163 265.48 274.541 265.531 274.916 265.496H275.909L274.693 268.206H274.371C273.391 268.226 272.423 267.986 271.567 267.51C270.737 267.048 270.057 266.358 269.607 265.521C269.12 264.603 268.872 263.577 268.887 262.538C268.871 261.501 269.137 260.478 269.657 259.58C270.175 258.708 270.921 257.995 271.815 257.517C272.81 257 273.92 256.744 275.04 256.772C276.546 256.817 278.046 256.966 279.531 257.219Z" fill="#E7BB4C" fill-opacity="0.6"/>
<path d="M303.459 257.218V272.132H293.064C292.342 272.217 291.611 272.142 290.921 271.913C290.232 271.684 289.601 271.306 289.073 270.806C288.545 270.306 288.134 269.695 287.867 269.018C287.601 268.341 287.486 267.614 287.531 266.887V262.488H290.583V266.39C290.583 268.428 291.699 269.448 293.907 269.448H300.333V259.505C299.851 259.411 299.361 259.361 298.869 259.356C297.033 259.356 296.14 260.4 296.14 262.463C296.095 263.238 296.343 264.001 296.835 264.601C297.1 264.867 297.418 265.073 297.769 265.206C298.12 265.339 298.495 265.395 298.869 265.371H299.887L298.646 268.08H298.348C297.361 268.099 296.386 267.859 295.52 267.384C294.69 266.923 294.01 266.233 293.56 265.396C293.081 264.476 292.842 263.45 292.865 262.413C292.852 261.379 293.109 260.359 293.61 259.455C294.128 258.583 294.874 257.87 295.768 257.392C296.765 256.881 297.873 256.625 298.993 256.646C300.493 256.733 301.986 256.924 303.459 257.218ZM294.9 255.08V252.222H298.15V255.08H294.9ZM299.415 255.08V252.222H302.665V255.08H299.415Z" fill="#E7BB4C" fill-opacity="0.6"/>
<path d="M309.275 271.859C308.341 272.82 307.087 273.404 305.752 273.499L304.486 270.69C305.082 270.617 305.666 270.467 306.223 270.243C306.641 270.078 306.979 269.757 307.166 269.348C307.411 268.811 307.522 268.222 307.488 267.633V256.994H310.639V267.533C310.707 268.309 310.621 269.09 310.387 269.832C310.153 270.574 309.775 271.263 309.275 271.859ZM307.414 255.08V252.222H310.664V255.08H307.414Z" fill="#E7BB4C" fill-opacity="0.6"/>
<path d="M316.02 271.859C315.076 272.82 313.815 273.403 312.472 273.5L311.207 270.691C311.803 270.617 312.387 270.467 312.944 270.243C313.363 270.071 313.707 269.754 313.911 269.348C314.135 268.806 314.237 268.22 314.209 267.633V256.995H317.385V267.534C317.511 269.099 317.021 270.651 316.02 271.859Z" fill="#E7BB4C" fill-opacity="0.6"/>
<path d="M335.252 265.173C335.743 265.42 336.291 265.531 336.84 265.496C336.867 265.483 336.896 265.476 336.926 265.476C336.956 265.476 336.986 265.483 337.013 265.496C337.024 265.545 337.024 265.596 337.013 265.645V267.907C337.024 267.956 337.024 268.007 337.013 268.056C336.986 268.069 336.956 268.076 336.926 268.076C336.896 268.076 336.867 268.069 336.84 268.056C335.809 268.091 334.78 267.966 333.788 267.683C333.112 267.477 332.515 267.07 332.076 266.515C330.822 267.5 329.278 268.042 327.684 268.056H324.931L323.715 265.347H327.213C328.6 265.409 329.979 265.1 331.208 264.452L328.206 256.622H331.605L334.408 264.079C334.559 264.528 334.856 264.913 335.252 265.173Z" fill="#E7BB4C" fill-opacity="0.6"/>
<path d="M345.751 257.517C346.644 257.995 347.391 258.708 347.909 259.58C348.429 260.478 348.695 261.501 348.678 262.538C348.686 263.329 348.543 264.113 348.256 264.85C348.832 265.31 349.556 265.54 350.291 265.496C350.322 265.482 350.356 265.475 350.39 265.475C350.424 265.475 350.458 265.482 350.489 265.496C350.501 265.545 350.501 265.596 350.489 265.645V267.907C350.501 267.956 350.501 268.007 350.489 268.056C350.458 268.07 350.424 268.077 350.39 268.077C350.356 268.077 350.322 268.07 350.291 268.056C349.726 268.044 349.169 267.917 348.653 267.683C348.04 267.434 347.489 267.052 347.041 266.565C346.531 267.057 345.928 267.442 345.268 267.698C344.607 267.954 343.903 268.076 343.195 268.056H336.695C336.664 268.07 336.63 268.077 336.596 268.077C336.561 268.077 336.528 268.07 336.496 268.056C336.486 268.007 336.486 267.956 336.496 267.907V265.645C336.486 265.596 336.486 265.545 336.496 265.496C336.528 265.482 336.561 265.475 336.596 265.475C336.63 265.475 336.664 265.482 336.695 265.496H338.035V257.219C339.519 256.965 341.02 256.815 342.525 256.771C343.646 256.747 344.754 257.003 345.751 257.517ZM341.21 259.63V265.496H342.674C343.049 265.531 343.428 265.48 343.78 265.346C344.133 265.213 344.45 265 344.709 264.726C345.209 264.13 345.467 263.366 345.428 262.588C345.428 260.525 344.51 259.481 342.674 259.481C342.182 259.481 341.692 259.531 341.21 259.63Z" fill="#E7BB4C" fill-opacity="0.6"/>
<path d="M359.703 257.816C360.754 258.5 361.562 259.501 362.01 260.674L363.226 263.806C363.424 264.325 363.791 264.763 364.268 265.049C364.724 265.329 365.246 265.484 365.781 265.496C365.808 265.483 365.838 265.476 365.868 265.476C365.898 265.476 365.928 265.483 365.955 265.496C365.966 265.545 365.966 265.596 365.955 265.645V267.907C365.966 267.957 365.966 268.007 365.955 268.057C365.928 268.07 365.898 268.077 365.868 268.077C365.838 268.077 365.808 268.07 365.781 268.057C364.942 268.128 364.097 268.021 363.301 267.743C362.506 267.464 361.779 267.021 361.166 266.441C360.126 266.987 359.016 267.388 357.867 267.634C356.706 267.918 355.514 268.06 354.319 268.057H350.324C350.297 268.07 350.268 268.077 350.237 268.077C350.207 268.077 350.178 268.07 350.151 268.057C350.14 268.007 350.14 267.957 350.151 267.907V265.645C350.14 265.596 350.14 265.545 350.151 265.496C350.178 265.483 350.207 265.476 350.237 265.476C350.268 265.476 350.297 265.483 350.324 265.496H354.319C355.355 265.508 356.391 265.449 357.42 265.322C358.347 265.217 359.256 264.991 360.124 264.651L359.082 262.166C358.822 261.462 358.344 260.861 357.718 260.45C357.055 260.042 356.288 259.834 355.51 259.854C354.653 259.858 353.808 260.045 353.029 260.401L351.887 257.915C353.184 257.219 354.634 256.86 356.105 256.871C357.37 256.834 358.619 257.162 359.703 257.816Z" fill="#E7BB4C" fill-opacity="0.6"/>
<path d="M374.941 257.517C375.839 257.988 376.587 258.703 377.099 259.58C377.619 260.478 377.885 261.5 377.868 262.538C377.75 264.493 377.288 266.411 376.504 268.205H365.761C365.761 268.205 365.612 268.205 365.587 268.205C365.576 268.182 365.57 268.156 365.57 268.131C365.57 268.105 365.576 268.079 365.587 268.056V265.794C365.576 265.771 365.57 265.745 365.57 265.72C365.57 265.694 365.576 265.668 365.587 265.645C365.587 265.645 365.587 265.645 365.761 265.645H367.1V257.368C368.593 257.114 370.102 256.964 371.616 256.92C372.757 256.828 373.902 257.034 374.941 257.517ZM370.4 259.63V265.496H374.147C374.429 264.552 374.58 263.573 374.593 262.588C374.593 260.525 373.675 259.481 371.839 259.481C371.314 259.474 370.79 259.524 370.276 259.63H370.4Z" fill="#E7BB4C" fill-opacity="0.6"/>
<path d="M0.00772354 177.106C-0.00892459 176.991 0.0014288 176.874 0.037934 176.764C0.0744391 176.654 0.136091 176.553 0.218004 176.471C0.299917 176.389 0.399814 176.328 0.509754 176.291C0.619694 176.254 0.736648 176.244 0.851287 176.261H8.29441C8.5904 176.224 8.89023 176.287 9.14639 176.44C9.40256 176.593 9.60042 176.827 9.7086 177.106L25.3143 212.104H25.6369L40.9945 177.106C41.1027 176.827 41.3006 176.593 41.5567 176.44C41.8129 176.287 42.1127 176.224 42.4087 176.261H49.8518C49.9665 176.244 50.0834 176.254 50.1933 176.291C50.3033 176.328 50.4032 176.389 50.4851 176.471C50.567 176.553 50.6287 176.654 50.6652 176.764C50.7017 176.874 50.712 176.991 50.6954 177.106V232.238C50.712 232.353 50.7017 232.47 50.6652 232.58C50.6287 232.69 50.567 232.79 50.4851 232.872C50.4032 232.954 50.3033 233.016 50.1933 233.053C50.0834 233.089 49.9665 233.099 49.8518 233.083H42.4831C42.3704 233.095 42.2563 233.082 42.1496 233.043C42.0429 233.005 41.9463 232.943 41.8673 232.861C41.7884 232.779 41.729 232.681 41.6938 232.573C41.6587 232.465 41.6486 232.35 41.6644 232.238V197.439H41.317L29.3088 224.159C29.1903 224.484 28.9737 224.764 28.6892 224.96C28.4046 225.156 28.0662 225.259 27.721 225.253H22.7589C22.4144 225.255 22.0776 225.151 21.7938 224.956C21.5099 224.76 21.2926 224.482 21.171 224.159L9.26201 197.488H8.93948V232.287C8.95613 232.402 8.94578 232.519 8.90927 232.63C8.87277 232.74 8.81112 232.84 8.7292 232.922C8.64729 233.004 8.54739 233.066 8.43745 233.102C8.32751 233.139 8.21056 233.149 8.09592 233.133H0.851287C0.736648 233.149 0.619694 233.139 0.509754 233.102C0.399814 233.066 0.299917 233.004 0.218004 232.922C0.136091 232.84 0.0744391 232.74 0.037934 232.63C0.0014288 232.519 -0.00892459 232.402 0.00772354 232.287V177.106Z" fill="#E7BB4C" fill-opacity="0.6"/>
<path d="M77.4028 187.471H77.2292L68.5703 193.561C67.9501 193.958 67.6523 193.784 67.6523 193.064V184.538C67.6543 184.31 67.7091 184.086 67.8124 183.883C67.9158 183.681 68.0648 183.505 68.2478 183.37L77.2292 176.857C77.6511 176.52 78.1785 176.344 78.7178 176.36H85.8136C85.9282 176.343 86.0452 176.354 86.1551 176.39C86.265 176.427 86.3649 176.489 86.4468 176.571C86.5288 176.653 86.5904 176.753 86.6269 176.863C86.6634 176.973 86.6738 177.09 86.6571 177.205V232.337C86.6688 232.451 86.655 232.566 86.6167 232.674C86.5784 232.782 86.5166 232.879 86.4359 232.96C86.3551 233.041 86.2573 233.103 86.1497 233.142C86.042 233.18 85.9272 233.194 85.8136 233.182H78.2464C78.1318 233.199 78.0148 233.188 77.9049 233.152C77.7949 233.115 77.695 233.053 77.6131 232.971C77.5312 232.889 77.4695 232.789 77.433 232.679C77.3965 232.569 77.3862 232.452 77.4028 232.337V187.471Z" fill="#E7BB4C" fill-opacity="0.6"/>
<path d="M128.35 220.282C128.062 219.409 127.821 218.521 127.631 217.622C127.412 216.598 127.263 215.559 127.184 214.515C127.184 213.347 126.986 212.029 126.936 210.389C126.886 208.748 126.936 206.909 126.936 204.672C126.936 202.435 126.936 200.545 126.936 198.955C126.936 197.364 126.936 195.972 127.184 194.804C127.265 193.767 127.414 192.738 127.631 191.721C127.824 190.815 128.064 189.919 128.35 189.037C129.56 184.863 132.194 181.247 135.793 178.821C139.63 176.412 144.095 175.201 148.62 175.341C151.081 175.315 153.531 175.659 155.89 176.36C157.912 176.922 159.849 177.759 161.646 178.846C163.243 179.884 164.653 181.186 165.814 182.698C166.839 184.098 167.673 185.627 168.295 187.247C168.351 187.346 168.387 187.456 168.399 187.569C168.412 187.682 168.402 187.796 168.37 187.905C168.337 188.015 168.283 188.116 168.211 188.204C168.138 188.291 168.049 188.363 167.948 188.415L161.026 191.771C160.926 191.816 160.819 191.841 160.71 191.845C160.601 191.848 160.493 191.829 160.391 191.79C160.289 191.75 160.197 191.691 160.118 191.615C160.04 191.54 159.977 191.449 159.934 191.349C158.843 189.273 157.279 187.485 155.369 186.129C153.318 184.853 150.933 184.222 148.521 184.314C146.062 184.199 143.632 184.888 141.599 186.278C139.815 187.678 138.506 189.597 137.853 191.771C137.662 192.341 137.505 192.922 137.381 193.511C137.23 194.333 137.122 195.163 137.059 195.997C137.059 196.991 136.91 198.209 136.885 199.626C136.86 201.043 136.885 202.758 136.885 204.771C136.885 206.784 136.885 208.475 136.885 209.916C136.885 211.358 136.885 212.402 137.059 213.545C137.122 214.379 137.23 215.209 137.381 216.031C137.508 216.619 137.665 217.2 137.853 217.771C138.508 219.938 139.817 221.848 141.599 223.24C143.628 224.64 146.061 225.33 148.521 225.203C150.869 225.244 153.181 224.624 155.195 223.413C157.149 222.197 158.601 220.318 159.289 218.119C159.593 217.095 159.809 216.048 159.934 214.987C160.125 213.587 160.216 212.175 160.207 210.762C160.207 210.414 160.033 210.264 159.686 210.264H150.357C150.243 210.281 150.126 210.271 150.016 210.234C149.906 210.198 149.806 210.136 149.724 210.054C149.642 209.972 149.58 209.872 149.544 209.761C149.507 209.651 149.497 209.534 149.514 209.419V202.733C149.501 202.62 149.515 202.506 149.553 202.399C149.591 202.292 149.654 202.195 149.735 202.116C149.816 202.037 149.915 201.977 150.023 201.942C150.13 201.907 150.245 201.897 150.357 201.913H169.015C169.585 201.913 169.858 202.186 169.858 202.733V207.704C169.858 210.041 169.858 212.327 169.511 214.589C169.362 216.465 169.03 218.322 168.518 220.132C167.311 224.334 164.678 227.982 161.075 230.448C157.333 232.942 152.915 234.218 148.422 234.102C143.896 234.242 139.431 233.031 135.595 230.622C132.045 228.132 129.481 224.473 128.35 220.282Z" fill="#E7BB4C" fill-opacity="0.6"/>
<path d="M252.253 234.028C247.8 234.144 243.413 232.933 239.649 230.548C236.049 228.111 233.416 224.487 232.206 220.307C231.933 219.437 231.71 218.542 231.511 217.647C231.295 216.621 231.138 215.584 231.04 214.54C231.04 213.372 230.841 212.054 230.792 210.414C230.742 208.773 230.792 206.934 230.792 204.697C230.792 202.46 230.792 200.571 230.792 198.98C230.792 197.389 230.94 195.997 231.04 194.829C231.14 193.793 231.297 192.764 231.511 191.747C231.71 190.852 231.933 189.957 232.206 189.062C233.425 184.893 236.057 181.28 239.649 178.846C243.476 176.576 247.842 175.378 252.29 175.378C256.738 175.378 261.104 176.576 264.931 178.846C268.53 181.272 271.165 184.888 272.374 189.062C272.652 189.944 272.884 190.84 273.069 191.747C273.283 192.764 273.44 193.793 273.54 194.829C273.54 195.997 273.738 197.314 273.788 198.98C273.838 200.645 273.788 202.46 273.788 204.697C273.788 206.934 273.788 208.823 273.788 210.414C273.788 212.005 273.639 213.372 273.54 214.54C273.442 215.584 273.284 216.621 273.069 217.647C272.887 218.546 272.655 219.434 272.374 220.307C271.172 224.491 268.536 228.117 264.931 230.548C261.143 232.943 256.73 234.155 252.253 234.028ZM252.253 225.154C254.609 225.342 256.957 224.699 258.891 223.338C260.825 221.977 262.224 219.981 262.847 217.697C262.996 217.2 263.144 216.603 263.268 215.957C263.392 215.311 263.467 214.441 263.541 213.471C263.616 212.502 263.69 211.259 263.765 209.842C263.839 208.425 263.765 206.71 263.765 204.697C263.765 202.683 263.765 200.968 263.765 199.552C263.765 198.135 263.641 196.917 263.541 195.923C263.442 194.928 263.368 194.083 263.268 193.437C263.16 192.85 263.019 192.269 262.847 191.697C262.224 189.412 260.825 187.417 258.891 186.056C256.957 184.694 254.609 184.052 252.253 184.24C249.832 184.122 247.441 184.813 245.455 186.204C243.693 187.62 242.397 189.534 241.733 191.697C241.584 192.194 241.435 192.766 241.286 193.437C241.125 194.258 241.009 195.088 240.939 195.923C240.939 196.917 240.815 198.135 240.79 199.552C240.765 200.968 240.79 202.683 240.79 204.697C240.79 206.71 240.79 208.4 240.79 209.842C240.79 211.284 240.79 212.328 240.939 213.471C241.009 214.306 241.125 215.135 241.286 215.957C241.435 216.603 241.584 217.2 241.733 217.697C242.397 219.853 243.694 221.758 245.455 223.165C247.436 224.567 249.831 225.258 252.253 225.129V225.154Z" fill="#E7BB4C" fill-opacity="0.6"/>
<path d="M305.197 225.128C306.676 225.185 308.15 224.936 309.529 224.397C310.907 223.858 312.161 223.041 313.211 221.996C314.294 220.766 315.124 219.333 315.652 217.781C316.18 216.228 316.396 214.585 316.287 212.949V177.105C316.27 176.991 316.281 176.873 316.317 176.763C316.354 176.653 316.415 176.553 316.497 176.471C316.579 176.389 316.679 176.327 316.789 176.291C316.899 176.254 317.016 176.244 317.131 176.26H325.318C325.433 176.244 325.55 176.254 325.66 176.291C325.77 176.327 325.87 176.389 325.951 176.471C326.033 176.553 326.095 176.653 326.132 176.763C326.168 176.873 326.178 176.991 326.162 177.105V213.098C326.206 216.114 325.667 219.111 324.574 221.922C323.608 224.384 322.124 226.608 320.223 228.444C318.322 230.28 316.049 231.684 313.558 232.56C310.89 233.546 308.065 234.034 305.222 234.002C302.394 234.036 299.585 233.548 296.935 232.56C294.483 231.663 292.237 230.276 290.335 228.484C288.429 226.634 286.941 224.396 285.969 221.922C284.864 219.114 284.325 216.115 284.381 213.098V177.105C284.381 176.534 284.654 176.26 285.2 176.26H293.387C293.933 176.26 294.206 176.534 294.206 177.105V212.949C294.101 214.587 294.321 216.23 294.853 217.783C295.385 219.336 296.219 220.768 297.307 221.996C298.338 223.033 299.57 223.845 300.927 224.384C302.284 224.923 303.738 225.176 305.197 225.128Z" fill="#E7BB4C" fill-opacity="0.6"/>
<path d="M339.152 233.082C339.037 233.099 338.92 233.089 338.811 233.052C338.701 233.016 338.601 232.954 338.519 232.872C338.437 232.79 338.375 232.69 338.339 232.579C338.302 232.469 338.292 232.352 338.309 232.237V177.105C338.292 176.991 338.302 176.873 338.339 176.763C338.375 176.653 338.437 176.553 338.519 176.471C338.601 176.389 338.701 176.327 338.811 176.291C338.92 176.254 339.037 176.244 339.152 176.26H360.415C362.952 176.254 365.471 176.691 367.858 177.553C370.053 178.348 372.069 179.573 373.787 181.157C375.441 182.711 376.743 184.601 377.608 186.7C378.549 188.977 379.021 191.42 378.998 193.884C379.028 196.38 378.555 198.857 377.608 201.167C376.743 203.266 375.441 205.156 373.787 206.71C372.069 208.293 370.053 209.519 367.858 210.314C365.474 211.187 362.953 211.625 360.415 211.606H348.654C348.587 211.598 348.519 211.606 348.455 211.628C348.392 211.65 348.334 211.686 348.286 211.734C348.238 211.782 348.202 211.84 348.18 211.904C348.158 211.968 348.15 212.036 348.158 212.103V232.237C348.175 232.352 348.165 232.469 348.128 232.579C348.092 232.69 348.03 232.79 347.948 232.872C347.866 232.954 347.766 233.016 347.656 233.052C347.546 233.089 347.429 233.099 347.315 233.082H339.152ZM359.819 202.658C361.079 202.72 362.339 202.532 363.527 202.105C364.715 201.679 365.807 201.022 366.741 200.172C368.351 198.446 369.247 196.172 369.247 193.809C369.247 191.446 368.351 189.172 366.741 187.446C365.809 186.593 364.718 185.934 363.529 185.507C362.341 185.08 361.08 184.894 359.819 184.96H348.654C348.585 184.951 348.514 184.959 348.448 184.982C348.382 185.006 348.323 185.045 348.275 185.095C348.226 185.146 348.191 185.208 348.17 185.275C348.15 185.342 348.146 185.413 348.158 185.482V202.012C348.15 202.079 348.158 202.147 348.18 202.211C348.202 202.275 348.238 202.333 348.286 202.381C348.334 202.429 348.392 202.465 348.455 202.487C348.519 202.509 348.587 202.517 348.654 202.509L359.819 202.658Z" fill="#E7BB4C" fill-opacity="0.6"/>
</g>
</svg>
