<svg width="60" height="60" viewBox="0 0 60 60" fill="none" xmlns="http://www.w3.org/2000/svg">
<path d="M10.3672 31.88C10.3672 21.8 18.4988 13.72 28.4461 13.72C31.2093 13.72 33.9724 14.44 36.4988 15.72C36.6567 15.8 36.9724 15.88 37.0514 16.04C37.2882 16.36 37.604 16.76 37.5251 17C37.3672 17.56 36.8935 17.4 36.4198 17.16C28.4461 12.6 18.3409 15.56 13.8409 23.64C9.34087 31.72 12.2619 41.96 20.2356 46.52C28.2093 51.08 38.3146 48.12 42.8146 40.04C44.4724 37 45.183 33.48 44.7882 30.04C44.5514 27.88 43.9198 25.72 42.8935 23.8C42.5777 23.4 42.3409 22.92 42.8935 22.6C43.4461 22.28 43.7619 22.76 43.9988 23.16C49.9198 33.64 43.5251 47.56 31.7619 49.72C22.0514 51.64 12.6567 45.24 10.7619 35.4C10.683 35.16 10.683 35 10.683 34.76C10.4461 33.8 10.4461 32.84 10.3672 31.88Z" fill="#E2B756"/>
<path d="M39.103 31.8C38.9451 37.88 33.8924 42.84 28.0503 42.6C22.2082 42.44 17.6293 37.48 17.7872 31.64C17.9451 25.72 22.8398 21.08 28.603 21.24C29.8661 21.24 31.1293 21.56 32.2345 22.04C32.4714 22.12 32.7082 22.2 32.8661 22.36C33.024 22.52 33.1819 22.92 33.103 23.08C32.9451 23.32 32.7082 23.48 32.3924 23.48C32.2345 23.48 31.9977 23.4 31.7608 23.32C27.024 21.4 21.6556 23.64 19.6819 28.44C17.7872 33.24 19.9977 38.68 24.7345 40.68C29.4714 42.68 34.9187 40.2 36.8924 35.4C37.1293 34.76 37.3661 34.12 37.4451 33.4C37.7608 31.72 37.524 30.04 36.9714 28.44C36.9714 28.36 36.8924 28.2 36.8135 28.12C36.5766 27.64 36.4977 27.16 37.0503 26.92C37.603 26.68 37.9187 27.16 37.9977 27.64C38.3924 29.08 38.7082 30.44 39.103 31.8Z" fill="#E2B756"/>
<path d="M46.4471 21.64C45.2629 21.4 44.0787 21.08 42.9734 20.68C41.4734 20.04 40.4471 20.44 39.3418 21.64C36.0261 25.16 32.6313 28.52 29.2366 31.96C29.0787 32.12 28.9208 32.36 28.684 32.44C28.4471 32.52 28.1313 32.44 27.8945 32.28C27.7366 32.04 27.7366 31.8 27.8155 31.56C27.8945 31.32 28.1313 31.16 28.2892 31C31.9997 27.24 35.6313 23.56 39.3418 19.8C39.7366 19.48 39.8945 18.92 39.7366 18.44C39.3418 17 38.9471 15.56 38.5524 14.2C38.3945 13.72 38.4734 13.24 38.8682 12.92C40.605 11.24 42.2629 9.48001 43.9997 7.72001C44.7103 7.00001 45.184 7.16001 45.4208 8.12001C45.8155 9.64001 46.2103 11.16 46.684 12.6C46.8418 12.92 47.0787 13.16 47.3945 13.32C48.8945 13.8 50.3945 14.12 51.8155 14.6C52.7629 14.84 52.9208 15.32 52.2103 16.04C50.5524 17.8 48.8155 19.48 47.0787 21.24C46.8418 21.32 46.6839 21.48 46.4471 21.64ZM44.3945 9.16001C42.8945 10.68 41.4734 12.04 40.1313 13.48C39.9734 13.72 39.9734 13.96 39.9734 14.2C40.2892 15.56 40.684 16.92 41.0787 18.28C41.1576 18.52 41.3945 18.76 41.6313 18.84C42.9734 19.24 44.3155 19.64 45.6576 19.96C45.8945 20.04 46.2103 19.96 46.3682 19.88C47.7892 18.52 49.2103 17.08 50.6313 15.56C49.1313 15.16 47.7892 14.76 46.4471 14.44C45.8945 14.36 45.4997 13.96 45.4208 13.4C45.184 12.04 44.7892 10.68 44.3945 9.16001Z" fill="#E2B756"/>
<path d="M58.29 11C58.29 11.16 58.211 11.16 58.211 11.24C58.1321 11.32 58.1321 11.4 58.0531 11.4C57.9742 11.48 57.8952 11.56 57.7374 11.56C57.5795 11.64 57.4216 11.64 57.2637 11.64V12.36H58.1321V18.6H59.1584V11H58.29Z" fill="#E2B756" stroke="#E7BB4C"/>
<path d="M58 20.5L57.9811 51.9137C57.9811 55.2258 55.2378 57.9987 51.8676 57.9987H8.13243C4.76216 57.9987 2.01892 55.3028 1.94054 51.9907V8.08632C1.94054 4.77424 4.68378 2.07835 8.13243 2.00133H51.7892C55.1595 2.00133 57.9027 4.69721 57.9027 8.0093V9.16467H58.9216V8.0093C58.9216 4.08101 55.7081 1 51.7108 1H8.13243C4.13514 1 1 4.15803 1 8.0093V51.9137C1 55.842 4.21351 58.923 8.13243 59H51.7892C55.7865 59 58.9216 55.842 59 51.9137V20.5H58Z" fill="#E2B756" stroke="#E7BB4C" stroke-width="2"/>
</svg>
