<svg width="24" height="24" viewBox="0 0 24 24" fill="none" xmlns="http://www.w3.org/2000/svg">
<path d="M18.3825 8.1275V7.48208C19.1952 7.00399 19.7211 6.11953 19.7211 5.16335V4.01594C19.7211 2.53387 18.5259 1.33865 17.0438 1.33865C15.5618 1.33865 14.3426 2.53387 14.3426 4.01594V5.16335C14.3426 6.09563 14.8207 6.95618 15.6335 7.43427V8.1275C15.2749 8.22312 14.9402 8.36654 14.6056 8.55778C14.0797 7.33865 12.8606 6.4781 11.4502 6.4781C10.0637 6.4781 8.89243 7.29084 8.34263 8.48606C8.03187 8.34264 7.72112 8.19921 7.41036 8.1275V7.48208C8.22311 7.00399 8.74901 6.11953 8.74901 5.16335V4.01594C8.74901 2.53387 7.55379 1.33865 6.07171 1.33865C4.58964 1.33865 3.39442 2.53387 3.39442 4.01594V5.16335C3.39442 6.09563 3.87251 6.95618 4.68526 7.43427V8.1275C2.53387 8.74901 1.0757 10.6853 1.0757 12.9323C1.0757 13.1235 1.24303 13.2908 1.43426 13.2908H8.50996C8.53387 13.2908 8.55777 13.2908 8.58168 13.2908C8.86853 13.745 9.2749 14.1275 9.75299 14.4144V15.49C6.90837 16.255 4.97211 18.8128 4.97211 21.7769C4.97211 21.9681 5.13944 22.1355 5.33068 22.1355H17.6414C17.8327 22.1355 18 21.9681 18 21.7769C18 18.8367 15.9681 16.2311 13.1474 15.49V14.4622C13.6494 14.1753 14.0558 13.7928 14.3665 13.3147H21.7052C21.8964 13.3147 22.0637 13.1474 22.0637 12.9562C22.0398 10.7092 20.51 8.72511 18.3825 8.1275ZM1.79283 12.5976C1.93626 10.7331 3.2749 9.2032 5.11554 8.77292C5.28287 8.72511 5.40239 8.58168 5.40239 8.41435V7.21913C5.40239 7.07571 5.33068 6.95618 5.21116 6.90837C4.54183 6.57371 4.11156 5.90439 4.11156 5.16335V4.01594C4.11156 2.94025 4.99602 2.05579 6.07171 2.05579C7.14741 2.05579 8.03187 2.94025 8.03187 4.01594V5.16335C8.03187 5.90439 7.57769 6.59762 6.90837 6.93228C6.78885 6.98009 6.69323 7.12351 6.69323 7.26694V8.41435C6.69323 8.58168 6.81275 8.72511 6.98008 8.77292C7.38646 8.86853 7.76893 9.01196 8.12749 9.2032C8.07968 9.44224 8.05578 9.68128 8.05578 9.94423V11.4741C8.05578 11.8566 8.12749 12.2391 8.24701 12.5976H1.79283ZM12.6215 13.9124C12.502 13.9602 12.4064 14.1036 12.4064 14.247V15.7769C12.4064 15.9442 12.5259 16.0877 12.6932 16.1355C15.2271 16.6853 17.0916 18.8845 17.259 21.4422H5.68924C5.83267 18.8845 7.6494 16.7331 10.1833 16.1594C10.3506 16.1116 10.4701 15.9681 10.4701 15.8008V14.2231C10.4701 14.0797 10.3984 13.9602 10.2789 13.9124C9.34662 13.4582 8.77291 12.5259 8.77291 11.498V9.96814C8.77291 8.46216 9.99203 7.26694 11.4741 7.26694C12.9562 7.26694 14.1753 8.48606 14.1753 9.96814V11.4741C14.1753 12.502 13.5777 13.4582 12.6215 13.9124ZM14.7012 12.5976C14.8207 12.2391 14.8924 11.8566 14.8924 11.4741V9.94423C14.8924 9.72909 14.8685 9.49005 14.8207 9.29881C15.2032 9.05977 15.6335 8.89244 16.0637 8.79682C16.2311 8.74901 16.3506 8.60559 16.3506 8.43825V7.24304C16.3506 7.09961 16.2789 6.98009 16.1594 6.93228C15.49 6.59762 15.0598 5.9283 15.0598 5.18726V4.03985C15.0598 2.96415 15.9442 2.07969 17.0199 2.07969C18.0956 2.07969 18.9801 2.96415 18.9801 4.03985V5.18726C18.9801 5.9283 18.5259 6.62152 17.8566 6.95618C17.7371 7.00399 17.6414 7.14742 17.6414 7.29084V8.43825C17.6414 8.60559 17.761 8.74901 17.9283 8.79682C19.7689 9.2032 21.1315 10.7809 21.2988 12.6215L14.7012 12.5976Z" fill="black"/>
</svg>
