<svg width="24" height="24" viewBox="0 0 24 24" fill="black" xmlns="http://www.w3.org/2000/svg">
<path d="M1.46094 12.7949V13.2949V22.1289H6.49609V20.8847L6.51368 20.8906C7.82726 21.3275 9.70059 21.7113 11.5566 22.375L11.6953 22.4239L11.8379 22.3906C12.4216 22.2549 13.9872 21.7681 15.8613 21.166C17.7355 20.564 19.8771 19.8554 21.4668 19.3067C22.229 19.0431 22.6355 18.1905 22.3555 17.4336V17.4316V17.4296C22.0612 16.6554 21.2114 16.3139 20.4844 16.537L15.582 18.0351C15.5776 17.5249 15.3225 17.0221 14.9082 16.6972L14.8828 16.6777L14.8555 16.662C12.7617 15.4146 12.5805 15.2599 9.63672 13.6952L9.50196 13.623L9.34962 13.6386C8.34013 13.7466 6.63097 14.0284 6.4961 14.0507V12.7949L1.46094 12.7949ZM2.46094 13.7949H5.49609V21.1289H2.46094V13.7949ZM9.30273 14.6543C11.9951 16.0882 12.3019 16.3051 14.293 17.4922C14.6071 17.7431 14.69 18.0501 14.498 18.3262C14.3939 18.4761 14.2917 18.535 14.1406 18.5605C13.9911 18.5858 13.7812 18.5591 13.5449 18.4551C12.6443 18.039 12.1562 17.7713 11.1641 17.2148L10.7285 16.9707L10.2402 17.8418L10.6758 18.0879C11.6712 18.6462 12.2009 18.9356 13.127 19.3633L13.129 19.3653H13.1329C13.5115 19.5341 13.9135 19.6113 14.3067 19.5449C14.5267 19.5078 14.7372 19.4154 14.9258 19.2832L20.7774 17.4922C21.0099 17.4209 21.3199 17.537 21.4161 17.7813C21.5069 18.0311 21.396 18.273 21.1407 18.3614C19.5618 18.9064 17.4244 19.6149 15.5567 20.2149C13.7418 20.7979 12.2129 21.2623 11.7227 21.3828C9.84961 20.7312 7.99264 20.3287 6.82816 19.9414L6.49614 19.8301V15.0664L6.57816 15.0528C6.57816 15.0528 8.29165 14.7729 9.30273 14.6543Z"/>
<path d="M16.0723 1.57614C12.506 1.57614 9.60352 4.47679 9.60352 8.04294C9.60352 11.6091 12.506 14.5117 16.0723 14.5117C19.6385 14.5117 22.5391 11.6091 22.5391 8.04294C22.5391 4.47679 19.6385 1.57614 16.0723 1.57614ZM16.0723 2.57614C16.2706 2.57614 16.48 2.66411 16.7227 2.90231C16.9654 3.14052 17.2172 3.52392 17.4316 4.02145C17.6661 4.5655 17.8514 5.24883 17.9766 6.00974H14.168C14.2931 5.24883 14.4784 4.5655 14.7129 4.02145C14.9273 3.52392 15.1792 3.14052 15.4219 2.90231C15.6646 2.66411 15.8739 2.57614 16.0723 2.57614ZM14.1602 2.9238C14.0291 3.14046 13.9048 3.37009 13.7949 3.62497C13.5031 4.30202 13.2923 5.11827 13.1582 6.00974H10.998C11.5682 4.58431 12.7178 3.46067 14.1602 2.9238ZM17.9844 2.9238C19.4264 3.46069 20.5768 4.58426 21.1465 6.00974H18.9863C18.8523 5.11827 18.6414 4.30202 18.3496 3.62497C18.2398 3.37009 18.1154 3.14046 17.9844 2.9238ZM10.7031 7.00974H10.7695H13.043C13.0185 7.34773 13 7.68928 13 8.04294C13 8.3966 13.0185 8.73815 13.043 9.07614H10.7695H10.7031C10.6393 8.74136 10.6035 8.39662 10.6035 8.04294C10.6035 7.68926 10.6393 7.34447 10.7031 7.00974ZM14.0449 7.00974H18.0996C18.1263 7.34584 18.1445 7.6884 18.1445 8.04294C18.1445 8.39747 18.1263 8.74003 18.0996 9.07614H14.0449C14.0182 8.74003 14 8.39747 14 8.04294C14 7.6884 14.0182 7.34584 14.0449 7.00974ZM19.1016 7.00974H21.375H21.4394C21.5032 7.34447 21.5391 7.68926 21.5391 8.04294C21.5391 8.39662 21.5032 8.74136 21.4394 9.07614H21.375H19.1016C19.126 8.73815 19.1445 8.3966 19.1445 8.04294C19.1445 7.68928 19.126 7.34773 19.1016 7.00974ZM10.998 10.0761H13.1582C13.2923 10.9676 13.5031 11.7839 13.7949 12.4609C13.9048 12.7158 14.0291 12.9454 14.1602 13.1621C12.718 12.6248 11.5681 11.5019 10.998 10.0761ZM14.168 10.0761H17.9766C17.8514 10.837 17.6661 11.5204 17.4316 12.0644C17.2172 12.562 16.9654 12.9473 16.7227 13.1855C16.48 13.4237 16.2706 13.5117 16.0723 13.5117C15.8739 13.5117 15.6646 13.4237 15.4219 13.1855C15.1792 12.9473 14.9273 12.562 14.7129 12.0644C14.4784 11.5204 14.2931 10.837 14.168 10.0761ZM18.9863 10.0761H21.1465C20.5768 11.5019 19.4263 12.6248 17.9844 13.1621C18.1154 12.9454 18.2398 12.7158 18.3496 12.4609C18.6414 11.7839 18.8523 10.9676 18.9863 10.0761Z"/>
</svg>
