<svg width="20" height="24" viewBox="0 0 20 24" fill="none" xmlns="http://www.w3.org/2000/svg">
<path d="M8.90781 0.787495L8.40625 1.28906L8.85156 1.73437C9.09531 1.97812 9.2875 2.17968 9.27813 2.18906C9.26875 2.19843 9.0625 2.22656 8.82344 2.25468C7 2.45624 5.23281 3.19218 3.76563 4.35937C3.27813 4.74843 2.42969 5.61562 2.06875 6.09843C0.723438 7.88906 0.043751 10.0687 0.123438 12.3234C0.175001 13.8375 0.475001 15.0234 1.15 16.3828C1.3 16.6922 1.46406 16.9969 1.51094 17.0531L1.59531 17.1656L2.18125 16.8L2.76719 16.4344L2.60781 16.1484C0.854689 13.0547 1.24375 9.15937 3.57344 6.48281C4.97969 4.87499 7.04219 3.82031 9.15625 3.63281L9.50781 3.59999L8.95469 4.15781L8.40625 4.71093L8.89844 5.20312L9.39063 5.69531L10.75 4.33593L12.1094 2.97656L10.7594 1.62656L9.41406 0.281244L8.90781 0.787495Z" fill="black"/>
<path d="M15.2031 4.44842C14.9969 4.7578 14.8281 5.02499 14.8281 5.03436C14.8281 5.04842 14.9922 5.18436 15.1937 5.33436C15.3953 5.48905 15.7375 5.78436 15.9531 5.9953C16.1734 6.20155 16.3656 6.3703 16.3797 6.36092C16.4594 6.3328 17.35 5.49842 17.3547 5.45624C17.3641 5.33905 16.0422 4.1578 15.6391 3.91874C15.6016 3.89999 15.4516 4.0828 15.2031 4.44842Z" fill="black"/>
<path d="M8.92188 6.58593C6.99063 6.93749 5.35938 8.32968 4.7125 10.1719C4.3 11.3437 4.29063 12.6937 4.68906 13.7953C5.37344 15.7078 6.93438 17.0531 8.92188 17.4422C9.38125 17.5312 10.5063 17.5219 10.975 17.4187C13.1219 16.9594 14.6875 15.45 15.2641 13.2937C15.3531 12.9656 15.3672 12.7922 15.3625 12C15.3625 11.1562 15.3531 11.0484 15.2359 10.6172C15.0859 10.0547 14.6453 9.1453 14.3172 8.71874C13.4641 7.58905 12.1984 6.8203 10.825 6.58593C10.3188 6.50155 9.4 6.50155 8.92188 6.58593ZM10.5625 8.36718C10.5625 8.76093 10.5625 8.76561 10.6938 8.78905C11.2984 8.91093 11.8469 9.1453 12.2453 9.46405L12.3625 9.55311L11.9688 10.0125C11.7531 10.2703 11.5656 10.4953 11.5469 10.5141C11.5281 10.5375 11.4109 10.4812 11.2938 10.3875C10.9844 10.1531 10.5484 10.0266 10.0188 10.0266C9.475 10.0266 9.22656 10.0922 9.02969 10.2891C8.75781 10.5609 8.83281 10.9219 9.20313 11.1094C9.38125 11.1984 9.59219 11.2406 10.5063 11.3437C11.9781 11.5125 12.6813 12.1828 12.6156 13.3687C12.5688 14.2734 11.9453 14.9297 10.9047 15.1734L10.5625 15.2531V15.6656V16.0781H9.90625H9.25V15.6656V15.2484L8.84688 15.15C8.62188 15.0937 8.3125 14.9906 8.15313 14.9156C7.84375 14.7703 7.1875 14.2734 7.1875 14.1844C7.1875 14.1516 7.24844 14.0437 7.31875 13.9406C7.39375 13.8422 7.55313 13.6125 7.675 13.4391L7.89531 13.1203L8.12031 13.2844C8.65938 13.6828 9.4 13.9359 10.0234 13.9406C10.3328 13.9406 10.4453 13.9219 10.6656 13.8187C11.1156 13.6125 11.2609 13.2 11.0031 12.8953C10.8531 12.7125 10.5766 12.6328 9.87813 12.5672C8.29375 12.4078 7.45938 11.8266 7.38438 10.8234C7.35625 10.4297 7.45938 10.0031 7.64688 9.72655C7.90938 9.35155 8.45781 9.00936 9.05313 8.85936L9.25 8.8078V8.39061V7.96874H9.90625H10.5625V8.36718Z" fill="black"/>
<path d="M17.7953 7.20937L17.2234 7.57031L17.3125 7.71094C17.6594 8.27812 18.0484 9.225 18.2313 9.94219C19.3 14.175 16.9516 18.5109 12.8172 19.9406C12.2828 20.1281 11.3969 20.3203 10.8438 20.3672L10.4922 20.4L11.0453 19.8422L11.5938 19.2891L11.1016 18.7969L10.6094 18.3047L9.25 19.6641L7.89062 21.0234L9.23594 22.3687L10.5859 23.7188L11.0875 23.2172L11.5938 22.7109L11.1438 22.2609L10.6891 21.8062L10.9188 21.7781C12.8594 21.5391 14.2047 21.0562 15.6063 20.1047C18.4047 18.1969 19.9984 15.0375 19.8766 11.6484C19.8203 10.1766 19.5156 8.95312 18.8734 7.66406C18.5875 7.0875 18.4469 6.84375 18.4 6.84843C18.3813 6.84843 18.1094 7.0125 17.7953 7.20937Z" fill="black"/>
<path d="M3.1375 18.0562C2.87031 18.2953 2.64531 18.5156 2.64531 18.5437C2.63594 18.6609 3.95313 19.8375 4.36094 20.0812C4.39844 20.1 4.54844 19.9219 4.79688 19.5516C5.00313 19.2422 5.17188 18.975 5.17188 18.9656C5.17188 18.9516 5.00781 18.8156 4.80625 18.6656C4.60469 18.5109 4.2625 18.2156 4.04688 18.0047C3.82656 17.7984 3.64375 17.625 3.63906 17.625C3.63438 17.625 3.40938 17.8219 3.1375 18.0562Z" fill="black"/>
</svg>
