<svg width="25" height="25" viewBox="0 0 25 25" fill="none" xmlns="http://www.w3.org/2000/svg">
<path d="M23.2944 8.53701V21.2168C23.2944 22.5319 22.221 23.6024 20.9024 23.633H3.79063C2.47198 23.633 1.39866 22.5625 1.39866 21.2168V3.78324C1.39866 2.46809 2.47198 1.39761 3.79063 1.36702H20.8717C22.1904 1.36702 23.2637 2.4375 23.2637 3.78324V3.92414H23.693V3.78324C23.693 2.25399 22.4357 1 20.9024 1H3.79063C2.25732 1 1 2.25399 1 3.78324V21.2168C1 22.7766 2.25732 24 3.79063 24H20.8717C22.4357 24 23.693 22.746 23.693 21.2168V8.53701H23.2944Z" fill="#1D1D1D" stroke="#1D1D1D"/>
<path d="M23.4092 7.65221H23.9995V4.67017H23.5076C23.4574 5.05725 23.385 5.19897 23.0156 5.2404V5.81063H23.4092V7.65221Z" fill="#1D1D1D"/>
<path d="M6.90443 9.74148C6.89147 9.46044 6.93894 9.17989 7.04361 8.91902C7.14829 8.65816 7.30769 8.42313 7.51092 8.23C7.78047 7.95865 8.05001 7.68729 8.31956 7.41593C8.93144 6.81351 9.57566 6.81351 10.1902 7.41593C10.6467 7.86638 11.0959 8.31865 11.538 8.77272C12.1633 9.41313 12.1633 10.021 11.538 10.6722C11.3115 10.9056 11.0851 11.139 10.8479 11.3588C10.8036 11.3954 10.7754 11.4481 10.7694 11.5054C10.7633 11.5628 10.7799 11.6203 10.8156 11.6654C11.2668 12.5091 11.8743 13.258 12.6054 13.8716C13.0609 14.2623 13.5784 14.5771 14.0663 14.9272C14.0862 14.9434 14.1091 14.9553 14.1337 14.9622C14.1583 14.9691 14.184 14.9708 14.2093 14.9672C14.2346 14.9636 14.2589 14.9549 14.2807 14.9415C14.3024 14.928 14.3212 14.9102 14.3359 14.8892C14.6054 14.6042 14.875 14.3193 15.1769 14.0561C15.2827 13.9466 15.4097 13.8601 15.5502 13.8022C15.6906 13.7443 15.8414 13.7161 15.9931 13.7194C16.1449 13.7227 16.2943 13.7574 16.4321 13.8214C16.5699 13.8854 16.6932 13.9773 16.7942 14.0914C17.3081 14.5943 17.8157 15.1045 18.3171 15.6218C18.4369 15.7277 18.5336 15.8575 18.601 16.003C18.6684 16.1485 18.705 16.3064 18.7086 16.4669C18.7121 16.6274 18.6825 16.7869 18.6216 16.9352C18.5607 17.0836 18.4699 17.2176 18.3548 17.3287C18.0314 17.6905 17.6926 18.0406 17.3386 18.3789C16.7591 18.9216 16.0556 18.9623 15.3197 18.8266C14.2538 18.5986 13.241 18.1676 12.3358 17.5566C10.1945 16.2269 8.49585 14.2843 7.45701 11.9775C7.11597 11.2806 6.92753 10.518 6.90443 9.74148ZM15.9532 18.2893C16.1538 18.3009 16.3544 18.2678 16.5408 18.1923C16.7272 18.1167 16.8947 18.0007 17.0314 17.8524C17.3009 17.5811 17.5705 17.3097 17.84 17.0194C18.1985 16.6503 18.1985 16.3599 17.8373 16.0072C17.3737 15.5404 16.9092 15.0746 16.4437 14.6097C16.1014 14.2678 15.8373 14.2678 15.4895 14.6097C15.2011 14.881 14.9235 15.1822 14.6351 15.4645C14.5972 15.517 14.5493 15.5613 14.4943 15.595C14.4392 15.6287 14.378 15.651 14.3142 15.6606C14.2505 15.6702 14.1855 15.6669 14.123 15.6509C14.0606 15.635 14.0019 15.6066 13.9504 15.5676C13.4419 15.2768 12.9538 14.9513 12.4895 14.5934C11.5279 13.8439 10.7466 12.8858 10.2037 11.7902C10.042 11.4456 10.077 11.2937 10.352 11.025C10.6269 10.7564 10.9099 10.4823 11.1768 10.2109C11.4975 9.87445 11.4975 9.60851 11.1768 9.28017C10.697 8.78629 10.2118 8.29784 9.72121 7.81482C9.40315 7.50005 9.11473 7.50547 8.79397 7.81482C8.52442 8.08618 8.25487 8.35754 7.98532 8.6289C7.81181 8.78957 7.67787 8.98873 7.59412 9.21058C7.51037 9.43244 7.47912 9.67088 7.50283 9.90701C7.55602 10.5506 7.72883 11.1784 8.01228 11.7577C9.19179 14.3489 11.2369 16.4414 13.7914 17.6706C14.4605 18.0281 15.1973 18.239 15.9532 18.2893Z" fill="#1D1D1D" stroke="#1D1D1D"/>
</svg>
