<svg width="25" height="25" viewBox="0 0 25 25" fill="none" xmlns="http://www.w3.org/2000/svg">
<g clip-path="url(#clip0_664_7246)">
<path d="M23.2828 8.89V21.6461C23.2828 22.9692 22.1919 24.0461 20.8516 24.0768H3.45941C2.11915 24.0768 1.02824 22.9999 1.02824 21.6461V4.10762C1.02824 2.78454 2.11915 1.70762 3.45941 1.67685H20.8204C22.1607 1.67685 23.2516 2.75377 23.2516 4.10762V4.24936H23.688V4.10762C23.688 2.56916 22.4101 1.30762 20.8516 1.30762H3.45941C1.90097 1.30762 0.623047 2.56916 0.623047 4.10762V21.6461C0.623047 23.2153 1.90097 24.4461 3.45941 24.4461H20.8204C22.4101 24.4461 23.688 23.1845 23.688 21.6461V8.89H23.2828Z" fill="#E2B756" stroke="#E2B756"/>
<path d="M23.4 8H24V5H23.5C23.449 5.38941 23.3754 5.53199 23 5.57366V6.14733H23.4V8Z" fill="#E2B756"/>
<g clip-path="url(#clip1_664_7246)">
<path d="M6.86719 15.8453C6.86719 15.8453 9.375 14.6828 9.375 10.75C9.375 10.0538 9.65156 9.38613 10.1438 8.89384C10.6361 8.40156 11.3038 8.125 12 8.125C12.6962 8.125 13.3639 8.40156 13.8562 8.89384C14.3484 9.38613 14.625 10.0538 14.625 10.75C14.625 14.6828 17.1328 15.8453 17.1328 15.8453C16.6969 16.2531 15.7734 16.0047 15.2484 16.2906C14.7234 16.5766 14.4516 17.4906 13.8656 17.6406C13.2797 17.7906 12.6094 17.125 12 17.125C11.3906 17.125 10.7016 17.7859 10.1344 17.6406C9.56719 17.4953 9.26719 16.5766 8.75156 16.2906C8.23594 16.0047 7.30313 16.2531 6.86719 15.8453Z" stroke="#E2B756" stroke-linecap="round" stroke-linejoin="round"/>
<path d="M14.873 12.7516L16.1246 12.25" stroke="#E2B756" stroke-linecap="round" stroke-linejoin="round"/>
<path d="M9.12656 12.7516L7.875 12.25" stroke="#E2B756" stroke-linecap="round" stroke-linejoin="round"/>
</g>
</g>
<defs>
<clipPath id="clip0_664_7246">
<rect width="25" height="25" fill="white"/>
</clipPath>
<clipPath id="clip1_664_7246">
<rect width="12" height="12" fill="white" transform="translate(6 7)"/>
</clipPath>
</defs>
</svg>
