<svg width="73" height="54" viewBox="0 0 73 54" fill="none" xmlns="http://www.w3.org/2000/svg">
<path d="M40.6092 45.344C40.5575 45.3476 40.5061 45.3336 40.4632 45.3043C40.4203 45.2751 40.3885 45.2322 40.3727 45.1827L38.3056 40.9544H36.4419C36.4286 40.9527 36.4151 40.9541 36.4026 40.9586C36.39 40.9631 36.3786 40.9705 36.3694 40.9802C36.3602 40.9899 36.3534 41.0016 36.3496 41.0145C36.3457 41.0273 36.3449 41.0409 36.3472 41.054V45.1827C36.3503 45.2042 36.3483 45.2261 36.3416 45.2467C36.3349 45.2673 36.3236 45.2861 36.3086 45.3017C36.2935 45.3173 36.2751 45.3292 36.2547 45.3365C36.2344 45.3438 36.2126 45.3464 36.1911 45.344H34.6301C34.6087 45.3464 34.5869 45.3438 34.5666 45.3365C34.5462 45.3292 34.5278 45.3173 34.5127 45.3017C34.4977 45.2861 34.4864 45.2673 34.4797 45.2467C34.4729 45.2261 34.471 45.2042 34.474 45.1827V34.657C34.474 34.5479 34.5261 34.4957 34.6301 34.4957H38.8117C39.2815 34.4909 39.7481 34.5729 40.1883 34.7377C40.5894 34.8862 40.9587 35.1101 41.2762 35.3973C41.5867 35.6823 41.8333 36.03 42 36.4176C42.1772 36.8328 42.2658 37.2806 42.2601 37.7322C42.2773 38.3925 42.0834 39.0411 41.7067 39.5829C41.3351 40.1048 40.8136 40.5005 40.2119 40.7171L42.4872 45.1352C42.5013 45.1555 42.5094 45.1793 42.5108 45.204C42.5121 45.2286 42.5066 45.2532 42.4948 45.2749C42.483 45.2966 42.4654 45.3145 42.444 45.3267C42.4226 45.339 42.3983 45.3449 42.3737 45.344H40.6092ZM38.7502 39.265C39.1885 39.286 39.6183 39.1383 39.9517 38.8521C40.2403 38.5492 40.4013 38.1464 40.4013 37.7274C40.4013 37.3084 40.2403 36.9056 39.9517 36.6027C39.6188 36.3152 39.1891 36.1659 38.7502 36.1851H36.4419C36.4286 36.1834 36.4151 36.1849 36.4026 36.1893C36.39 36.1938 36.3786 36.2012 36.3694 36.2109C36.3602 36.2206 36.3534 36.2324 36.3496 36.2452C36.3457 36.258 36.3449 36.2716 36.3472 36.2848V39.1701C36.3457 39.1829 36.3471 39.1959 36.3513 39.2081C36.3556 39.2203 36.3625 39.2314 36.3716 39.2405C36.3807 39.2497 36.3918 39.2566 36.4039 39.2609C36.4161 39.2651 36.4291 39.2665 36.4419 39.265H38.7502Z" fill="#E7BB4C"/>
<path d="M40.6068 7.02829H43.2936V21.2318H40.2662V11.7406L35.7156 17.5539L31.1698 11.7786V21.2318H28.1329V7.02829H30.8671L35.7156 13.1975L40.6068 7.02829ZM46.4156 22.048V23.7849C46.4094 24.1391 46.2654 24.4768 46.0144 24.726C45.7634 24.9751 45.4253 25.1159 45.0722 25.1184H26.5483C26.1907 25.1184 25.8478 24.9759 25.595 24.7222C25.3422 24.4686 25.2002 24.1246 25.2002 23.7659V5.18701C25.2039 4.83078 25.3476 4.49042 25.6 4.23985C25.8524 3.98928 26.1932 3.84874 26.5483 3.84876H45.0674C45.4222 3.84997 45.7622 3.99091 46.0144 4.24121C46.2665 4.49152 46.4106 4.83117 46.4156 5.18701V5.72326H49.3105V3.82503C49.3093 3.05937 49.0052 2.32549 48.4651 1.78453C47.925 1.24357 47.193 0.939731 46.4298 0.939732H25.186C24.8065 0.937857 24.4303 1.01123 24.0792 1.15563C23.728 1.30002 23.4088 1.51261 23.1398 1.78116C22.8708 2.04971 22.6573 2.36894 22.5116 2.72051C22.366 3.07208 22.291 3.44905 22.291 3.82978V25.1563C22.2923 25.9212 22.5957 26.6543 23.1348 27.1952C23.6739 27.736 24.4047 28.0404 25.167 28.0416H46.4203C47.1835 28.0416 47.9155 27.7378 48.4556 27.1968C48.9957 26.6559 49.2998 25.922 49.3011 25.1563V22.048H46.4156ZM46.917 7.02829L46.8366 7.19438C46.7556 7.35026 46.6555 7.49534 46.5386 7.62623C46.3801 7.81309 46.2078 7.9876 46.023 8.14824C45.7675 8.3478 45.4837 8.50776 45.181 8.6228C44.7991 8.78426 44.396 8.88975 43.9842 8.93601V10.8817H46.4156V20.5389H49.3105V7.02829H46.917Z" fill="#E7BB4C"/>
<path d="M1.65237 52.8183C1.51481 52.8346 1.37537 52.8203 1.24391 52.7766C1.11244 52.7328 0.992153 52.6606 0.891542 52.5651C0.790931 52.4696 0.712452 52.3531 0.661646 52.2238C0.61084 52.0946 0.588947 51.9557 0.597515 51.817V50.977H1.19827V51.7221C1.19827 52.1112 1.41113 52.3058 1.83212 52.3058H2.33354V49.933H2.93901V52.842L1.65237 52.8183ZM1.41586 49.914V49.3683H2.03553V49.914H1.41586Z" fill="#E7BB4C"/>
<path d="M5.73563 51.5512C5.73745 51.559 5.73745 51.5671 5.73563 51.5749V52.0068C5.73785 52.0161 5.73785 52.0259 5.73563 52.0352C5.72967 52.0379 5.72322 52.0392 5.71671 52.0392C5.7102 52.0392 5.70376 52.0379 5.69779 52.0352H5.42816C5.42859 52.1696 5.40055 52.3026 5.34592 52.4253C5.29128 52.548 5.21129 52.6577 5.11123 52.7471C4.87994 52.9104 4.61166 53.0132 4.33073 53.0461L4.08949 52.5098C4.23486 52.4938 4.3778 52.4603 4.51521 52.4101C4.61198 52.3758 4.69499 52.3109 4.75173 52.2251C4.81219 52.1236 4.84025 52.006 4.83214 51.8881V50.4123C4.74179 50.3941 4.64993 50.3846 4.55779 50.3838C4.20775 50.3838 4.03273 50.5831 4.03273 50.977C4.0254 51.1255 4.07441 51.2713 4.1699 51.3851C4.21918 51.4376 4.27971 51.4781 4.34692 51.5036C4.41413 51.5291 4.48624 51.5389 4.55779 51.5322H4.747L4.51521 52.0495H4.45372C4.26704 52.0528 4.08275 52.007 3.9192 51.9166C3.76101 51.8285 3.63132 51.6968 3.5455 51.537C3.45266 51.3618 3.40547 51.1659 3.40833 50.9675C3.40749 50.7697 3.45803 50.575 3.55496 50.4028C3.6538 50.2363 3.7961 50.1001 3.9665 50.0089C4.15645 49.9108 4.36784 49.8618 4.58144 49.8665C4.86847 49.8749 5.15457 49.9035 5.43763 49.9519V51.5322H5.69779C5.70527 51.5312 5.71286 51.5325 5.7196 51.5359C5.72635 51.5393 5.73193 51.5446 5.73563 51.5512Z" fill="#E7BB4C"/>
<path d="M7.62908 49.9045C7.79879 49.9805 7.94798 50.096 8.06427 50.2415C8.16646 50.364 8.22328 50.5183 8.2251 50.678C8.22383 50.8284 8.18304 50.9757 8.10685 51.1051C8.02366 51.2572 7.91109 51.3911 7.77572 51.499C7.96377 51.5251 8.15357 51.5362 8.34336 51.5322C8.37647 51.5322 8.3954 51.5322 8.3954 51.5797V52.0021C8.3954 52.0353 8.3954 52.0495 8.34336 52.0495C7.93121 52.0557 7.52028 52.003 7.12294 51.8929C6.65784 52.0018 6.18142 52.0544 5.70385 52.0495C5.69746 52.0503 5.69097 52.0496 5.68489 52.0475C5.6788 52.0453 5.67327 52.0419 5.66872 52.0373C5.66416 52.0327 5.6607 52.0272 5.65859 52.0211C5.65649 52.015 5.65579 52.0085 5.65655 52.0021V51.5797C5.65579 51.5733 5.65649 51.5668 5.65859 51.5607C5.6607 51.5546 5.66416 51.549 5.66872 51.5445C5.67327 51.5399 5.6788 51.5364 5.68489 51.5343C5.69097 51.5322 5.69746 51.5315 5.70385 51.5322C5.95055 51.537 6.19726 51.5227 6.44178 51.4895C6.21997 51.2184 6.02064 50.9296 5.84576 50.6258L5.97821 50.0659C6.16766 49.9829 6.36196 49.9116 6.56003 49.8523C6.72618 49.8048 6.89814 49.7808 7.07091 49.7811C7.26338 49.7839 7.45329 49.8258 7.62908 49.9045ZM6.38028 50.5309C6.46762 50.6974 6.5689 50.8562 6.68302 51.0055C6.79609 51.159 6.92275 51.3019 7.06145 51.4326C7.2093 51.3614 7.34374 51.2651 7.45879 51.1479C7.55989 51.0527 7.6194 50.9214 7.62435 50.7824C7.62465 50.7196 7.60812 50.6578 7.57651 50.6036C7.54489 50.5493 7.49934 50.5046 7.4446 50.474C7.31592 50.3927 7.16615 50.3514 7.01414 50.3553C6.79287 50.3683 6.57685 50.4282 6.38028 50.5309Z" fill="#E7BB4C"/>
<path d="M10.0946 50.0658C10.2951 50.1965 10.4491 50.3876 10.5345 50.6116L10.7663 51.2095C10.8056 51.3034 10.8712 51.3839 10.9552 51.4412C11.0391 51.4984 11.1378 51.5301 11.2393 51.5322L11.0028 52.0495C10.8876 52.0449 10.7748 52.0157 10.6717 51.9641C10.5544 51.9104 10.4484 51.8347 10.3595 51.741C10.1607 51.8444 9.94915 51.921 9.73035 51.9688C9.50727 52.0226 9.27862 52.0497 9.04919 52.0495H8.3491C8.34395 52.052 8.33829 52.0533 8.33255 52.0533C8.32681 52.0533 8.32115 52.052 8.31599 52.0495C8.31394 52.0401 8.31394 52.0304 8.31599 52.021V51.5892C8.31394 51.5798 8.31394 51.5701 8.31599 51.5607C8.32115 51.5582 8.32681 51.5569 8.33255 51.5569C8.33829 51.5569 8.34395 51.5582 8.3491 51.5607H9.06811C9.26572 51.5627 9.46325 51.5516 9.6594 51.5275C9.83606 51.5073 10.0094 51.4642 10.175 51.3993L9.97633 50.9248C9.92676 50.7905 9.83557 50.6758 9.71616 50.5973C9.58978 50.5193 9.44353 50.4797 9.29516 50.4834C9.13185 50.4838 8.97054 50.5195 8.82213 50.5878L8.60454 50.1133C8.85172 49.9803 9.12823 49.9118 9.40869 49.914C9.64706 49.8983 9.88496 49.9509 10.0946 50.0658ZM9.12015 52.9749V52.4291H9.73981V52.9749H9.12015Z" fill="#E7BB4C"/>
<path d="M11.752 52.0494V48.7275H12.3574V52.0494H11.752Z" fill="#E7BB4C"/>
<path d="M14.1922 51.551V51.5747V52.0065C14.1942 52.0159 14.1942 52.0256 14.1922 52.035C14.1922 52.035 14.1922 52.035 14.1591 52.035C14.0046 52.0316 13.8541 51.9856 13.7239 51.9021C13.7368 52.0502 13.7205 52.1993 13.6758 52.341C13.6312 52.4827 13.5591 52.6142 13.4637 52.7279C13.2837 52.9113 13.0432 53.0227 12.7873 53.0411L12.5508 52.5048C12.6642 52.4902 12.7755 52.4615 12.8819 52.4194C12.9606 52.3863 13.0245 52.3256 13.0617 52.2486C13.1061 52.1453 13.1271 52.0335 13.1231 51.9211V49.89H13.7239V51.3137C13.7759 51.3777 13.8428 51.4281 13.9186 51.4603C13.9945 51.4926 14.077 51.5058 14.1591 51.4988C14.1591 51.4988 14.1875 51.5367 14.1922 51.551Z" fill="#E7BB4C"/>
<path d="M15.884 50.0087C16.0563 50.0972 16.1993 50.234 16.2955 50.4026C16.3946 50.574 16.4453 50.7692 16.4421 50.9673C16.4194 51.34 16.333 51.706 16.1867 52.0493H14.1574C14.1574 52.0493 14.129 52.0493 14.1243 52.0493C14.1222 52.0449 14.1211 52.04 14.1211 52.0351C14.1211 52.0302 14.1222 52.0253 14.1243 52.0208V51.589C14.1222 51.5845 14.1211 51.5797 14.1211 51.5748C14.1211 51.5698 14.1222 51.565 14.1243 51.5605C14.1243 51.5605 14.1243 51.5605 14.1574 51.5605H14.4176V49.9802C14.7006 49.9316 14.9867 49.903 15.2738 49.8948C15.4834 49.8813 15.6932 49.9204 15.884 50.0087ZM15.0183 50.4121V51.532H15.7326C15.7865 51.3518 15.8151 51.165 15.8177 50.9768C15.8177 50.5829 15.6427 50.3836 15.2927 50.3836C15.2005 50.3839 15.1086 50.3935 15.0183 50.4121Z" fill="#E7BB4C"/>
<path d="M18.8784 49.952V51.8834C18.8899 52.1054 18.8426 52.3265 18.7412 52.5241C18.6563 52.6815 18.5238 52.8078 18.3628 52.8847C18.176 52.9737 17.9765 53.033 17.7715 53.0603L17.5303 52.5241C17.6757 52.5087 17.8187 52.4752 17.956 52.4244C18.0527 52.3901 18.1358 52.3252 18.1925 52.2394C18.2546 52.1384 18.2843 52.0208 18.2776 51.9024V50.4123C18.1873 50.3944 18.0954 50.3849 18.0033 50.3838C17.6532 50.3838 17.4782 50.5832 17.4782 50.977C17.4696 51.125 17.5169 51.2707 17.6107 51.3852C17.6617 51.4366 17.7232 51.4764 17.7909 51.5018C17.8587 51.5272 17.9311 51.5376 18.0033 51.5323H18.1925L17.956 52.0495H17.8992C17.711 52.053 17.5252 52.0072 17.36 51.9167C17.2018 51.8286 17.0721 51.6968 16.9863 51.537C16.8949 51.3615 16.8493 51.1655 16.8538 50.9675C16.8507 50.7694 16.9014 50.5742 17.0005 50.4028C17.0962 50.2356 17.2373 50.099 17.4073 50.0089C17.5974 49.9114 17.8087 49.8625 18.0222 49.8666C18.3092 49.875 18.5953 49.9035 18.8784 49.952Z" fill="#E7BB4C"/>
<path d="M21.446 52.8183C21.2995 52.8311 21.152 52.8124 21.0133 52.7632C20.8746 52.7141 20.7479 52.6358 20.6419 52.5336C20.472 52.3345 20.3826 52.0789 20.3912 51.817V50.977H20.9919V51.7221C20.9919 52.1112 21.2048 52.3058 21.6258 52.3058H22.1272V49.933H22.7327V52.842L21.446 52.8183ZM21.2095 49.914V49.3683H21.8197V49.914H21.2095Z" fill="#E7BB4C"/>
<path d="M25.5091 51.5512V51.5749V52.0068C25.5111 52.0162 25.5111 52.0259 25.5091 52.0352C25.5031 52.0379 25.4967 52.0392 25.4902 52.0392C25.4836 52.0392 25.4772 52.0379 25.4712 52.0352H25.2016C25.202 52.1696 25.174 52.3026 25.1194 52.4253C25.0647 52.548 24.9847 52.6577 24.8847 52.7471C24.6534 52.9104 24.3851 53.0132 24.1042 53.0461L23.8629 52.5098C24.0083 52.4938 24.1512 52.4603 24.2887 52.4101C24.3854 52.3758 24.4684 52.3109 24.5252 52.2251C24.5873 52.1242 24.617 52.0065 24.6103 51.8881V50.4123C24.5183 50.3943 24.4249 50.3848 24.3312 50.3838C23.9812 50.3838 23.8062 50.5831 23.8062 50.977C23.7988 51.1255 23.8479 51.2713 23.9433 51.3851C23.9926 51.4376 24.0532 51.4781 24.1204 51.5036C24.1876 51.5291 24.2597 51.5389 24.3312 51.5322H24.5204L24.2887 52.0495H24.2272C24.0405 52.0523 23.8563 52.0066 23.6926 51.9166C23.5344 51.8285 23.4048 51.6968 23.3189 51.537C23.2261 51.3618 23.1789 51.1659 23.1818 50.9675C23.1809 50.7697 23.2315 50.575 23.3284 50.4028C23.4272 50.2363 23.5695 50.1001 23.7399 50.0089C23.9299 49.9108 24.1413 49.8618 24.3549 49.8665C24.6419 49.8749 24.928 49.9035 25.2111 49.9519V51.5322H25.4712C25.4787 51.5312 25.4863 51.5325 25.493 51.5359C25.4998 51.5393 25.5054 51.5446 25.5091 51.5512Z" fill="#E7BB4C"/>
<path d="M26.5495 51.3708C26.6003 51.43 26.6649 51.4757 26.7375 51.5038C26.8101 51.532 26.8885 51.5417 26.9658 51.5322C26.9658 51.5322 26.9942 51.5322 26.9989 51.5322C27.001 51.5366 27.0021 51.5415 27.0021 51.5464C27.0021 51.5513 27.001 51.5562 26.9989 51.5606V51.9925C27.001 51.9969 27.0021 52.0018 27.0021 52.0067C27.0021 52.0116 27.001 52.0165 26.9989 52.021C26.9989 52.021 26.9989 52.021 26.9658 52.021C26.8601 52.018 26.7559 51.9955 26.6583 51.9545C26.5448 51.9054 26.4419 51.8345 26.3556 51.7457C26.28 51.8359 26.1849 51.9076 26.0775 51.9553C25.9701 52.003 25.8533 52.0255 25.7359 52.021H25.4663C25.4611 52.0235 25.4555 52.0248 25.4497 52.0248C25.444 52.0248 25.4383 52.0235 25.4332 52.021C25.4311 52.0116 25.4311 52.0019 25.4332 51.9925V51.5606C25.4311 51.5513 25.4311 51.5415 25.4332 51.5322C25.4383 51.5296 25.444 51.5283 25.4497 51.5283C25.4555 51.5283 25.4611 51.5296 25.4663 51.5322H25.5562C25.6123 51.5331 25.6678 51.5212 25.7187 51.4973C25.7695 51.4735 25.8142 51.4383 25.8494 51.3945C25.9347 51.2944 25.9787 51.1654 25.9724 51.0339V49.9092H26.5732V51.1335C26.5726 51.2132 26.5647 51.2926 26.5495 51.3708ZM25.9393 52.9748V52.4291H26.5495V52.9748H25.9393Z" fill="#E7BB4C"/>
<path d="M29.7753 52.0493C29.6447 52.058 29.5139 52.0369 29.3926 51.9876C29.2714 51.9383 29.1628 51.862 29.0752 51.7646C29.0003 51.8574 28.9049 51.9315 28.7965 51.9809C28.6881 52.0304 28.5698 52.0538 28.4508 52.0493H26.9702C26.9702 52.0493 26.9418 52.0493 26.9371 52.0493C26.935 52.0399 26.935 52.0302 26.9371 52.0208V51.589C26.935 51.5796 26.935 51.5699 26.9371 51.5605C26.9371 51.5605 26.9371 51.5605 26.9702 51.5605H27.4007V49.9375H28.0061V51.5605H28.271C28.3271 51.5615 28.3827 51.5495 28.4335 51.5257C28.4843 51.5019 28.5291 51.4667 28.5643 51.4229C28.6496 51.3228 28.6936 51.1938 28.6873 51.0622V49.9375H29.2928V51.1856C29.2949 51.2454 29.3137 51.3034 29.3472 51.3529C29.3807 51.4025 29.4274 51.4415 29.482 51.4656C29.6067 51.5286 29.7445 51.5612 29.8841 51.5605H30.1537V49.7572H30.7544V52.0778L29.7753 52.0493Z" fill="#E7BB4C"/>
<path d="M32.0638 51.442C32.096 51.4737 32.1346 51.4982 32.1771 51.5137C32.2195 51.5293 32.2647 51.5355 32.3098 51.5321H32.3996C32.4048 51.5296 32.4105 51.5283 32.4162 51.5283C32.4219 51.5283 32.4276 51.5296 32.4328 51.5321C32.4348 51.5415 32.4348 51.5512 32.4328 51.5606V51.9924C32.4348 52.0018 32.4348 52.0115 32.4328 52.0209C32.4276 52.0234 32.4219 52.0247 32.4162 52.0247C32.4105 52.0247 32.4048 52.0234 32.3996 52.0209H32.13C32.0263 52.0273 31.9226 52.0106 31.8261 51.9721C31.7296 51.9335 31.6428 51.874 31.5718 51.7979C31.4367 51.6252 31.3679 51.4097 31.3779 51.1904V48.7133H31.9786V51.086C31.9686 51.1481 31.971 51.2115 31.9856 51.2726C32.0003 51.3337 32.0268 51.3912 32.0638 51.442Z" fill="#E7BB4C"/>
<path d="M34.1868 50.0658C34.386 50.1967 34.5384 50.3878 34.622 50.6115L34.8538 51.2094C34.8929 51.3093 34.9646 51.393 35.0572 51.4467C35.1422 51.5008 35.2404 51.5303 35.341 51.5321C35.341 51.5321 35.3694 51.5321 35.3741 51.5321C35.3762 51.5415 35.3762 51.5512 35.3741 51.5606V51.9925C35.3762 52.0018 35.3762 52.0115 35.3741 52.0209C35.3741 52.0209 35.3741 52.0209 35.341 52.0209C35.181 52.034 35.0201 52.0133 34.8685 51.9602C34.717 51.907 34.5782 51.8227 34.4612 51.7125C34.2644 51.8166 34.0543 51.8933 33.8368 51.9403C33.6153 51.994 33.3882 52.0211 33.1603 52.0209H32.3988C32.3928 52.0235 32.3864 52.0249 32.3798 52.0249C32.3733 52.0249 32.3669 52.0235 32.3609 52.0209C32.3589 52.0115 32.3589 52.0018 32.3609 51.9925V51.5606C32.3589 51.5512 32.3589 51.5415 32.3609 51.5321C32.3669 51.5295 32.3733 51.5282 32.3798 51.5282C32.3864 51.5282 32.3928 51.5295 32.3988 51.5321H33.1698C33.3658 51.5341 33.5618 51.523 33.7564 51.4989C33.9345 51.4782 34.1093 51.4352 34.2767 51.3708L34.078 50.8962C34.0252 50.7624 33.9328 50.6481 33.8131 50.5688C33.687 50.4902 33.5406 50.4506 33.3921 50.4549C33.2289 50.4557 33.0676 50.4913 32.9191 50.5593L32.7015 50.0847C32.9489 49.9524 33.2253 49.8839 33.5057 49.8854C33.7451 49.8803 33.9811 49.9428 34.1868 50.0658Z" fill="#E7BB4C"/>
<path d="M37.0676 50.0087C37.2399 50.0972 37.3829 50.234 37.4791 50.4026C37.5782 50.574 37.6288 50.7692 37.6257 50.9673C37.603 51.34 37.5166 51.706 37.3703 52.0493H35.341C35.341 52.0493 35.3126 52.0493 35.3079 52.0493C35.3058 52.0449 35.3047 52.04 35.3047 52.0351C35.3047 52.0302 35.3058 52.0253 35.3079 52.0208V51.589C35.3058 51.5845 35.3047 51.5797 35.3047 51.5748C35.3047 51.5698 35.3058 51.565 35.3079 51.5605C35.3079 51.5605 35.3079 51.5605 35.341 51.5605H35.6012V49.9802C35.8842 49.9316 36.1703 49.903 36.4573 49.8948C36.667 49.8813 36.8768 49.9204 37.0676 50.0087ZM36.2019 50.4121V51.532H36.9162C36.9701 51.3518 36.9987 51.165 37.0013 50.9768C37.0013 50.5829 36.8263 50.3836 36.4763 50.3836C36.3841 50.3839 36.2922 50.3935 36.2019 50.4121Z" fill="#E7BB4C"/>
<path d="M40.9643 49.9519V52.0495H40.3636V50.4123C40.2732 50.3943 40.1814 50.3848 40.0892 50.3838C39.7392 50.3838 39.5642 50.5831 39.5642 50.977C39.5555 51.1249 39.6028 51.2706 39.6966 51.3851C39.7476 51.4366 39.8091 51.4764 39.8769 51.5018C39.9446 51.5272 40.0171 51.5376 40.0892 51.5322H40.2784L40.0466 52.0495H39.9852C39.7984 52.0535 39.6139 52.0076 39.4506 51.9166C39.2907 51.8292 39.1593 51.6974 39.0722 51.537C38.9808 51.3614 38.9352 51.1655 38.9398 50.9675C38.9366 50.7694 38.9873 50.5742 39.0864 50.4028C39.1826 50.2342 39.3256 50.0974 39.4979 50.0089C39.6862 49.9108 39.8961 49.8618 40.1081 49.8665C40.3952 49.8749 40.6813 49.9035 40.9643 49.9519Z" fill="#E7BB4C"/>
<path d="M42.2793 51.442C42.3124 51.4738 42.3518 51.4983 42.395 51.5139C42.4382 51.5294 42.4842 51.5356 42.53 51.5321H42.634C42.634 51.5321 42.6624 51.5321 42.6671 51.5321C42.6692 51.5415 42.6692 51.5512 42.6671 51.5606V51.9924C42.6692 52.0018 42.6692 52.0115 42.6671 52.0209C42.6671 52.0209 42.6671 52.0209 42.634 52.0209H42.3691C42.2648 52.0273 42.1602 52.0107 42.063 51.9722C41.9657 51.9336 41.8781 51.8741 41.8062 51.7979C41.6711 51.6252 41.6023 51.4097 41.6123 51.1904V48.7133H42.2178V51.086C42.1936 51.2082 42.2155 51.335 42.2793 51.442Z" fill="#E7BB4C"/>
<path d="M44.1986 50.0801C44.5075 50.0599 44.8133 50.1526 45.0595 50.3411C45.1595 50.4363 45.2376 50.5524 45.2883 50.6811C45.339 50.8098 45.361 50.948 45.3528 51.0861C45.3502 51.2572 45.3215 51.4269 45.2676 51.5892C45.2253 51.7522 45.1683 51.911 45.0973 52.0637H42.6281C42.6281 52.0637 42.5997 52.0637 42.595 52.0637C42.5929 52.0593 42.5918 52.0544 42.5918 52.0495C42.5918 52.0446 42.5929 52.0397 42.595 52.0353V51.6034C42.5929 51.599 42.5918 51.5941 42.5918 51.5892C42.5918 51.5843 42.5929 51.5794 42.595 51.5749C42.595 51.5749 42.595 51.5749 42.6281 51.5749H44.6858C44.733 51.4471 44.7602 51.3126 44.7662 51.1763C44.7743 51.0992 44.7635 51.0212 44.7347 50.9492C44.7058 50.8772 44.6598 50.8134 44.6006 50.7634C44.4579 50.6785 44.2934 50.6372 44.1276 50.6448H43.0633L42.8315 50.1228L44.0425 48.7845H44.7757L43.4512 50.1228L44.1986 50.0801Z" fill="#E7BB4C"/>
<path d="M47.0622 51.551V51.5747V52.0065C47.0642 52.0159 47.0642 52.0256 47.0622 52.035C47.057 52.0375 47.0513 52.0388 47.0456 52.0388C47.0399 52.0388 47.0342 52.0375 47.0291 52.035C46.8745 52.0324 46.7237 51.9863 46.5939 51.9021C46.6179 52.2009 46.5245 52.4972 46.3337 52.7279C46.1537 52.9113 45.9132 53.0227 45.6573 53.0411L45.416 52.5048C45.5296 52.4908 45.6409 52.4621 45.7471 52.4194C45.8271 52.3865 45.8926 52.3259 45.9316 52.2486C45.9743 52.1449 45.9936 52.0331 45.9884 51.9211V49.89H46.5939V51.3137C46.6459 51.3777 46.7128 51.4281 46.7886 51.4603C46.8644 51.4926 46.947 51.5058 47.0291 51.4988C47.0356 51.4975 47.0424 51.4982 47.0485 51.5008C47.0546 51.5035 47.0598 51.5079 47.0634 51.5135C47.0669 51.5192 47.0687 51.5258 47.0685 51.5324C47.0683 51.5391 47.0661 51.5456 47.0622 51.551Z" fill="#E7BB4C"/>
<path d="M49.8366 52.0494C49.7054 52.0582 49.5738 52.0371 49.4518 51.9878C49.3298 51.9385 49.2204 51.8623 49.1318 51.7647C49.0574 51.8569 48.9628 51.9306 48.8553 51.98C48.7478 52.0294 48.6303 52.0532 48.5121 52.0494H47.0316C47.0256 52.0521 47.0192 52.0534 47.0126 52.0534C47.0061 52.0534 46.9997 52.0521 46.9937 52.0494C46.9917 52.0401 46.9917 52.0303 46.9937 52.021V51.5891C46.9917 51.5797 46.9917 51.57 46.9937 51.5606C46.9997 51.558 47.0061 51.5567 47.0126 51.5567C47.0192 51.5567 47.0256 51.558 47.0316 51.5606H47.462V49.9377H48.0628V51.5606H48.3088C48.3655 51.5616 48.4218 51.5497 48.4734 51.5259C48.525 51.5021 48.5706 51.4669 48.6068 51.423C48.692 51.3229 48.736 51.1939 48.7297 51.0624V49.9377H49.3305V51.1857C49.3346 51.2456 49.3548 51.3033 49.3889 51.3526C49.4231 51.4019 49.4699 51.441 49.5244 51.4657C49.6491 51.5288 49.7869 51.5613 49.9265 51.5606H50.2009V49.7573H50.8016V52.0779L49.8366 52.0494ZM48.3088 49.5438V48.998H48.9284V49.5438H48.3088ZM48.7818 48.8225V48.3479H49.34V48.8225H48.7818ZM49.1886 49.5438V48.998H49.8083V49.5438H49.1886Z" fill="#E7BB4C"/>
<path d="M53.2951 49.952V51.8835C53.3051 52.1059 53.2561 52.3269 53.1532 52.5241C53.07 52.6812 52.9391 52.8075 52.7795 52.8848C52.5921 52.9724 52.3929 53.0316 52.1882 53.0604L51.9469 52.5241C52.0908 52.5082 52.2322 52.4747 52.3679 52.4245C52.4652 52.3887 52.5493 52.3242 52.6092 52.2394C52.6673 52.137 52.6951 52.0201 52.6896 51.9025V50.4123C52.5992 50.3942 52.5074 50.3847 52.4152 50.3839C52.0652 50.3839 51.8902 50.5832 51.8902 50.9771C51.8809 51.1259 51.9301 51.2724 52.0273 51.3852C52.0766 51.4377 52.1371 51.4782 52.2044 51.5037C52.2716 51.5291 52.3437 51.5389 52.4152 51.5323H52.6044L52.3727 52.0496H52.3112C52.1244 52.0535 51.9399 52.0077 51.7766 51.9167C51.6184 51.8286 51.4888 51.6968 51.4029 51.537C51.3101 51.3619 51.2629 51.166 51.2658 50.9676C51.2626 50.7695 51.3133 50.5743 51.4124 50.4029C51.5112 50.2364 51.6535 50.1002 51.8239 50.009C52.0137 49.9103 52.2252 49.8613 52.4389 49.8666C52.7259 49.8752 53.012 49.9038 53.2951 49.952Z" fill="#E7BB4C"/>
<path d="M57.857 49.9518V52.7991H55.875C55.7375 52.8154 55.598 52.8011 55.4666 52.7574C55.3351 52.7136 55.2148 52.6414 55.1142 52.5459C55.0136 52.4504 54.9351 52.3339 54.8843 52.2047C54.8335 52.0754 54.8116 51.9365 54.8202 51.7978V50.9578H55.402V51.7029C55.402 52.092 55.6149 52.2866 56.0359 52.2866H57.261V50.3884C57.169 50.3704 57.0756 50.3609 56.9819 50.3599C56.6319 50.3599 56.4616 50.5592 56.4616 50.9531C56.4529 51.101 56.5002 51.2468 56.594 51.3612C56.6445 51.4121 56.7052 51.4515 56.7721 51.4769C56.839 51.5023 56.9105 51.513 56.9819 51.5083H57.1759L56.9393 52.0256H56.8826C56.6944 52.0291 56.5085 51.9833 56.3433 51.8927C56.1851 51.8046 56.0554 51.6729 55.9696 51.5131C55.8782 51.3375 55.8327 51.1416 55.8372 50.9436C55.8347 50.7462 55.8836 50.5515 55.9791 50.3789C56.0779 50.2124 56.2202 50.0762 56.3906 49.985C56.5808 49.8874 56.792 49.8385 57.0056 49.8426C57.2916 49.8591 57.5761 49.8955 57.857 49.9518ZM56.2251 49.5437V48.9979H56.8447V49.5437H56.2251ZM57.086 49.5437V48.9979H57.7057V49.5437H57.086Z" fill="#E7BB4C"/>
<path d="M58.9657 52.7469C58.7876 52.9304 58.5486 53.0419 58.294 53.0601L58.0527 52.5239C58.1663 52.5099 58.2776 52.4812 58.3839 52.4385C58.4635 52.407 58.528 52.3457 58.5636 52.2676C58.6103 52.1651 58.6315 52.0527 58.6251 51.9402V49.9091H59.2258V51.9212C59.2388 52.0692 59.2224 52.2184 59.1778 52.3601C59.1331 52.5018 59.0611 52.6332 58.9657 52.7469ZM58.6109 49.5437V48.9979H59.2306V49.5437H58.6109Z" fill="#E7BB4C"/>
<path d="M60.2517 52.747C60.0717 52.9305 59.8312 53.0418 59.5752 53.0602L59.334 52.524C59.4476 52.51 59.5589 52.4813 59.6651 52.4386C59.7451 52.4057 59.8106 52.3451 59.8496 52.2677C59.8922 52.1641 59.9116 52.0523 59.9064 51.9403V49.9092H60.5118V51.9213C60.5358 52.22 60.4425 52.5164 60.2517 52.747Z" fill="#E7BB4C"/>
<path d="M63.9183 51.4705C64.012 51.5176 64.1165 51.5389 64.2211 51.5322C64.2262 51.5297 64.2319 51.5284 64.2376 51.5284C64.2434 51.5284 64.249 51.5297 64.2542 51.5322C64.2562 51.5416 64.2562 51.5513 64.2542 51.5607V51.9925C64.2562 52.0019 64.2562 52.0116 64.2542 52.021C64.249 52.0235 64.2434 52.0248 64.2376 52.0248C64.2319 52.0248 64.2262 52.0235 64.2211 52.021C64.0246 52.0277 63.8283 52.0037 63.6393 51.9498C63.5104 51.9105 63.3965 51.8327 63.3129 51.7268C63.0738 51.9148 62.7794 52.0183 62.4756 52.021H61.9505L61.7188 51.5037H62.3857C62.6502 51.5157 62.9131 51.4567 63.1473 51.3329L62.5749 49.838H63.223L63.7575 51.2617C63.7863 51.3474 63.8429 51.4209 63.9183 51.4705Z" fill="#E7BB4C"/>
<path d="M65.9202 50.0089C66.0906 50.1001 66.2329 50.2363 66.3318 50.4028C66.4308 50.5742 66.4815 50.7694 66.4784 50.9675C66.48 51.1184 66.4527 51.2682 66.398 51.4088C66.5077 51.4966 66.6458 51.5406 66.7859 51.5322C66.7919 51.5296 66.7983 51.5283 66.8048 51.5283C66.8113 51.5283 66.8178 51.5296 66.8237 51.5322C66.8259 51.5416 66.8259 51.5513 66.8237 51.5607V51.9925C66.8259 52.0019 66.8259 52.0116 66.8237 52.021C66.8178 52.0236 66.8113 52.025 66.8048 52.025C66.7983 52.025 66.7919 52.0236 66.7859 52.021C66.6781 52.0186 66.5719 51.9944 66.4737 51.9498C66.3568 51.9022 66.2518 51.8293 66.1662 51.7363C66.069 51.8302 65.954 51.9037 65.8282 51.9526C65.7023 52.0015 65.568 52.0247 65.433 52.021H64.1937C64.1877 52.0236 64.1813 52.025 64.1748 52.025C64.1682 52.025 64.1618 52.0236 64.1558 52.021C64.1538 52.0116 64.1538 52.0019 64.1558 51.9925V51.5607C64.1538 51.5513 64.1538 51.5416 64.1558 51.5322C64.1618 51.5296 64.1682 51.5283 64.1748 51.5283C64.1813 51.5283 64.1877 51.5296 64.1937 51.5322H64.4491V49.9519C64.7322 49.9035 65.0183 49.8749 65.3053 49.8665C65.5189 49.8618 65.7303 49.9108 65.9202 50.0089ZM65.0546 50.4123V51.5322H65.3337C65.4052 51.5389 65.4773 51.5291 65.5446 51.5036C65.6118 51.4781 65.6723 51.4376 65.7216 51.3851C65.8171 51.2713 65.8661 51.1255 65.8587 50.977C65.8587 50.5831 65.6837 50.3838 65.3337 50.3838C65.2399 50.3838 65.1464 50.3933 65.0546 50.4123Z" fill="#E7BB4C"/>
<path d="M68.5805 50.0659C68.781 50.1966 68.935 50.3876 69.0204 50.6116L69.2522 51.2096C69.2901 51.3087 69.3601 51.3923 69.4509 51.4468C69.5379 51.5004 69.6374 51.5299 69.7394 51.5323C69.7446 51.5297 69.7503 51.5284 69.756 51.5284C69.7617 51.5284 69.7674 51.5297 69.7726 51.5323C69.7746 51.5416 69.7746 51.5514 69.7726 51.5607V51.9926C69.7746 52.002 69.7746 52.0117 69.7726 52.0211C69.7674 52.0236 69.7617 52.0249 69.756 52.0249C69.7503 52.0249 69.7446 52.0236 69.7394 52.0211C69.5794 52.0347 69.4183 52.0143 69.2667 51.9611C69.115 51.908 68.9763 51.8233 68.8596 51.7126C68.6612 51.8168 68.4495 51.8934 68.2305 51.9404C68.0091 51.9947 67.7819 52.0218 67.554 52.0211H66.7925C66.7873 52.0236 66.7816 52.0249 66.7759 52.0249C66.7702 52.0249 66.7645 52.0236 66.7594 52.0211C66.7573 52.0117 66.7573 52.002 66.7594 51.9926V51.5607C66.7573 51.5514 66.7573 51.5416 66.7594 51.5323C66.7645 51.5297 66.7702 51.5284 66.7759 51.5284C66.7816 51.5284 66.7873 51.5297 66.7925 51.5323H67.554C67.7517 51.5344 67.9492 51.5233 68.1453 51.499C68.322 51.4789 68.4953 51.4358 68.6609 51.3709L68.4623 50.8964C68.4127 50.7621 68.3215 50.6473 68.2021 50.5689C68.0757 50.4909 67.9295 50.4513 67.7811 50.455C67.6178 50.4559 67.4566 50.4914 67.3081 50.5594L67.0905 50.0849C67.3377 49.9519 67.6142 49.8834 67.8946 49.8856C68.1358 49.8785 68.3738 49.9411 68.5805 50.0659Z" fill="#E7BB4C"/>
<path d="M71.4857 50.0089C71.657 50.0989 71.7996 50.2353 71.8973 50.4027C71.9963 50.5741 72.047 50.7694 72.0439 50.9675C72.0214 51.3407 71.9333 51.707 71.7837 52.0495H69.7355C69.7355 52.0495 69.7071 52.0495 69.7024 52.0495C69.7003 52.045 69.6992 52.0401 69.6992 52.0352C69.6992 52.0303 69.7003 52.0254 69.7024 52.021V51.5891C69.7003 51.5847 69.6992 51.5798 69.6992 51.5749C69.6992 51.57 69.7003 51.5651 69.7024 51.5607C69.7024 51.5607 69.7024 51.5607 69.7355 51.5607H69.991V49.9804C70.2756 49.9319 70.5633 49.9033 70.8519 49.895C71.0694 49.8774 71.2878 49.9166 71.4857 50.0089ZM70.6201 50.4122V51.5322H71.3344C71.3882 51.352 71.4169 51.1651 71.4195 50.977C71.4195 50.5831 71.2445 50.3838 70.8944 50.3838C70.7944 50.3824 70.6945 50.392 70.5964 50.4122H70.6201Z" fill="#E7BB4C"/>
<path d="M0.00147256 34.657C-0.00170155 34.635 0.000272412 34.6127 0.00723242 34.5916C0.0141924 34.5706 0.0259469 34.5515 0.0415642 34.5358C0.0571816 34.5202 0.0762279 34.5084 0.0971888 34.5014C0.11815 34.4944 0.140448 34.4924 0.162305 34.4956H1.5814C1.63783 34.4886 1.69499 34.5006 1.74383 34.5298C1.79268 34.5591 1.8304 34.6038 1.85102 34.657L4.82639 41.3387H4.88788L7.81594 34.657C7.83657 34.6038 7.87429 34.5591 7.92313 34.5298C7.97197 34.5006 8.02913 34.4886 8.08557 34.4956H9.50466C9.52651 34.4924 9.54881 34.4944 9.56977 34.5014C9.59073 34.5084 9.60978 34.5202 9.62539 34.5358C9.64101 34.5515 9.65277 34.5706 9.65973 34.5916C9.66669 34.6127 9.66866 34.635 9.66549 34.657V45.1826C9.66866 45.2046 9.66669 45.2269 9.65973 45.2479C9.65277 45.269 9.64101 45.2881 9.62539 45.3038C9.60978 45.3194 9.59073 45.3312 9.56977 45.3382C9.54881 45.3452 9.52651 45.3472 9.50466 45.344H8.09976C8.07826 45.3464 8.05651 45.3438 8.03616 45.3364C8.01582 45.3291 7.99741 45.3172 7.98235 45.3016C7.96729 45.2861 7.95597 45.2672 7.94927 45.2466C7.94256 45.226 7.94064 45.2041 7.94366 45.1826V38.5388H7.87743L5.58797 43.6403C5.56537 43.7024 5.52408 43.7558 5.46983 43.7932C5.41557 43.8306 5.35106 43.8502 5.28523 43.8491H4.33917C4.27349 43.8495 4.20928 43.8297 4.15516 43.7923C4.10104 43.755 4.0596 43.702 4.03643 43.6403L1.76588 38.5483H1.70439V45.1921C1.70756 45.214 1.70559 45.2364 1.69863 45.2574C1.69167 45.2785 1.67991 45.2976 1.66429 45.3132C1.64868 45.3289 1.62963 45.3407 1.60867 45.3477C1.58771 45.3547 1.56541 45.3566 1.54355 45.3535H0.162305C0.140448 45.3566 0.11815 45.3547 0.0971888 45.3477C0.0762279 45.3407 0.0571816 45.3289 0.0415642 45.3132C0.0259469 45.2976 0.0141924 45.2785 0.00723242 45.2574C0.000272412 45.2364 -0.00170155 45.214 0.00147256 45.1921V34.657Z" fill="#E7BB4C"/>
<path d="M14.7574 36.6358H14.7243L13.0735 37.7985C12.9552 37.8744 12.8984 37.8412 12.8984 37.7036V36.0758C12.8988 36.0324 12.9093 35.9896 12.929 35.9509C12.9487 35.9121 12.9771 35.8786 13.012 35.8528L14.7243 34.6094C14.8048 34.5452 14.9053 34.5115 15.0082 34.5145H16.361C16.3829 34.5114 16.4052 34.5133 16.4261 34.5203C16.4471 34.5273 16.4661 34.5391 16.4818 34.5548C16.4974 34.5704 16.5091 34.5895 16.5161 34.6106C16.5231 34.6316 16.525 34.654 16.5219 34.6759V45.2015C16.5241 45.2233 16.5214 45.2452 16.5141 45.2658C16.5068 45.2864 16.4951 45.3051 16.4797 45.3206C16.4643 45.336 16.4456 45.3478 16.4251 45.3552C16.4046 45.3625 16.3827 45.3651 16.361 45.3629H14.9183C14.8964 45.3661 14.8741 45.3641 14.8532 45.3571C14.8322 45.3501 14.8132 45.3383 14.7975 45.3227C14.7819 45.307 14.7702 45.2879 14.7632 45.2669C14.7562 45.2458 14.7543 45.2235 14.7574 45.2015V36.6358Z" fill="#E7BB4C"/>
<path d="M24.4711 42.8999C24.416 42.7334 24.3703 42.5638 24.3339 42.3922C24.2922 42.1966 24.2638 41.9984 24.2488 41.799C24.2488 41.5759 24.2109 41.3244 24.2015 41.0112C24.192 40.698 24.2015 40.3468 24.2015 39.9197C24.2015 39.4926 24.2015 39.132 24.2015 38.8282C24.2015 38.5245 24.2015 38.2588 24.2488 38.0357C24.2641 37.8379 24.2926 37.6413 24.3339 37.4473C24.3708 37.2742 24.4166 37.1031 24.4711 36.9348C24.7017 36.1379 25.2039 35.4475 25.8902 34.9843C26.6217 34.5244 27.4729 34.2932 28.3358 34.32C28.8048 34.315 29.272 34.3806 29.7217 34.5145C30.1074 34.6219 30.4766 34.7816 30.8192 34.9891C31.1238 35.1872 31.3925 35.436 31.6139 35.7246C31.8093 35.9918 31.9684 36.2838 32.0869 36.5931C32.0976 36.612 32.1044 36.6329 32.1068 36.6545C32.1092 36.6761 32.1073 36.6979 32.1011 36.7188C32.095 36.7396 32.0846 36.7589 32.0708 36.7757C32.057 36.7924 32.0399 36.8062 32.0207 36.8161L30.7009 37.4568C30.682 37.4654 30.6616 37.4702 30.6408 37.4708C30.62 37.4714 30.5993 37.4679 30.5799 37.4603C30.5605 37.4528 30.5428 37.4415 30.5279 37.427C30.5129 37.4126 30.501 37.3953 30.4928 37.3761C30.2848 36.9799 29.9866 36.6384 29.6224 36.3795C29.2314 36.1361 28.7767 36.0154 28.3168 36.0331C27.848 36.011 27.3848 36.1426 26.9971 36.408C26.6569 36.6753 26.4074 37.0417 26.2828 37.4568C26.2465 37.5657 26.2164 37.6766 26.1929 37.789C26.164 37.9459 26.1435 38.1043 26.1314 38.2635C26.1314 38.4533 26.1031 38.6859 26.0983 38.9564C26.0936 39.2269 26.0983 39.5543 26.0983 39.9387C26.0983 40.3231 26.0983 40.6458 26.0983 40.921C26.0983 41.1963 26.0983 41.3956 26.1314 41.6139C26.1435 41.7731 26.164 41.9315 26.1929 42.0884C26.2171 42.2007 26.2471 42.3116 26.2828 42.4206C26.4077 42.8343 26.6572 43.199 26.9971 43.4647C27.3839 43.732 27.8478 43.8637 28.3168 43.8396C28.7645 43.8473 29.2053 43.7289 29.5893 43.4979C29.9617 43.2656 30.2387 42.9069 30.3698 42.4871C30.4277 42.2916 30.4689 42.0916 30.4928 41.8891C30.5291 41.6218 30.5465 41.3522 30.5448 41.0824C30.5448 41.0159 30.5117 40.9875 30.4455 40.9875H28.6669C28.645 40.9907 28.6227 40.9887 28.6018 40.9817C28.5808 40.9747 28.5618 40.9629 28.5461 40.9473C28.5305 40.9316 28.5188 40.9125 28.5118 40.8915C28.5048 40.8704 28.5029 40.8481 28.506 40.8261V39.5496C28.5037 39.528 28.5062 39.5062 28.5136 39.4858C28.5209 39.4654 28.5327 39.4469 28.5483 39.4318C28.5638 39.4167 28.5825 39.4053 28.6031 39.3986C28.6236 39.3919 28.6455 39.3899 28.6669 39.393H32.2241C32.3329 39.393 32.3849 39.4452 32.3849 39.5496V40.4987C32.3849 40.9448 32.3849 41.3814 32.3187 41.8132C32.2903 42.1713 32.2269 42.5258 32.1295 42.8715C31.8992 43.6736 31.3974 44.37 30.7104 44.8409C29.997 45.3169 29.1545 45.5606 28.2979 45.5385C27.4351 45.5652 26.5838 45.334 25.8523 44.8741C25.1755 44.3988 24.6866 43.7001 24.4711 42.8999Z" fill="#E7BB4C"/>
<path d="M48.094 45.5243C47.2451 45.5466 46.4087 45.3154 45.691 44.8599C45.0047 44.3947 44.5026 43.7029 44.2719 42.9048C44.2198 42.7387 44.1773 42.5678 44.1394 42.397C44.0983 42.2011 44.0683 42.0031 44.0496 41.8038C44.0496 41.5808 44.0117 41.3292 44.0023 41.016C43.9928 40.7028 44.0023 40.3517 44.0023 39.9246C44.0023 39.4975 44.0023 39.1368 44.0023 38.8331C44.0023 38.5294 44.0306 38.2636 44.0496 38.0406C44.0686 37.8429 44.0986 37.6464 44.1394 37.4521C44.1773 37.2813 44.2198 37.1104 44.2719 36.9396C44.5043 36.1436 45.0061 35.4538 45.691 34.9892C46.4207 34.5557 47.2531 34.327 48.1011 34.327C48.9491 34.327 49.7815 34.5557 50.5112 34.9892C51.1974 35.4524 51.6997 36.1427 51.9302 36.9396C51.9832 37.108 52.0274 37.2791 52.0627 37.4521C52.1035 37.6464 52.1335 37.8429 52.1526 38.0406C52.1526 38.2636 52.1904 38.5151 52.1999 38.8331C52.2093 39.151 52.1999 39.4975 52.1999 39.9246C52.1999 40.3517 52.1999 40.7123 52.1999 41.016C52.1999 41.3197 52.1715 41.5808 52.1526 41.8038C52.1338 42.0031 52.1038 42.2011 52.0627 42.397C52.028 42.5686 51.9838 42.7381 51.9302 42.9048C51.701 43.7036 51.1986 44.3959 50.5112 44.8599C49.7891 45.3173 48.9476 45.5486 48.094 45.5243ZM48.094 43.8301C48.5432 43.866 48.9909 43.7434 49.3596 43.4835C49.7284 43.2236 49.9951 42.8426 50.1138 42.4065C50.1422 42.3116 50.1706 42.1977 50.1942 42.0743C50.2179 41.9509 50.2321 41.7848 50.2463 41.5997C50.2605 41.4147 50.2746 41.1774 50.2888 40.9069C50.303 40.6364 50.2888 40.3089 50.2888 39.9246C50.2888 39.5402 50.2888 39.2127 50.2888 38.9422C50.2888 38.6717 50.2652 38.4392 50.2463 38.2494C50.2273 38.0595 50.2131 37.8982 50.1942 37.7748C50.1735 37.6627 50.1467 37.5518 50.1138 37.4426C49.9951 37.0065 49.7284 36.6255 49.3596 36.3656C48.9909 36.1057 48.5432 35.9831 48.094 36.019C47.6325 35.9965 47.1766 36.1283 46.7979 36.3939C46.4621 36.6644 46.2149 37.0297 46.0883 37.4426C46.0599 37.5375 46.0316 37.6467 46.0032 37.7748C45.9724 37.9317 45.9503 38.0901 45.937 38.2494C45.937 38.4392 45.9133 38.6717 45.9086 38.9422C45.9038 39.2127 45.9086 39.5402 45.9086 39.9246C45.9086 40.3089 45.9086 40.6316 45.9086 40.9069C45.9086 41.1821 45.9086 41.3814 45.937 41.5997C45.9503 41.759 45.9724 41.9175 46.0032 42.0743C46.0316 42.1977 46.0599 42.3116 46.0883 42.4065C46.215 42.8181 46.4622 43.1819 46.7979 43.4505C47.1756 43.718 47.6322 43.8501 48.094 43.8254V43.8301Z" fill="#E7BB4C"/>
<path d="M58.1882 43.8253C58.4702 43.836 58.7513 43.7885 59.0141 43.6856C59.277 43.5827 59.5159 43.4268 59.7161 43.2273C59.9227 42.9925 60.0809 42.7189 60.1816 42.4225C60.2822 42.126 60.3234 41.8125 60.3027 41.4999V34.6568C60.2995 34.6349 60.3015 34.6126 60.3084 34.5915C60.3154 34.5705 60.3272 34.5514 60.3428 34.5357C60.3584 34.52 60.3774 34.5083 60.3984 34.5013C60.4194 34.4943 60.4417 34.4923 60.4635 34.4955H62.0245C62.0464 34.4923 62.0687 34.4943 62.0896 34.5013C62.1106 34.5083 62.1296 34.52 62.1453 34.5357C62.1609 34.5514 62.1726 34.5705 62.1796 34.5915C62.1866 34.6126 62.1885 34.6349 62.1853 34.6568V41.5284C62.1938 42.1043 62.091 42.6764 61.8826 43.2131C61.6984 43.6831 61.4155 44.1078 61.0531 44.4583C60.6907 44.8087 60.2573 45.0768 59.7824 45.2442C59.2737 45.4323 58.735 45.5256 58.193 45.5194C57.6539 45.526 57.1183 45.4327 56.613 45.2442C56.1455 45.0728 55.7174 44.8081 55.3548 44.4659C54.9914 44.1127 54.7075 43.6855 54.5223 43.2131C54.3116 42.677 54.2088 42.1045 54.2195 41.5284V34.6568C54.2195 34.5477 54.2715 34.4955 54.3756 34.4955H55.9366C56.0407 34.4955 56.0927 34.5477 56.0927 34.6568V41.4999C56.0726 41.8128 56.1146 42.1265 56.2161 42.423C56.3175 42.7195 56.4766 42.9929 56.684 43.2273C56.8805 43.4252 57.1154 43.5803 57.3742 43.6832C57.6329 43.7861 57.91 43.8344 58.1882 43.8253Z" fill="#E7BB4C"/>
<path d="M64.6623 45.3438C64.6405 45.347 64.6181 45.3451 64.5972 45.3381C64.5762 45.3311 64.5572 45.3193 64.5416 45.3036C64.526 45.288 64.5142 45.2689 64.5072 45.2478C64.5003 45.2268 64.4983 45.2044 64.5015 45.1825V34.6568C64.4983 34.6349 64.5003 34.6126 64.5072 34.5915C64.5142 34.5705 64.526 34.5514 64.5416 34.5357C64.5572 34.52 64.5762 34.5083 64.5972 34.5013C64.6181 34.4943 64.6405 34.4923 64.6623 34.4955H68.7162C69.1999 34.4942 69.6802 34.5777 70.1353 34.7423C70.5539 34.8941 70.9382 35.128 71.2658 35.4304C71.581 35.727 71.8294 36.0878 71.9943 36.4886C72.1736 36.9233 72.2637 37.3897 72.2592 37.8601C72.265 38.3367 72.1749 38.8096 71.9943 39.2505C71.8294 39.6514 71.581 40.0122 71.2658 40.3088C70.9382 40.6112 70.5539 40.8451 70.1353 40.9969C69.6808 41.1637 69.2001 41.2473 68.7162 41.2437H66.474C66.4612 41.2422 66.4482 41.2436 66.4361 41.2478C66.4239 41.252 66.4129 41.259 66.4038 41.2681C66.3946 41.2772 66.3877 41.2883 66.3835 41.3005C66.3793 41.3128 66.3779 41.3258 66.3794 41.3386V45.1825C66.3826 45.2044 66.3806 45.2268 66.3737 45.2478C66.3667 45.2689 66.3549 45.288 66.3393 45.3036C66.3237 45.3193 66.3046 45.3311 66.2837 45.3381C66.2627 45.3451 66.2404 45.347 66.2186 45.3438H64.6623ZM68.6026 39.5353C68.8429 39.5471 69.0831 39.5112 69.3096 39.4298C69.5361 39.3483 69.7443 39.2229 69.9224 39.0607C70.2293 38.7311 70.4001 38.2969 70.4001 37.8459C70.4001 37.3948 70.2293 36.9606 69.9224 36.631C69.7447 36.4681 69.5366 36.3423 69.31 36.2608C69.0834 36.1794 68.843 36.1439 68.6026 36.1564H66.474C66.4608 36.1547 66.4473 36.1562 66.4347 36.1607C66.4221 36.1652 66.4108 36.1726 66.4016 36.1823C66.3924 36.192 66.3856 36.2037 66.3817 36.2165C66.3779 36.2294 66.3771 36.2429 66.3794 36.2561V39.4119C66.3779 39.4247 66.3793 39.4377 66.3835 39.45C66.3877 39.4622 66.3946 39.4733 66.4038 39.4824C66.4129 39.4915 66.4239 39.4985 66.4361 39.5027C66.4482 39.5069 66.4612 39.5083 66.474 39.5068L68.6026 39.5353Z" fill="#E7BB4C"/>
</svg>
