<svg width="73" height="20" viewBox="0 0 73 20" fill="none" xmlns="http://www.w3.org/2000/svg">
<path d="M1.65237 18.8183C1.51481 18.8346 1.37537 18.8203 1.24391 18.7766C1.11244 18.7328 0.992153 18.6606 0.891542 18.5651C0.790931 18.4696 0.712452 18.3531 0.661646 18.2238C0.61084 18.0946 0.588947 17.9557 0.597515 17.817V16.977H1.19827V17.7221C1.19827 18.1112 1.41113 18.3058 1.83212 18.3058H2.33354V15.933H2.93901V18.842L1.65237 18.8183ZM1.41586 15.914V15.3683H2.03553V15.914H1.41586Z" fill="#E7BB4C"/>
<path d="M5.73563 17.5512C5.73745 17.559 5.73745 17.5671 5.73563 17.5749V18.0068C5.73785 18.0161 5.73785 18.0259 5.73563 18.0352C5.72967 18.0379 5.72322 18.0392 5.71671 18.0392C5.7102 18.0392 5.70376 18.0379 5.69779 18.0352H5.42816C5.42859 18.1696 5.40055 18.3026 5.34592 18.4253C5.29128 18.548 5.21129 18.6577 5.11123 18.7471C4.87994 18.9104 4.61166 19.0132 4.33073 19.0461L4.08949 18.5098C4.23486 18.4938 4.3778 18.4603 4.51521 18.4101C4.61198 18.3758 4.69499 18.3109 4.75173 18.2251C4.81219 18.1236 4.84025 18.006 4.83214 17.8881V16.4123C4.74179 16.3941 4.64993 16.3846 4.55779 16.3838C4.20775 16.3838 4.03273 16.5831 4.03273 16.977C4.0254 17.1255 4.07441 17.2713 4.1699 17.3851C4.21918 17.4376 4.27971 17.4781 4.34692 17.5036C4.41413 17.5291 4.48624 17.5389 4.55779 17.5322H4.747L4.51521 18.0495H4.45372C4.26704 18.0528 4.08275 18.007 3.9192 17.9166C3.76101 17.8285 3.63132 17.6968 3.5455 17.537C3.45266 17.3618 3.40547 17.1659 3.40833 16.9675C3.40749 16.7697 3.45803 16.575 3.55496 16.4028C3.6538 16.2363 3.7961 16.1001 3.9665 16.0089C4.15645 15.9108 4.36784 15.8618 4.58144 15.8665C4.86847 15.8749 5.15457 15.9035 5.43763 15.9519V17.5322H5.69779C5.70527 17.5312 5.71286 17.5325 5.7196 17.5359C5.72635 17.5393 5.73193 17.5446 5.73563 17.5512Z" fill="#E7BB4C"/>
<path d="M7.62908 15.9045C7.79879 15.9805 7.94798 16.096 8.06427 16.2415C8.16646 16.364 8.22328 16.5183 8.2251 16.678C8.22383 16.8284 8.18304 16.9757 8.10685 17.1051C8.02366 17.2572 7.91109 17.3911 7.77572 17.499C7.96377 17.5251 8.15357 17.5362 8.34336 17.5322C8.37647 17.5322 8.3954 17.5322 8.3954 17.5797V18.0021C8.3954 18.0353 8.3954 18.0495 8.34336 18.0495C7.93121 18.0557 7.52028 18.003 7.12294 17.8929C6.65784 18.0018 6.18142 18.0544 5.70385 18.0495C5.69746 18.0503 5.69097 18.0496 5.68489 18.0475C5.6788 18.0453 5.67327 18.0419 5.66872 18.0373C5.66416 18.0327 5.6607 18.0272 5.65859 18.0211C5.65649 18.015 5.65579 18.0085 5.65655 18.0021V17.5797C5.65579 17.5733 5.65649 17.5668 5.65859 17.5607C5.6607 17.5546 5.66416 17.549 5.66872 17.5445C5.67327 17.5399 5.6788 17.5364 5.68489 17.5343C5.69097 17.5322 5.69746 17.5315 5.70385 17.5322C5.95055 17.537 6.19726 17.5227 6.44178 17.4895C6.21997 17.2184 6.02064 16.9296 5.84576 16.6258L5.97821 16.0659C6.16766 15.9829 6.36196 15.9116 6.56003 15.8523C6.72618 15.8048 6.89814 15.7808 7.07091 15.7811C7.26338 15.7839 7.45329 15.8258 7.62908 15.9045ZM6.38028 16.5309C6.46762 16.6974 6.5689 16.8562 6.68302 17.0055C6.79609 17.159 6.92275 17.3019 7.06145 17.4326C7.2093 17.3614 7.34374 17.2651 7.45879 17.1479C7.55989 17.0527 7.6194 16.9214 7.62435 16.7824C7.62465 16.7196 7.60812 16.6578 7.57651 16.6036C7.54489 16.5493 7.49934 16.5046 7.4446 16.474C7.31592 16.3927 7.16615 16.3514 7.01414 16.3553C6.79287 16.3683 6.57685 16.4282 6.38028 16.5309Z" fill="#E7BB4C"/>
<path d="M10.0946 16.0658C10.2951 16.1965 10.4491 16.3876 10.5345 16.6116L10.7663 17.2095C10.8056 17.3034 10.8712 17.3839 10.9552 17.4412C11.0391 17.4984 11.1378 17.5301 11.2393 17.5322L11.0028 18.0495C10.8876 18.0449 10.7748 18.0157 10.6717 17.9641C10.5544 17.9104 10.4484 17.8347 10.3595 17.741C10.1607 17.8444 9.94915 17.921 9.73035 17.9688C9.50727 18.0226 9.27862 18.0497 9.04919 18.0495H8.3491C8.34395 18.052 8.33829 18.0533 8.33255 18.0533C8.32681 18.0533 8.32115 18.052 8.31599 18.0495C8.31394 18.0401 8.31394 18.0304 8.31599 18.021V17.5892C8.31394 17.5798 8.31394 17.5701 8.31599 17.5607C8.32115 17.5582 8.32681 17.5569 8.33255 17.5569C8.33829 17.5569 8.34395 17.5582 8.3491 17.5607H9.06811C9.26572 17.5627 9.46325 17.5516 9.6594 17.5275C9.83606 17.5073 10.0094 17.4642 10.175 17.3993L9.97633 16.9248C9.92676 16.7905 9.83557 16.6758 9.71616 16.5973C9.58978 16.5193 9.44353 16.4797 9.29516 16.4834C9.13185 16.4838 8.97054 16.5195 8.82213 16.5878L8.60454 16.1133C8.85172 15.9803 9.12823 15.9118 9.40869 15.914C9.64706 15.8983 9.88496 15.9509 10.0946 16.0658ZM9.12015 18.9749V18.4291H9.73981V18.9749H9.12015Z" fill="#E7BB4C"/>
<path d="M11.752 18.0494V14.7275H12.3574V18.0494H11.752Z" fill="#E7BB4C"/>
<path d="M14.1922 17.551V17.5747V18.0065C14.1942 18.0159 14.1942 18.0256 14.1922 18.035C14.1922 18.035 14.1922 18.035 14.1591 18.035C14.0046 18.0316 13.8541 17.9856 13.7239 17.9021C13.7368 18.0502 13.7205 18.1993 13.6758 18.341C13.6312 18.4827 13.5591 18.6142 13.4637 18.7279C13.2837 18.9113 13.0432 19.0227 12.7873 19.0411L12.5508 18.5048C12.6642 18.4902 12.7755 18.4615 12.8819 18.4194C12.9606 18.3863 13.0245 18.3256 13.0617 18.2486C13.1061 18.1453 13.1271 18.0335 13.1231 17.9211V15.89H13.7239V17.3137C13.7759 17.3777 13.8428 17.4281 13.9186 17.4603C13.9945 17.4926 14.077 17.5058 14.1591 17.4988C14.1591 17.4988 14.1875 17.5367 14.1922 17.551Z" fill="#E7BB4C"/>
<path d="M15.884 16.0087C16.0563 16.0972 16.1993 16.234 16.2955 16.4026C16.3946 16.574 16.4453 16.7692 16.4421 16.9673C16.4194 17.34 16.333 17.706 16.1867 18.0493H14.1574C14.1574 18.0493 14.129 18.0493 14.1243 18.0493C14.1222 18.0449 14.1211 18.04 14.1211 18.0351C14.1211 18.0302 14.1222 18.0253 14.1243 18.0208V17.589C14.1222 17.5845 14.1211 17.5797 14.1211 17.5748C14.1211 17.5698 14.1222 17.565 14.1243 17.5605C14.1243 17.5605 14.1243 17.5605 14.1574 17.5605H14.4176V15.9802C14.7006 15.9316 14.9867 15.903 15.2738 15.8948C15.4834 15.8813 15.6932 15.9204 15.884 16.0087ZM15.0183 16.4121V17.532H15.7326C15.7865 17.3518 15.8151 17.165 15.8177 16.9768C15.8177 16.5829 15.6427 16.3836 15.2927 16.3836C15.2005 16.3839 15.1086 16.3935 15.0183 16.4121Z" fill="#E7BB4C"/>
<path d="M18.8784 15.952V17.8834C18.8899 18.1054 18.8426 18.3265 18.7412 18.5241C18.6563 18.6815 18.5238 18.8078 18.3628 18.8847C18.176 18.9737 17.9765 19.033 17.7715 19.0603L17.5303 18.5241C17.6757 18.5087 17.8187 18.4752 17.956 18.4244C18.0527 18.3901 18.1358 18.3252 18.1925 18.2394C18.2546 18.1384 18.2843 18.0208 18.2776 17.9024V16.4123C18.1873 16.3944 18.0954 16.3849 18.0033 16.3838C17.6532 16.3838 17.4782 16.5832 17.4782 16.977C17.4696 17.125 17.5169 17.2707 17.6107 17.3852C17.6617 17.4366 17.7232 17.4764 17.7909 17.5018C17.8587 17.5272 17.9311 17.5376 18.0033 17.5323H18.1925L17.956 18.0495H17.8992C17.711 18.053 17.5252 18.0072 17.36 17.9167C17.2018 17.8286 17.0721 17.6968 16.9863 17.537C16.8949 17.3615 16.8493 17.1655 16.8538 16.9675C16.8507 16.7694 16.9014 16.5742 17.0005 16.4028C17.0962 16.2356 17.2373 16.099 17.4073 16.0089C17.5974 15.9114 17.8087 15.8625 18.0222 15.8666C18.3092 15.875 18.5953 15.9035 18.8784 15.952Z" fill="#E7BB4C"/>
<path d="M21.446 18.8183C21.2995 18.8311 21.152 18.8124 21.0133 18.7632C20.8746 18.7141 20.7479 18.6358 20.6419 18.5336C20.472 18.3345 20.3826 18.0789 20.3912 17.817V16.977H20.9919V17.7221C20.9919 18.1112 21.2048 18.3058 21.6258 18.3058H22.1272V15.933H22.7327V18.842L21.446 18.8183ZM21.2095 15.914V15.3683H21.8197V15.914H21.2095Z" fill="#E7BB4C"/>
<path d="M25.5091 17.5512V17.5749V18.0068C25.5111 18.0162 25.5111 18.0259 25.5091 18.0352C25.5031 18.0379 25.4967 18.0392 25.4902 18.0392C25.4836 18.0392 25.4772 18.0379 25.4712 18.0352H25.2016C25.202 18.1696 25.174 18.3026 25.1194 18.4253C25.0647 18.548 24.9847 18.6577 24.8847 18.7471C24.6534 18.9104 24.3851 19.0132 24.1042 19.0461L23.8629 18.5098C24.0083 18.4938 24.1512 18.4603 24.2887 18.4101C24.3854 18.3758 24.4684 18.3109 24.5252 18.2251C24.5873 18.1242 24.617 18.0065 24.6103 17.8881V16.4123C24.5183 16.3943 24.4249 16.3848 24.3312 16.3838C23.9812 16.3838 23.8062 16.5831 23.8062 16.977C23.7988 17.1255 23.8479 17.2713 23.9433 17.3851C23.9926 17.4376 24.0532 17.4781 24.1204 17.5036C24.1876 17.5291 24.2597 17.5389 24.3312 17.5322H24.5204L24.2887 18.0495H24.2272C24.0405 18.0523 23.8563 18.0066 23.6926 17.9166C23.5344 17.8285 23.4048 17.6968 23.3189 17.537C23.2261 17.3618 23.1789 17.1659 23.1818 16.9675C23.1809 16.7697 23.2315 16.575 23.3284 16.4028C23.4272 16.2363 23.5695 16.1001 23.7399 16.0089C23.9299 15.9108 24.1413 15.8618 24.3549 15.8665C24.6419 15.8749 24.928 15.9035 25.2111 15.9519V17.5322H25.4712C25.4787 17.5312 25.4863 17.5325 25.493 17.5359C25.4998 17.5393 25.5054 17.5446 25.5091 17.5512Z" fill="#E7BB4C"/>
<path d="M26.5495 17.3708C26.6003 17.43 26.6649 17.4757 26.7375 17.5038C26.8101 17.532 26.8885 17.5417 26.9658 17.5322C26.9658 17.5322 26.9942 17.5322 26.9989 17.5322C27.001 17.5366 27.0021 17.5415 27.0021 17.5464C27.0021 17.5513 27.001 17.5562 26.9989 17.5606V17.9925C27.001 17.9969 27.0021 18.0018 27.0021 18.0067C27.0021 18.0116 27.001 18.0165 26.9989 18.021C26.9989 18.021 26.9989 18.021 26.9658 18.021C26.8601 18.018 26.7559 17.9955 26.6583 17.9545C26.5448 17.9054 26.4419 17.8345 26.3556 17.7457C26.28 17.8359 26.1849 17.9076 26.0775 17.9553C25.9701 18.003 25.8533 18.0255 25.7359 18.021H25.4663C25.4611 18.0235 25.4555 18.0248 25.4497 18.0248C25.444 18.0248 25.4383 18.0235 25.4332 18.021C25.4311 18.0116 25.4311 18.0019 25.4332 17.9925V17.5606C25.4311 17.5513 25.4311 17.5415 25.4332 17.5322C25.4383 17.5296 25.444 17.5283 25.4497 17.5283C25.4555 17.5283 25.4611 17.5296 25.4663 17.5322H25.5562C25.6123 17.5331 25.6678 17.5212 25.7187 17.4973C25.7695 17.4735 25.8142 17.4383 25.8494 17.3945C25.9347 17.2944 25.9787 17.1654 25.9724 17.0339V15.9092H26.5732V17.1335C26.5726 17.2132 26.5647 17.2926 26.5495 17.3708ZM25.9393 18.9748V18.4291H26.5495V18.9748H25.9393Z" fill="#E7BB4C"/>
<path d="M29.7753 18.0493C29.6447 18.058 29.5139 18.0369 29.3926 17.9876C29.2714 17.9383 29.1628 17.862 29.0752 17.7646C29.0003 17.8574 28.9049 17.9315 28.7965 17.9809C28.6881 18.0304 28.5698 18.0538 28.4508 18.0493H26.9702C26.9702 18.0493 26.9418 18.0493 26.9371 18.0493C26.935 18.0399 26.935 18.0302 26.9371 18.0208V17.589C26.935 17.5796 26.935 17.5699 26.9371 17.5605C26.9371 17.5605 26.9371 17.5605 26.9702 17.5605H27.4007V15.9375H28.0061V17.5605H28.271C28.3271 17.5615 28.3827 17.5495 28.4335 17.5257C28.4843 17.5019 28.5291 17.4667 28.5643 17.4229C28.6496 17.3228 28.6936 17.1938 28.6873 17.0622V15.9375H29.2928V17.1856C29.2949 17.2454 29.3137 17.3034 29.3472 17.3529C29.3807 17.4025 29.4274 17.4415 29.482 17.4656C29.6067 17.5286 29.7445 17.5612 29.8841 17.5605H30.1537V15.7572H30.7544V18.0778L29.7753 18.0493Z" fill="#E7BB4C"/>
<path d="M32.0638 17.442C32.096 17.4737 32.1346 17.4982 32.1771 17.5137C32.2195 17.5293 32.2647 17.5355 32.3098 17.5321H32.3996C32.4048 17.5296 32.4105 17.5283 32.4162 17.5283C32.4219 17.5283 32.4276 17.5296 32.4328 17.5321C32.4348 17.5415 32.4348 17.5512 32.4328 17.5606V17.9924C32.4348 18.0018 32.4348 18.0115 32.4328 18.0209C32.4276 18.0234 32.4219 18.0247 32.4162 18.0247C32.4105 18.0247 32.4048 18.0234 32.3996 18.0209H32.13C32.0263 18.0273 31.9226 18.0106 31.8261 17.9721C31.7296 17.9335 31.6428 17.874 31.5718 17.7979C31.4367 17.6252 31.3679 17.4097 31.3779 17.1904V14.7133H31.9786V17.086C31.9686 17.1481 31.971 17.2115 31.9856 17.2726C32.0003 17.3337 32.0268 17.3912 32.0638 17.442Z" fill="#E7BB4C"/>
<path d="M34.1868 16.0658C34.386 16.1967 34.5384 16.3878 34.622 16.6115L34.8538 17.2094C34.8929 17.3093 34.9646 17.393 35.0572 17.4467C35.1422 17.5008 35.2404 17.5303 35.341 17.5321C35.341 17.5321 35.3694 17.5321 35.3741 17.5321C35.3762 17.5415 35.3762 17.5512 35.3741 17.5606V17.9925C35.3762 18.0018 35.3762 18.0115 35.3741 18.0209C35.3741 18.0209 35.3741 18.0209 35.341 18.0209C35.181 18.034 35.0201 18.0133 34.8685 17.9602C34.717 17.907 34.5782 17.8227 34.4612 17.7125C34.2644 17.8166 34.0543 17.8933 33.8368 17.9403C33.6153 17.994 33.3882 18.0211 33.1603 18.0209H32.3988C32.3928 18.0235 32.3864 18.0249 32.3798 18.0249C32.3733 18.0249 32.3669 18.0235 32.3609 18.0209C32.3589 18.0115 32.3589 18.0018 32.3609 17.9925V17.5606C32.3589 17.5512 32.3589 17.5415 32.3609 17.5321C32.3669 17.5295 32.3733 17.5282 32.3798 17.5282C32.3864 17.5282 32.3928 17.5295 32.3988 17.5321H33.1698C33.3658 17.5341 33.5618 17.523 33.7564 17.4989C33.9345 17.4782 34.1093 17.4352 34.2767 17.3708L34.078 16.8962C34.0252 16.7624 33.9328 16.6481 33.8131 16.5688C33.687 16.4902 33.5406 16.4506 33.3921 16.4549C33.2289 16.4557 33.0676 16.4913 32.9191 16.5593L32.7015 16.0847C32.9489 15.9524 33.2253 15.8839 33.5057 15.8854C33.7451 15.8803 33.9811 15.9428 34.1868 16.0658Z" fill="#E7BB4C"/>
<path d="M37.0676 16.0087C37.2399 16.0972 37.3829 16.234 37.4791 16.4026C37.5782 16.574 37.6288 16.7692 37.6257 16.9673C37.603 17.34 37.5166 17.706 37.3703 18.0493H35.341C35.341 18.0493 35.3126 18.0493 35.3079 18.0493C35.3058 18.0449 35.3047 18.04 35.3047 18.0351C35.3047 18.0302 35.3058 18.0253 35.3079 18.0208V17.589C35.3058 17.5845 35.3047 17.5797 35.3047 17.5748C35.3047 17.5698 35.3058 17.565 35.3079 17.5605C35.3079 17.5605 35.3079 17.5605 35.341 17.5605H35.6012V15.9802C35.8842 15.9316 36.1703 15.903 36.4573 15.8948C36.667 15.8813 36.8768 15.9204 37.0676 16.0087ZM36.2019 16.4121V17.532H36.9162C36.9701 17.3518 36.9987 17.165 37.0013 16.9768C37.0013 16.5829 36.8263 16.3836 36.4763 16.3836C36.3841 16.3839 36.2922 16.3935 36.2019 16.4121Z" fill="#E7BB4C"/>
<path d="M40.9643 15.9519V18.0495H40.3636V16.4123C40.2732 16.3943 40.1814 16.3848 40.0892 16.3838C39.7392 16.3838 39.5642 16.5831 39.5642 16.977C39.5555 17.1249 39.6028 17.2706 39.6966 17.3851C39.7476 17.4366 39.8091 17.4764 39.8769 17.5018C39.9446 17.5272 40.0171 17.5376 40.0892 17.5322H40.2784L40.0466 18.0495H39.9852C39.7984 18.0535 39.6139 18.0076 39.4506 17.9166C39.2907 17.8292 39.1593 17.6974 39.0722 17.537C38.9808 17.3614 38.9352 17.1655 38.9398 16.9675C38.9366 16.7694 38.9873 16.5742 39.0864 16.4028C39.1826 16.2342 39.3256 16.0974 39.4979 16.0089C39.6862 15.9108 39.8961 15.8618 40.1081 15.8665C40.3952 15.8749 40.6813 15.9035 40.9643 15.9519Z" fill="#E7BB4C"/>
<path d="M42.2793 17.442C42.3124 17.4738 42.3518 17.4983 42.395 17.5139C42.4382 17.5294 42.4842 17.5356 42.53 17.5321H42.634C42.634 17.5321 42.6624 17.5321 42.6671 17.5321C42.6692 17.5415 42.6692 17.5512 42.6671 17.5606V17.9924C42.6692 18.0018 42.6692 18.0115 42.6671 18.0209C42.6671 18.0209 42.6671 18.0209 42.634 18.0209H42.3691C42.2648 18.0273 42.1602 18.0107 42.063 17.9722C41.9657 17.9336 41.8781 17.8741 41.8062 17.7979C41.6711 17.6252 41.6023 17.4097 41.6123 17.1904V14.7133H42.2178V17.086C42.1936 17.2082 42.2155 17.335 42.2793 17.442Z" fill="#E7BB4C"/>
<path d="M44.1986 16.0801C44.5075 16.0599 44.8133 16.1526 45.0595 16.3411C45.1595 16.4363 45.2376 16.5524 45.2883 16.6811C45.339 16.8098 45.361 16.948 45.3528 17.0861C45.3502 17.2572 45.3215 17.4269 45.2676 17.5892C45.2253 17.7522 45.1683 17.911 45.0973 18.0637H42.6281C42.6281 18.0637 42.5997 18.0637 42.595 18.0637C42.5929 18.0593 42.5918 18.0544 42.5918 18.0495C42.5918 18.0446 42.5929 18.0397 42.595 18.0353V17.6034C42.5929 17.599 42.5918 17.5941 42.5918 17.5892C42.5918 17.5843 42.5929 17.5794 42.595 17.5749C42.595 17.5749 42.595 17.5749 42.6281 17.5749H44.6858C44.733 17.4471 44.7602 17.3126 44.7662 17.1763C44.7743 17.0992 44.7635 17.0212 44.7347 16.9492C44.7058 16.8772 44.6598 16.8134 44.6006 16.7634C44.4579 16.6785 44.2934 16.6372 44.1276 16.6448H43.0633L42.8315 16.1228L44.0425 14.7845H44.7757L43.4512 16.1228L44.1986 16.0801Z" fill="#E7BB4C"/>
<path d="M47.0622 17.551V17.5747V18.0065C47.0642 18.0159 47.0642 18.0256 47.0622 18.035C47.057 18.0375 47.0513 18.0388 47.0456 18.0388C47.0399 18.0388 47.0342 18.0375 47.0291 18.035C46.8745 18.0324 46.7237 17.9863 46.5939 17.9021C46.6179 18.2009 46.5245 18.4972 46.3337 18.7279C46.1537 18.9113 45.9132 19.0227 45.6573 19.0411L45.416 18.5048C45.5296 18.4908 45.6409 18.4621 45.7471 18.4194C45.8271 18.3865 45.8926 18.3259 45.9316 18.2486C45.9743 18.1449 45.9936 18.0331 45.9884 17.9211V15.89H46.5939V17.3137C46.6459 17.3777 46.7128 17.4281 46.7886 17.4603C46.8644 17.4926 46.947 17.5058 47.0291 17.4988C47.0356 17.4975 47.0424 17.4982 47.0485 17.5008C47.0546 17.5035 47.0598 17.5079 47.0634 17.5135C47.0669 17.5192 47.0687 17.5258 47.0685 17.5324C47.0683 17.5391 47.0661 17.5456 47.0622 17.551Z" fill="#E7BB4C"/>
<path d="M49.8366 18.0494C49.7054 18.0582 49.5738 18.0371 49.4518 17.9878C49.3298 17.9385 49.2204 17.8623 49.1318 17.7647C49.0574 17.8569 48.9628 17.9306 48.8553 17.98C48.7478 18.0294 48.6303 18.0532 48.5121 18.0494H47.0316C47.0256 18.0521 47.0192 18.0534 47.0126 18.0534C47.0061 18.0534 46.9997 18.0521 46.9937 18.0494C46.9917 18.0401 46.9917 18.0303 46.9937 18.021V17.5891C46.9917 17.5797 46.9917 17.57 46.9937 17.5606C46.9997 17.558 47.0061 17.5567 47.0126 17.5567C47.0192 17.5567 47.0256 17.558 47.0316 17.5606H47.462V15.9377H48.0628V17.5606H48.3088C48.3655 17.5616 48.4218 17.5497 48.4734 17.5259C48.525 17.5021 48.5706 17.4669 48.6068 17.423C48.692 17.3229 48.736 17.1939 48.7297 17.0624V15.9377H49.3305V17.1857C49.3346 17.2456 49.3548 17.3033 49.3889 17.3526C49.4231 17.4019 49.4699 17.441 49.5244 17.4657C49.6491 17.5288 49.7869 17.5613 49.9265 17.5606H50.2009V15.7573H50.8016V18.0779L49.8366 18.0494ZM48.3088 15.5438V14.998H48.9284V15.5438H48.3088ZM48.7818 14.8225V14.3479H49.34V14.8225H48.7818ZM49.1886 15.5438V14.998H49.8083V15.5438H49.1886Z" fill="#E7BB4C"/>
<path d="M53.2951 15.952V17.8835C53.3051 18.1059 53.2561 18.3269 53.1532 18.5241C53.07 18.6812 52.9391 18.8075 52.7795 18.8848C52.5921 18.9724 52.3929 19.0316 52.1882 19.0604L51.9469 18.5241C52.0908 18.5082 52.2322 18.4747 52.3679 18.4245C52.4652 18.3887 52.5493 18.3242 52.6092 18.2394C52.6673 18.137 52.6951 18.0201 52.6896 17.9025V16.4123C52.5992 16.3942 52.5074 16.3847 52.4152 16.3839C52.0652 16.3839 51.8902 16.5832 51.8902 16.9771C51.8809 17.1259 51.9301 17.2724 52.0273 17.3852C52.0766 17.4377 52.1371 17.4782 52.2044 17.5037C52.2716 17.5291 52.3437 17.5389 52.4152 17.5323H52.6044L52.3727 18.0496H52.3112C52.1244 18.0535 51.9399 18.0077 51.7766 17.9167C51.6184 17.8286 51.4888 17.6968 51.4029 17.537C51.3101 17.3619 51.2629 17.166 51.2658 16.9676C51.2626 16.7695 51.3133 16.5743 51.4124 16.4029C51.5112 16.2364 51.6535 16.1002 51.8239 16.009C52.0137 15.9103 52.2252 15.8613 52.4389 15.8666C52.7259 15.8752 53.012 15.9038 53.2951 15.952Z" fill="#E7BB4C"/>
<path d="M57.857 15.9518V18.7991H55.875C55.7375 18.8154 55.598 18.8011 55.4666 18.7574C55.3351 18.7136 55.2148 18.6414 55.1142 18.5459C55.0136 18.4504 54.9351 18.3339 54.8843 18.2047C54.8335 18.0754 54.8116 17.9365 54.8202 17.7978V16.9578H55.402V17.7029C55.402 18.092 55.6149 18.2866 56.0359 18.2866H57.261V16.3884C57.169 16.3704 57.0756 16.3609 56.9819 16.3599C56.6319 16.3599 56.4616 16.5592 56.4616 16.9531C56.4529 17.101 56.5002 17.2468 56.594 17.3612C56.6445 17.4121 56.7052 17.4515 56.7721 17.4769C56.839 17.5023 56.9105 17.513 56.9819 17.5083H57.1759L56.9393 18.0256H56.8826C56.6944 18.0291 56.5085 17.9833 56.3433 17.8927C56.1851 17.8046 56.0554 17.6729 55.9696 17.5131C55.8782 17.3375 55.8327 17.1416 55.8372 16.9436C55.8347 16.7462 55.8836 16.5515 55.9791 16.3789C56.0779 16.2124 56.2202 16.0762 56.3906 15.985C56.5808 15.8874 56.792 15.8385 57.0056 15.8426C57.2916 15.8591 57.5761 15.8955 57.857 15.9518ZM56.2251 15.5437V14.9979H56.8447V15.5437H56.2251ZM57.086 15.5437V14.9979H57.7057V15.5437H57.086Z" fill="#E7BB4C"/>
<path d="M58.9657 18.7469C58.7876 18.9304 58.5486 19.0419 58.294 19.0601L58.0527 18.5239C58.1663 18.5099 58.2776 18.4812 58.3839 18.4385C58.4635 18.407 58.528 18.3457 58.5636 18.2676C58.6103 18.1651 58.6315 18.0527 58.6251 17.9402V15.9091H59.2258V17.9212C59.2388 18.0692 59.2224 18.2184 59.1778 18.3601C59.1331 18.5018 59.0611 18.6332 58.9657 18.7469ZM58.6109 15.5437V14.9979H59.2306V15.5437H58.6109Z" fill="#E7BB4C"/>
<path d="M60.2517 18.747C60.0717 18.9305 59.8312 19.0418 59.5752 19.0602L59.334 18.524C59.4476 18.51 59.5589 18.4813 59.6651 18.4386C59.7451 18.4057 59.8106 18.3451 59.8496 18.2677C59.8922 18.1641 59.9116 18.0523 59.9064 17.9403V15.9092H60.5118V17.9213C60.5358 18.22 60.4425 18.5164 60.2517 18.747Z" fill="#E7BB4C"/>
<path d="M63.9183 17.4705C64.012 17.5176 64.1165 17.5389 64.2211 17.5322C64.2262 17.5297 64.2319 17.5284 64.2376 17.5284C64.2434 17.5284 64.249 17.5297 64.2542 17.5322C64.2562 17.5416 64.2562 17.5513 64.2542 17.5607V17.9925C64.2562 18.0019 64.2562 18.0116 64.2542 18.021C64.249 18.0235 64.2434 18.0248 64.2376 18.0248C64.2319 18.0248 64.2262 18.0235 64.2211 18.021C64.0246 18.0277 63.8283 18.0037 63.6393 17.9498C63.5104 17.9105 63.3965 17.8327 63.3129 17.7268C63.0738 17.9148 62.7794 18.0183 62.4756 18.021H61.9505L61.7188 17.5037H62.3857C62.6502 17.5157 62.9131 17.4567 63.1473 17.3329L62.5749 15.838H63.223L63.7575 17.2617C63.7863 17.3474 63.8429 17.4209 63.9183 17.4705Z" fill="#E7BB4C"/>
<path d="M65.9202 16.0089C66.0906 16.1001 66.2329 16.2363 66.3318 16.4028C66.4308 16.5742 66.4815 16.7694 66.4784 16.9675C66.48 17.1184 66.4527 17.2682 66.398 17.4088C66.5077 17.4966 66.6458 17.5406 66.7859 17.5322C66.7919 17.5296 66.7983 17.5283 66.8048 17.5283C66.8113 17.5283 66.8178 17.5296 66.8237 17.5322C66.8259 17.5416 66.8259 17.5513 66.8237 17.5607V17.9925C66.8259 18.0019 66.8259 18.0116 66.8237 18.021C66.8178 18.0236 66.8113 18.025 66.8048 18.025C66.7983 18.025 66.7919 18.0236 66.7859 18.021C66.6781 18.0186 66.5719 17.9944 66.4737 17.9498C66.3568 17.9022 66.2518 17.8293 66.1662 17.7363C66.069 17.8302 65.954 17.9037 65.8282 17.9526C65.7023 18.0015 65.568 18.0247 65.433 18.021H64.1937C64.1877 18.0236 64.1813 18.025 64.1748 18.025C64.1682 18.025 64.1618 18.0236 64.1558 18.021C64.1538 18.0116 64.1538 18.0019 64.1558 17.9925V17.5607C64.1538 17.5513 64.1538 17.5416 64.1558 17.5322C64.1618 17.5296 64.1682 17.5283 64.1748 17.5283C64.1813 17.5283 64.1877 17.5296 64.1937 17.5322H64.4491V15.9519C64.7322 15.9035 65.0183 15.8749 65.3053 15.8665C65.5189 15.8618 65.7303 15.9108 65.9202 16.0089ZM65.0546 16.4123V17.5322H65.3337C65.4052 17.5389 65.4773 17.5291 65.5446 17.5036C65.6118 17.4781 65.6723 17.4376 65.7216 17.3851C65.8171 17.2713 65.8661 17.1255 65.8587 16.977C65.8587 16.5831 65.6837 16.3838 65.3337 16.3838C65.2399 16.3838 65.1464 16.3933 65.0546 16.4123Z" fill="#E7BB4C"/>
<path d="M68.5805 16.0659C68.781 16.1966 68.935 16.3876 69.0204 16.6116L69.2522 17.2096C69.2901 17.3087 69.3601 17.3923 69.4509 17.4468C69.5379 17.5004 69.6374 17.5299 69.7394 17.5323C69.7446 17.5297 69.7503 17.5284 69.756 17.5284C69.7617 17.5284 69.7674 17.5297 69.7726 17.5323C69.7746 17.5416 69.7746 17.5514 69.7726 17.5607V17.9926C69.7746 18.002 69.7746 18.0117 69.7726 18.0211C69.7674 18.0236 69.7617 18.0249 69.756 18.0249C69.7503 18.0249 69.7446 18.0236 69.7394 18.0211C69.5794 18.0347 69.4183 18.0143 69.2667 17.9611C69.115 17.908 68.9763 17.8233 68.8596 17.7126C68.6612 17.8168 68.4495 17.8934 68.2305 17.9404C68.0091 17.9947 67.7819 18.0218 67.554 18.0211H66.7925C66.7873 18.0236 66.7816 18.0249 66.7759 18.0249C66.7702 18.0249 66.7645 18.0236 66.7594 18.0211C66.7573 18.0117 66.7573 18.002 66.7594 17.9926V17.5607C66.7573 17.5514 66.7573 17.5416 66.7594 17.5323C66.7645 17.5297 66.7702 17.5284 66.7759 17.5284C66.7816 17.5284 66.7873 17.5297 66.7925 17.5323H67.554C67.7517 17.5344 67.9492 17.5233 68.1453 17.499C68.322 17.4789 68.4953 17.4358 68.6609 17.3709L68.4623 16.8964C68.4127 16.7621 68.3215 16.6473 68.2021 16.5689C68.0757 16.4909 67.9295 16.4513 67.7811 16.455C67.6178 16.4559 67.4566 16.4914 67.3081 16.5594L67.0905 16.0849C67.3377 15.9519 67.6142 15.8834 67.8946 15.8856C68.1358 15.8785 68.3738 15.9411 68.5805 16.0659Z" fill="#E7BB4C"/>
<path d="M71.4857 16.0089C71.657 16.0989 71.7996 16.2353 71.8973 16.4027C71.9963 16.5741 72.047 16.7694 72.0439 16.9675C72.0214 17.3407 71.9333 17.707 71.7837 18.0495H69.7355C69.7355 18.0495 69.7071 18.0495 69.7024 18.0495C69.7003 18.045 69.6992 18.0401 69.6992 18.0352C69.6992 18.0303 69.7003 18.0254 69.7024 18.021V17.5891C69.7003 17.5847 69.6992 17.5798 69.6992 17.5749C69.6992 17.57 69.7003 17.5651 69.7024 17.5607C69.7024 17.5607 69.7024 17.5607 69.7355 17.5607H69.991V15.9804C70.2756 15.9319 70.5633 15.9033 70.8519 15.895C71.0694 15.8774 71.2878 15.9166 71.4857 16.0089ZM70.6201 16.4122V17.5322H71.3344C71.3882 17.352 71.4169 17.1651 71.4195 16.977C71.4195 16.5831 71.2445 16.3838 70.8944 16.3838C70.7944 16.3824 70.6945 16.392 70.5964 16.4122H70.6201Z" fill="#E7BB4C"/>
<path d="M0.00147256 0.656967C-0.00170155 0.635039 0.000272412 0.612673 0.00723242 0.591644C0.0141924 0.570616 0.0259469 0.551508 0.0415642 0.53584C0.0571816 0.520173 0.0762279 0.508377 0.0971888 0.501394C0.11815 0.494412 0.140448 0.492435 0.162305 0.495619H1.5814C1.63783 0.488565 1.69499 0.500603 1.74383 0.52983C1.79268 0.559057 1.8304 0.603799 1.85102 0.656967L4.82639 7.33872H4.88788L7.81594 0.656967C7.83657 0.603799 7.87429 0.559057 7.92313 0.52983C7.97197 0.500603 8.02913 0.488565 8.08557 0.495619H9.50466C9.52652 0.492435 9.54881 0.494412 9.56977 0.501394C9.59073 0.508377 9.60978 0.520173 9.62539 0.53584C9.64101 0.551508 9.65277 0.570616 9.65973 0.591644C9.66669 0.612673 9.66866 0.635039 9.66549 0.656967V11.1826C9.66866 11.2046 9.66669 11.2269 9.65973 11.2479C9.65277 11.269 9.64101 11.2881 9.62539 11.3038C9.60978 11.3194 9.59073 11.3312 9.56977 11.3382C9.54881 11.3452 9.52652 11.3472 9.50466 11.344H8.09976C8.07826 11.3464 8.05651 11.3438 8.03616 11.3364C8.01582 11.3291 7.99741 11.3172 7.98235 11.3016C7.96729 11.2861 7.95597 11.2672 7.94927 11.2466C7.94256 11.226 7.94064 11.2041 7.94366 11.1826V4.53884H7.87743L5.58797 9.64032C5.56537 9.70235 5.52408 9.75579 5.46983 9.79321C5.41557 9.83063 5.35106 9.85017 5.28523 9.84912H4.33917C4.27349 9.84949 4.20928 9.82967 4.15516 9.79234C4.10104 9.75502 4.0596 9.70196 4.03643 9.64032L1.76588 4.54833H1.70439V11.1921C1.70756 11.214 1.70559 11.2364 1.69863 11.2574C1.69167 11.2785 1.67991 11.2976 1.66429 11.3132C1.64868 11.3289 1.62963 11.3407 1.60867 11.3477C1.58771 11.3547 1.56541 11.3566 1.54355 11.3535H0.162305C0.140448 11.3566 0.11815 11.3547 0.0971888 11.3477C0.0762279 11.3407 0.0571816 11.3289 0.0415642 11.3132C0.0259469 11.2976 0.0141924 11.2785 0.00723242 11.2574C0.000272412 11.2364 -0.00170155 11.214 0.00147256 11.1921V0.656967Z" fill="#E7BB4C"/>
<path d="M14.7574 2.6358H14.7243L13.0735 3.79847C12.9552 3.8744 12.8984 3.84118 12.8984 3.70355V2.07583C12.8988 2.03236 12.9093 1.98958 12.929 1.95086C12.9487 1.91215 12.9771 1.87857 13.012 1.85279L14.7243 0.609449C14.8048 0.545158 14.9053 0.511534 15.0082 0.51454H16.361C16.3829 0.511355 16.4052 0.513332 16.4261 0.520314C16.4471 0.527297 16.4661 0.539089 16.4818 0.554757C16.4974 0.570425 16.5091 0.589536 16.5161 0.610565C16.5231 0.631593 16.525 0.65396 16.5219 0.675887V11.2015C16.5241 11.2233 16.5214 11.2452 16.5141 11.2658C16.5068 11.2864 16.4951 11.3051 16.4797 11.3206C16.4643 11.336 16.4456 11.3478 16.4251 11.3552C16.4046 11.3625 16.3827 11.3651 16.361 11.3629H14.9183C14.8964 11.3661 14.8741 11.3641 14.8532 11.3571C14.8322 11.3501 14.8132 11.3383 14.7975 11.3227C14.7819 11.307 14.7702 11.2879 14.7632 11.2669C14.7562 11.2458 14.7543 11.2235 14.7574 11.2015V2.6358Z" fill="#E7BB4C"/>
<path d="M24.4711 8.89994C24.416 8.73335 24.3703 8.56383 24.3339 8.39216C24.2922 8.19658 24.2638 7.9984 24.2488 7.79897C24.2488 7.57592 24.2109 7.32441 24.2015 7.0112C24.192 6.69799 24.2015 6.34682 24.2015 5.91972C24.2015 5.49262 24.2015 5.13196 24.2015 4.82824C24.2015 4.52453 24.2015 4.25878 24.2488 4.03573C24.2641 3.83791 24.2926 3.64132 24.3339 3.44729C24.3708 3.27418 24.4166 3.10311 24.4711 2.93476C24.7017 2.13787 25.2039 1.44754 25.8902 0.984339C26.6217 0.524446 27.4729 0.293183 28.3358 0.319959C28.8048 0.315019 29.272 0.380604 29.7217 0.514529C30.1074 0.6219 30.4766 0.781558 30.8192 0.989085C31.1238 1.18724 31.3925 1.43598 31.6139 1.72465C31.8093 1.99176 31.9684 2.28381 32.0869 2.59308C32.0976 2.61199 32.1044 2.63286 32.1068 2.65446C32.1092 2.67606 32.1073 2.69793 32.1011 2.71876C32.095 2.73959 32.0846 2.75895 32.0708 2.77568C32.057 2.79241 32.0399 2.80617 32.0207 2.81613L30.7009 3.45678C30.682 3.46542 30.6616 3.47019 30.6408 3.4708C30.62 3.47141 30.5993 3.46786 30.5799 3.46035C30.5605 3.45283 30.5428 3.44151 30.5279 3.42704C30.5129 3.41258 30.501 3.39526 30.4928 3.3761C30.2848 2.97987 29.9866 2.63844 29.6224 2.37953C29.2314 2.13608 28.7767 2.01544 28.3168 2.03311C27.848 2.01103 27.3848 2.14263 26.9971 2.40801C26.6569 2.67535 26.4074 3.04166 26.2828 3.45678C26.2465 3.56566 26.2164 3.67658 26.1929 3.78896C26.164 3.94593 26.1435 4.10435 26.1314 4.26352C26.1314 4.45334 26.1031 4.68588 26.0983 4.95638C26.0936 5.22687 26.0983 5.55432 26.0983 5.93871C26.0983 6.3231 26.0983 6.6458 26.0983 6.92104C26.0983 7.19628 26.0983 7.39559 26.1314 7.61389C26.1435 7.77306 26.164 7.93148 26.1929 8.08845C26.2171 8.20068 26.2471 8.31156 26.2828 8.42063C26.4077 8.83429 26.6572 9.199 26.9971 9.46466C27.3839 9.73197 27.8478 9.86374 28.3168 9.83956C28.7645 9.8473 29.2053 9.72892 29.5893 9.49787C29.9617 9.26561 30.2387 8.90692 30.3698 8.48707C30.4277 8.29165 30.4689 8.0916 30.4928 7.88913C30.5291 7.62179 30.5465 7.3522 30.5448 7.08239C30.5448 7.01595 30.5117 6.98748 30.4455 6.98748H28.6669C28.645 6.99066 28.6227 6.98868 28.6018 6.9817C28.5808 6.97471 28.5618 6.96292 28.5461 6.94725C28.5305 6.93159 28.5188 6.91248 28.5118 6.89145C28.5048 6.87042 28.5029 6.84805 28.506 6.82612V5.54957C28.5037 5.52801 28.5062 5.50619 28.5136 5.48577C28.5209 5.46536 28.5327 5.44689 28.5483 5.43178C28.5638 5.41667 28.5825 5.40532 28.6031 5.3986C28.6236 5.39187 28.6455 5.38994 28.6669 5.39297H32.2241C32.3329 5.39297 32.3849 5.44517 32.3849 5.54957V6.49868C32.3849 6.94477 32.3849 7.38136 32.3187 7.8132C32.2903 8.17132 32.2269 8.52578 32.1295 8.87146C31.8992 9.67356 31.3974 10.37 30.7104 10.8409C29.997 11.3169 29.1545 11.5606 28.2979 11.5385C27.4351 11.5652 26.5838 11.334 25.8523 10.8741C25.1755 10.3988 24.6866 9.70007 24.4711 8.89994Z" fill="#E7BB4C"/>
<path d="M48.094 11.5243C47.2451 11.5466 46.4087 11.3154 45.691 10.8599C45.0047 10.3947 44.5026 9.70287 44.2719 8.90477C44.2198 8.73867 44.1773 8.56783 44.1394 8.39699C44.0983 8.20113 44.0683 8.00308 44.0496 7.8038C44.0496 7.58076 44.0117 7.32924 44.0023 7.01603C43.9928 6.70283 44.0023 6.35165 44.0023 5.92455C44.0023 5.49745 44.0023 5.13679 44.0023 4.83308C44.0023 4.52936 44.0306 4.26361 44.0496 4.04057C44.0686 3.8429 44.0986 3.64644 44.1394 3.45212C44.1773 3.28128 44.2198 3.11044 44.2719 2.9396C44.5043 2.1436 45.0061 1.45384 45.691 0.989172C46.4207 0.555722 47.2531 0.327026 48.1011 0.327026C48.9491 0.327026 49.7815 0.555722 50.5112 0.989172C51.1974 1.45237 51.6997 2.1427 51.9302 2.9396C51.9832 3.10802 52.0274 3.27908 52.0627 3.45212C52.1035 3.64644 52.1335 3.8429 52.1526 4.04057C52.1526 4.26361 52.1904 4.51512 52.1999 4.83308C52.2093 5.15103 52.1999 5.49745 52.1999 5.92455C52.1999 6.35165 52.1999 6.71232 52.1999 7.01603C52.1999 7.31975 52.1715 7.58076 52.1526 7.8038C52.1338 8.00308 52.1038 8.20113 52.0627 8.39699C52.028 8.5686 51.9838 8.73812 51.9302 8.90477C51.701 9.70359 51.1986 10.3959 50.5112 10.8599C49.7891 11.3173 48.9476 11.5486 48.094 11.5243ZM48.094 9.83015C48.5432 9.86601 48.9909 9.7434 49.3596 9.48349C49.7284 9.22357 49.9951 8.84265 50.1138 8.40648C50.1422 8.31157 50.1706 8.19768 50.1942 8.0743C50.2179 7.95091 50.2321 7.78482 50.2463 7.59974C50.2605 7.41466 50.2746 7.17738 50.2888 6.90688C50.303 6.63639 50.2888 6.30894 50.2888 5.92455C50.2888 5.54016 50.2888 5.21272 50.2888 4.94222C50.2888 4.67172 50.2652 4.43919 50.2463 4.24937C50.2273 4.05955 50.2131 3.8982 50.1942 3.77481C50.1735 3.66269 50.1467 3.5518 50.1138 3.44263C49.9951 3.00646 49.7284 2.62555 49.3596 2.36563C48.9909 2.10571 48.5432 1.9831 48.094 2.01896C47.6325 1.99648 47.1766 2.12834 46.7979 2.39386C46.4621 2.66436 46.2149 3.0297 46.0883 3.44263C46.0599 3.53754 46.0316 3.64668 46.0032 3.77481C45.9724 3.93165 45.9503 4.09008 45.937 4.24937C45.937 4.43919 45.9133 4.67172 45.9086 4.94222C45.9038 5.21272 45.9086 5.54016 45.9086 5.92455C45.9086 6.30894 45.9086 6.63164 45.9086 6.90688C45.9086 7.18213 45.9086 7.38144 45.937 7.59974C45.9503 7.75903 45.9724 7.91746 46.0032 8.0743C46.0316 8.19768 46.0599 8.31157 46.0883 8.40648C46.215 8.81807 46.4622 9.18187 46.7979 9.45051C47.1756 9.71803 47.6322 9.85009 48.094 9.82541V9.83015Z" fill="#E7BB4C"/>
<path d="M58.1882 9.82527C58.4702 9.83601 58.7513 9.78847 59.0141 9.68561C59.277 9.58275 59.5159 9.42676 59.7161 9.22733C59.9227 8.99249 60.0809 8.71894 60.1816 8.42247C60.2822 8.126 60.3234 7.81246 60.3027 7.49994V0.656844C60.2995 0.634917 60.3015 0.61255 60.3084 0.591522C60.3154 0.570493 60.3272 0.551385 60.3428 0.535718C60.3584 0.52005 60.3774 0.508254 60.3984 0.501272C60.4194 0.494289 60.4417 0.492312 60.4635 0.495497H62.0245C62.0464 0.492312 62.0687 0.494289 62.0896 0.501272C62.1106 0.508254 62.1296 0.52005 62.1453 0.535718C62.1609 0.551385 62.1726 0.570493 62.1796 0.591522C62.1866 0.61255 62.1885 0.634917 62.1853 0.656844V7.52842C62.1938 8.10432 62.091 8.67641 61.8826 9.2131C61.6984 9.68309 61.4155 10.1078 61.0531 10.4583C60.6907 10.8087 60.2573 11.0768 59.7824 11.2442C59.2737 11.4323 58.735 11.5256 58.193 11.5194C57.6539 11.526 57.1183 11.4327 56.613 11.2442C56.1455 11.0728 55.7174 10.8081 55.3548 10.4659C54.9914 10.1127 54.7075 9.68549 54.5223 9.2131C54.3116 8.67705 54.2088 8.10451 54.2195 7.52842V0.656844C54.2195 0.547696 54.2715 0.495497 54.3756 0.495497H55.9366C56.0407 0.495497 56.0927 0.547696 56.0927 0.656844V7.49994C56.0726 7.81278 56.1146 8.12651 56.2161 8.423C56.3175 8.71949 56.4766 8.99287 56.684 9.22733C56.8805 9.42517 57.1154 9.58034 57.3742 9.68321C57.6329 9.78607 57.91 9.83443 58.1882 9.82527Z" fill="#E7BB4C"/>
<path d="M64.6623 11.3438C64.6405 11.347 64.6181 11.3451 64.5972 11.3381C64.5762 11.3311 64.5572 11.3193 64.5416 11.3036C64.526 11.288 64.5142 11.2689 64.5072 11.2478C64.5003 11.2268 64.4983 11.2044 64.5015 11.1825V0.656844C64.4983 0.634917 64.5003 0.61255 64.5072 0.591522C64.5142 0.570493 64.526 0.551385 64.5416 0.535718C64.5572 0.52005 64.5762 0.508254 64.5972 0.501272C64.6181 0.494289 64.6405 0.492312 64.6623 0.495497H68.7162C69.1999 0.494214 69.6802 0.577724 70.1353 0.742264C70.5539 0.89409 70.9382 1.12801 71.2658 1.43037C71.581 1.72701 71.8294 2.08782 71.9943 2.48863C72.1736 2.92326 72.2637 3.38972 72.2592 3.8601C72.265 4.33674 72.1749 4.80965 71.9943 5.25055C71.8294 5.65136 71.581 6.01217 71.2658 6.30881C70.9382 6.61118 70.5539 6.84509 70.1353 6.99692C69.6808 7.16369 69.2001 7.24727 68.7162 7.24369H66.474C66.4612 7.24216 66.4482 7.24356 66.4361 7.24779C66.4239 7.25202 66.4129 7.25897 66.4038 7.26811C66.3946 7.27725 66.3877 7.28833 66.3835 7.30054C66.3793 7.31275 66.3779 7.32577 66.3794 7.3386V11.1825C66.3826 11.2044 66.3806 11.2268 66.3737 11.2478C66.3667 11.2689 66.3549 11.288 66.3393 11.3036C66.3237 11.3193 66.3046 11.3311 66.2837 11.3381C66.2627 11.3451 66.2404 11.347 66.2186 11.3438H64.6623ZM68.6026 5.53528C68.8429 5.54705 69.0831 5.5112 69.3096 5.42977C69.5361 5.34835 69.7443 5.22294 69.9224 5.06073C70.2293 4.73113 70.4001 4.29691 70.4001 3.84586C70.4001 3.39481 70.2293 2.96059 69.9224 2.631C69.7447 2.46813 69.5366 2.3423 69.31 2.26084C69.0834 2.17937 68.843 2.14388 68.6026 2.15644H66.474C66.4608 2.15475 66.4473 2.1562 66.4347 2.16069C66.4221 2.16517 66.4108 2.17257 66.4016 2.18227C66.3924 2.19197 66.3856 2.2037 66.3817 2.21653C66.3779 2.22936 66.3771 2.24291 66.3794 2.2561V5.4119C66.3779 5.42473 66.3793 5.43774 66.3835 5.44995C66.3877 5.46216 66.3946 5.47325 66.4038 5.48239C66.4129 5.49153 66.4239 5.49847 66.4361 5.5027C66.4482 5.50693 66.4612 5.50834 66.474 5.50681L68.6026 5.53528Z" fill="#E7BB4C"/>
</svg>
