<svg width="35" height="35" viewBox="0 0 25 25" fill="none" xmlns="http://www.w3.org/2000/svg">
<g clip-path="url(#clip0_664_7252)">
<path d="M23.2828 8.89V21.6461C23.2828 22.9692 22.1919 24.0461 20.8516 24.0768H3.45941C2.11915 24.0768 1.02824 22.9999 1.02824 21.6461V4.10762C1.02824 2.78454 2.11915 1.70762 3.45941 1.67685H20.8204C22.1607 1.67685 23.2516 2.75377 23.2516 4.10762V4.24936H23.688V4.10762C23.688 2.56916 22.4101 1.30762 20.8516 1.30762H3.45941C1.90097 1.30762 0.623047 2.56916 0.623047 4.10762V21.6461C0.623047 23.2153 1.90097 24.4461 3.45941 24.4461H20.8204C22.4101 24.4461 23.688 23.1845 23.688 21.6461V8.89H23.2828Z" fill="#FFF" stroke="#FFF"/>
<path d="M23.4 8H24V5H23.5C23.449 5.38941 23.3754 5.53199 23 5.57366V6.14733H23.4V8Z" fill="#FFF"/>
<g clip-path="url(#clip1_664_7252)">
<path d="M11.8439 10.6618C11.9704 9.65844 12.7434 8.83732 13.7252 8.66545L13.7253 8.66544C14.4474 8.54024 15.1721 8.758 15.6993 9.25254C16.0646 9.16318 16.4134 9.01879 16.738 8.82241L16.738 8.8224L17.2811 8.49408L17.3942 8.42569L17.3547 8.55182L17.1648 9.15734L17.1648 9.15736C17.1084 9.33709 17.0313 9.50804 16.9357 9.66707C16.9708 9.65247 17.0056 9.63729 17.0402 9.62152L17.0403 9.62148L17.7927 9.28045L17.9495 9.20939L17.8552 9.35338L17.4025 10.0446L17.3607 10.0172L17.4025 10.0446C17.1395 10.4462 16.8185 10.7977 16.4472 11.092C16.448 11.1341 16.4483 11.1763 16.4483 11.2186C16.4483 14.2398 14.1928 17.3699 10.4144 17.3699C9.25885 17.3699 8.13383 17.0334 7.16095 16.3972L7.16094 16.3972L6.3027 15.8356L6.33605 15.7441L7.35437 15.8665L7.35438 15.8665C8.12092 15.9589 8.89228 15.8116 9.55952 15.4519C8.89877 15.2085 8.3684 14.6654 8.14622 13.9581L8.14621 13.9581L8.02573 13.5738L8.00067 13.4939L8.08292 13.5098L8.14612 13.522C7.69172 13.0831 7.41709 12.4611 7.42536 11.7863L7.42536 11.7863L7.4304 11.3802L7.43145 11.2957L7.50505 11.3374L7.72476 11.4618C7.54147 11.1209 7.44168 10.7338 7.44168 10.3325C7.44168 9.91787 7.54926 9.50995 7.7533 9.15311C7.75331 9.1531 7.75331 9.15309 7.75331 9.15309L7.9285 8.84639L7.96502 8.78246L8.01098 8.83997L8.23154 9.11597L8.23154 9.11597C9.13146 10.2422 10.4271 10.9633 11.8282 11.1295C11.8188 10.9754 11.824 10.8192 11.8439 10.6618ZM11.8439 10.6618C11.8439 10.6618 11.8439 10.6618 11.8439 10.6618L11.8935 10.6681L11.8439 10.6618ZM16.035 10.4981C16.1231 10.4874 16.2106 10.474 16.2974 10.4578C16.1969 10.5503 16.0911 10.6372 15.9806 10.7185L15.8774 10.7943L15.8559 10.8101L15.8571 10.8368L15.8626 10.9647L15.8626 10.9648C15.8664 11.0489 15.8681 11.1334 15.8681 11.2184C15.8683 14.7063 13.0958 16.7899 10.4144 16.7899C9.74441 16.7899 9.08577 16.6644 8.46736 16.4223C9.20387 16.3084 9.89345 16.0047 10.4896 15.5277L11.0084 15.1128L11.1165 15.0264L10.9781 15.0238L10.3138 15.0113L10.3138 15.0113C9.7262 15.0004 9.19531 14.6866 8.88881 14.196C9.06631 14.1893 9.24201 14.1622 9.41212 14.1149L9.39872 14.0667L9.41212 14.1149L10.3702 13.8482L10.3668 13.7511L9.39268 13.5514C8.72817 13.4152 8.21627 12.8969 8.05702 12.2466C8.24004 12.3001 8.42953 12.3309 8.62021 12.3371C8.62021 12.3371 8.62022 12.3371 8.62022 12.3371L9.44533 12.364L9.6172 12.3696L9.47513 12.2727L8.79305 11.8076L8.79304 11.8076C8.31016 11.4784 8.02144 10.9271 8.02144 10.3325C8.02144 10.1645 8.04474 9.99808 8.09001 9.83841C9.15188 10.9735 10.6072 11.6598 12.1509 11.739L12.1509 11.739L12.4677 11.755L12.5337 11.7584L12.519 11.694L12.4484 11.3846L12.4484 11.3846C12.4008 11.176 12.3907 10.9573 12.419 10.7344L12.419 10.7343C12.5141 9.98053 13.0929 9.36511 13.825 9.237L13.825 9.23699C14.4081 9.13457 14.9933 9.33281 15.3924 9.76664L15.3924 9.76664L15.4838 9.866L15.5029 9.88667L15.5304 9.88118L15.6629 9.85478L15.6629 9.85477C15.8302 9.82125 15.9946 9.7778 16.1556 9.72486C16.063 9.81479 15.9603 9.89478 15.8488 9.96274L15.8488 9.96277L14.9058 10.5392L14.938 10.6315L16.035 10.4981C16.035 10.4981 16.035 10.4981 16.035 10.4981Z" fill="#FFF" stroke="#FFF" stroke-width="0.1"/>
</g>
</g>
<defs>
<clipPath id="clip0_664_7252">
<rect width="25" height="25" fill="white"/>
</clipPath>
<clipPath id="clip1_664_7252">
<rect width="12" height="12" fill="white" transform="translate(6 7)"/>
</clipPath>
</defs>
</svg>
