<svg width="46" height="45" viewBox="0 0 46 45" fill="none" xmlns="http://www.w3.org/2000/svg">
<path d="M4.27501 0.762493C2.80001 1.04999 1.47501 2.07499 0.800009 3.43749L0.437509 4.18749L0.400009 17.75C0.375009 29.925 0.387509 31.375 0.575009 31.9375C1.02501 33.3375 2.06251 34.4625 3.46251 35.025L4.18751 35.3125L14.35 35.35L24.5 35.3875V35.6625C24.5 36.7875 25.6875 39.425 26.8 40.775C28.1 42.35 30.3875 43.8 32.375 44.3125C33.7375 44.6625 35.725 44.6875 37.175 44.4C40.8875 43.625 43.8625 40.9625 45.15 37.25C45.5375 36.1 45.5625 35.9875 45.5625 34.0625C45.5625 31.85 45.4375 31.2125 44.6875 29.5375C43.275 26.45 40.325 24.125 37 23.5C35.8 23.275 33.8 23.325 32.5875 23.6125C28.5375 24.575 25.35 27.8375 24.6 31.8L24.4375 32.625H14.5125H4.58751L4.05001 32.3125C3.70001 32.1125 3.43751 31.825 3.26251 31.4625C2.72501 30.35 2.52501 30.6125 7.43751 25.775C12.15 21.1375 12.425 20.9125 13.6875 20.7875C14.925 20.6625 15.55 20.9625 17.15 22.45C17.925 23.175 18.7875 23.875 19.0625 24.0125C19.6625 24.3 20.35 24.3125 20.95 24.0625C21.225 23.95 22.8625 22.45 25.2125 20.1625C27.3125 18.1125 29.3125 16.25 29.6625 16.025C31.9875 14.55 35.125 14.7875 37.1125 16.575C37.725 17.125 37.75 17.175 37.75 17.8125C37.75 18.9625 38.5875 19.6 39.5625 19.2C40.4125 18.8375 40.3875 19.025 40.35 11.3375C40.3125 4.43749 40.3125 4.43749 40.025 3.71249C39.4375 2.27499 37.925 1.03749 36.3875 0.749992C35.5625 0.599995 5.06251 0.599995 4.27501 0.762493ZM36.425 3.54999C36.65 3.64999 37 3.93749 37.2 4.19999L37.5625 4.66249L37.6 9.14999C37.6125 11.6125 37.6125 13.625 37.575 13.625C37.55 13.625 37.1875 13.45 36.775 13.25C34.7875 12.2625 32.225 12.15 29.9625 12.9375C28.2 13.55 27.5625 14.05 23.7375 17.8375C21.7625 19.7875 20.1125 21.375 20.0625 21.375C20.0125 21.375 19.5375 20.975 19.0125 20.4875C18.4875 19.9875 17.775 19.4 17.4375 19.175C16.0625 18.25 14.2 17.925 12.575 18.3C10.8875 18.7 10.5 19 6.60001 22.8625L3.00001 26.425V15.725V5.03749L3.28751 4.48749C3.47501 4.14999 3.76251 3.83749 4.07501 3.66249L4.56251 3.37499H20.2875C33.45 3.37499 36.075 3.39999 36.425 3.54999ZM36.925 26.25C39.1875 26.825 41.15 28.3875 42.1 30.3875C43.075 32.4125 43.225 34.4625 42.5625 36.4625C41.1125 40.7625 36.55 43 32.275 41.5C30.45 40.8625 28.7375 39.3375 27.8875 37.6125C26.7 35.1875 26.7125 32.6125 27.9625 30.2125C28.6 28.975 30.125 27.4625 31.3 26.9C33.15 26 35.1 25.775 36.925 26.25Z" fill="#0261E0"/>
<path d="M12.0625 5.2875C11.2 5.575 10.55 5.975 9.9625 6.5625C7.5125 9 8.2625 13.0375 11.4375 14.5125C13.3375 15.4 15.375 15.0125 16.95 13.4375C17.9875 12.4125 18.3 11.6125 18.3125 10C18.3125 8.925 18.275 8.7375 17.925 8C17.4125 6.925 16.575 6.0875 15.525 5.5875C14.8375 5.2625 14.5125 5.1875 13.625 5.1625C12.975 5.1375 12.3625 5.1875 12.0625 5.2875ZM14.15 7.9C14.425 7.975 14.8125 8.25 15.0625 8.5125C16.6125 10.2375 15.1 12.775 12.8625 12.2C11.15 11.75 10.625 9.8375 11.8375 8.4875C12.4625 7.8 13.2 7.6125 14.15 7.9Z" fill="#0261E0"/>
<path d="M34.425 28.8125C34.2125 28.925 32.9625 30.0875 31.65 31.4125C29.525 33.55 29.25 33.875 29.25 34.2375C29.25 35.1625 30 35.85 30.8375 35.6875C31.1625 35.625 31.575 35.3125 32.45 34.475L33.625 33.3375V35.75C33.625 38.4625 33.7125 38.8375 34.4375 39.175C34.95 39.425 35.05 39.425 35.5625 39.175C36.2875 38.8375 36.375 38.4625 36.375 35.7375V33.3125L37.4875 34.425C38.5 35.425 38.65 35.5375 39.1625 35.5875C39.675 35.65 39.775 35.6125 40.1125 35.2875C40.5625 34.825 40.7 34.3625 40.5125 33.9C40.425 33.7125 39.2875 32.475 37.9625 31.1625C35.4 28.6 35.1625 28.45 34.425 28.8125Z" fill="#0261E0"/>
</svg>
