<svg width="62" height="62" viewBox="0 0 62 62" fill="none" xmlns="http://www.w3.org/2000/svg">
<path d="M60.0999 10.9841V11.0478C60.0674 11.1044 60.0294 11.1578 59.9864 11.2072C59.9277 11.2768 59.8626 11.3408 59.7918 11.3984C59.6973 11.4762 59.5905 11.5381 59.4755 11.5817C59.33 11.6403 59.1774 11.6804 59.0215 11.7012V12.4104H59.9377V18.5936H60.9999V10.9841H60.0999Z" fill="#E2B756" stroke="#E2B756"/>
<path d="M59.9622 20.7512V53.6932C59.9632 54.5157 59.7994 55.3303 59.4801 56.0906C59.1609 56.8508 58.6923 57.5418 58.1013 58.1241C57.5103 58.7064 56.8083 59.1686 56.0355 59.4844C55.2627 59.8001 54.4342 59.9631 53.5973 59.9641H8.41892C7.58201 59.9631 6.7535 59.8001 5.9807 59.4844C5.20791 59.1686 4.50595 58.7064 3.91492 58.1241C3.32389 57.5418 2.85535 56.8508 2.53606 56.0906C2.21678 55.3303 2.05299 54.5157 2.05405 53.6932V8.2749C2.06048 6.61939 2.73364 5.03372 3.92636 3.86458C5.11908 2.69544 6.73431 2.03795 8.41892 2.03586H53.5973C55.2847 2.03796 56.9024 2.69765 58.0956 3.87023C59.2887 5.04281 59.96 6.63256 59.9622 8.29084V8.96813H61V8.29084C60.9979 6.36059 60.2178 4.50977 58.8304 3.14338C57.4431 1.777 55.5614 1.00632 53.5973 1L8.41892 1C6.45261 1.00421 4.56807 1.7737 3.17768 3.14009C1.78729 4.50647 1.00428 6.35848 1 8.29084L1 53.7092C1.00428 55.6415 1.78729 57.4935 3.17768 58.8599C4.56807 60.2263 6.45261 60.9958 8.41892 61H53.5973C55.5643 60.9937 57.4483 60.2208 58.8361 58.851C60.224 57.4811 61.0022 55.6262 61 53.6932V20.7512H59.9622Z" fill="#E2B756" stroke="#E2B756" stroke-width="2"/>
<path d="M31.5266 42.745C27.6744 42.6943 23.9327 41.4723 20.8158 39.247C17.8352 37.2477 15.1899 34.804 12.9752 32.004C12.2779 31.1355 12.2698 30.8247 12.9752 29.996C15.9596 26.1297 19.8107 22.9914 24.2293 20.8247C29.5969 18.3387 34.7698 18.8725 39.805 21.7809C43.4311 23.9405 46.6086 26.755 49.1698 30.0757C49.4036 30.2887 49.5455 30.5816 49.5666 30.8942C49.5877 31.2068 49.4864 31.5155 49.2833 31.757C46.0806 35.7968 42.3509 39.247 37.5266 41.3506C35.6478 42.2225 33.6038 42.6975 31.5266 42.745ZM31.0969 23.5259C30.0777 23.4932 29.0623 23.6622 28.111 24.0229C27.1597 24.3836 26.2919 24.9286 25.5592 25.6255C24.8266 26.3224 24.244 27.1569 23.8461 28.0795C23.4482 29.0022 23.2432 29.994 23.2432 30.996C23.2432 31.9981 23.4482 32.9899 23.8461 33.9125C24.244 34.8351 24.8266 35.6697 25.5592 36.3666C26.2919 37.0635 27.1597 37.6085 28.111 37.9692C29.0623 38.3298 30.0777 38.4989 31.0969 38.4661C32.116 38.4989 33.1314 38.3298 34.0827 37.9692C35.034 37.6085 35.9018 37.0635 36.6345 36.3666C37.3671 35.6697 37.9497 34.8351 38.3476 33.9125C38.7455 32.9899 38.9506 31.9981 38.9506 30.996C38.9506 29.994 38.7455 29.0022 38.3476 28.0795C37.9497 27.1569 37.3671 26.3224 36.6345 25.6255C35.9018 24.9286 35.034 24.3836 34.0827 24.0229C33.1314 23.6622 32.116 23.4932 31.0969 23.5259Z" fill="#E2B756"/>
<path d="M31.1046 34.1873C30.2444 34.1873 29.4195 33.8515 28.8113 33.2538C28.203 32.656 27.8613 31.8453 27.8613 31C27.8613 30.1547 28.203 29.344 28.8113 28.7463C29.4195 28.1486 30.2444 27.8128 31.1046 27.8128C31.9647 27.8128 32.7897 28.1486 33.3979 28.7463C34.0061 29.344 34.3478 30.1547 34.3478 31C34.3478 31.8453 34.0061 32.656 33.3979 33.2538C32.7897 33.8515 31.9647 34.1873 31.1046 34.1873Z" fill="#E2B756"/>
</svg>
